<?xml version="1.0" encoding="UTF-8" standalone="no"?>
<!DOCTYPE svg PUBLIC "-//W3C//DTD SVG 1.1//EN" "http://www.w3.org/Graphics/SVG/1.1/DTD/svg11.dtd">
<svg width="100%" height="100%" viewBox="0 0 248 395" version="1.1" xmlns="http://www.w3.org/2000/svg" xmlns:xlink="http://www.w3.org/1999/xlink" xml:space="preserve" style="fill-rule:evenodd;clip-rule:evenodd;stroke-linecap:round;stroke-linejoin:round;stroke-miterlimit:1.5;">
    <g transform="matrix(-1,0,0,1,902.718,-287.468)">
        <g transform="matrix(0.79971,0,0,0.79971,428.504,-195.705)">
            <g transform="matrix(1.4166,0,0,1.4166,-508.103,163.483)">
                <path d="M577.403,619.342L581.729,658.767L623.589,658.767L620.877,616.819L577.403,619.342Z" style="fill:rgb(225,169,139);"/>
            </g>
            <g transform="matrix(1.4166,0,0,1.4166,-508.103,163.483)">
                <path d="M577.276,619.315C577.292,619.263 577.323,619.232 577.375,619.215C577.5,619.198 577.627,619.198 577.753,619.19C592.12,618.269 606.488,617.356 620.856,616.453L620.92,616.454C620.985,616.467 621.042,616.482 621.097,616.522C621.114,616.535 621.129,616.551 621.145,616.565L621.145,616.564C621.188,616.617 621.221,616.665 621.238,616.731C621.243,616.752 621.245,616.774 621.248,616.795L621.411,619.137C622.318,632.336 623.225,645.534 624.088,658.735L624.087,658.817C624.082,658.843 624.079,658.871 624.072,658.897C624.058,658.95 624.035,659 624.005,659.045C623.99,659.068 623.973,659.089 623.954,659.109C623.939,659.126 623.889,659.138 623.903,659.155L623.894,659.164C623.871,659.179 623.849,659.195 623.825,659.208C623.777,659.234 623.725,659.252 623.671,659.26C623.644,659.265 623.617,659.265 623.589,659.267L618.594,659.264C612.882,659.256 607.17,659.244 601.458,659.226C594.881,659.205 588.305,659.174 581.729,659.143L581.669,659.138C581.649,659.133 581.629,659.129 581.61,659.123C581.549,659.102 581.505,659.067 581.458,659.024L581.458,659.024L581.421,658.977L581.391,658.924C581.371,658.867 581.371,658.867 581.36,658.808L581.096,656.292C580.377,649.365 579.655,642.438 578.938,635.51C578.381,630.126 577.828,624.741 577.274,619.357C577.273,619.335 577.273,619.336 577.276,619.315ZM579.382,635.192L581.733,655.505L581.746,655.492L582.065,658.393L582.066,658.391C588.522,658.361 594.978,658.33 601.433,658.308C606.884,658.29 612.334,658.278 617.784,658.27L617.782,658.267C619.54,658.267 621.298,658.266 623.056,658.267L623.057,658.268L622.716,652.949L622.343,646.99C622.074,642.616 621.803,638.243 621.537,633.869C621.254,629.227 620.976,624.584 620.695,619.942L620.708,619.93L620.532,617.209L620.534,617.207L609.525,617.794C598.938,618.349 588.351,618.905 577.763,619.454L577.548,619.465C578.16,624.707 578.771,629.95 579.382,635.192Z" style="fill:none;"/>
            </g>
            <g transform="matrix(1.4166,0,0,1.52044,-291.205,95.0766)">
                <path d="M581.829,620.828L581.729,658.767L619.733,658.767L623.589,616.819L581.829,620.828Z" style="fill:rgb(225,169,139);"/>
            </g>
            <g transform="matrix(1.4166,0,0,1.4166,-291.205,163.483)">
                <path d="M623.671,616.459C623.721,616.474 623.736,616.475 623.781,616.502C623.866,616.553 623.929,616.638 623.952,616.735C623.964,616.787 623.961,616.801 623.961,616.853L623.778,618.839L623.788,618.84L622.574,632.694C622.186,637.067 621.8,641.441 621.41,645.814C621.072,649.608 620.725,653.402 620.379,657.195L620.23,658.813C620.225,658.84 620.222,658.867 620.216,658.894C620.195,658.973 620.154,659.047 620.098,659.107C620.08,659.127 620.058,659.144 620.038,659.162L620.038,659.162L619.969,659.207L619.894,659.239C619.814,659.259 619.814,659.259 619.733,659.266L617.062,659.264C611.583,659.256 606.103,659.244 600.623,659.226C594.325,659.205 588.027,659.175 581.729,659.143L581.671,659.138C581.62,659.126 581.606,659.125 581.559,659.101C581.472,659.055 581.405,658.975 581.375,658.881C581.36,658.832 581.362,658.818 581.358,658.766L581.376,656.452C581.434,649.77 581.49,643.089 581.55,636.407C581.597,631.214 581.648,626.021 581.699,620.828C581.699,620.828 581.7,620.813 581.701,620.806C581.714,620.753 581.744,620.721 581.796,620.702C581.915,620.681 582.037,620.676 582.158,620.663C595.956,619.251 609.754,617.847 623.554,616.452L623.613,616.451C623.633,616.454 623.652,616.456 623.671,616.459ZM581.961,621.145C581.983,626.133 582.007,631.12 582.027,636.108C582.053,642.624 582.074,649.14 582.097,655.656L582.111,655.643L582.104,658.394L582.107,658.391C594.496,658.331 606.894,658.268 619.278,658.268C618.819,657.765 619.401,656.913 619.463,656.235C619.807,652.526 620.151,648.818 620.502,645.11C621.336,636.315 622.182,627.521 623.029,618.727L623.175,617.227L613.077,618.145C602.779,619.074 592.481,620.004 582.183,620.927L581.96,620.947C581.96,621.013 581.96,621.079 581.961,621.145Z" style="fill:none;"/>
            </g>
            <g transform="matrix(1.35473,0,0,1.4166,-468.792,163.483)">
                <path d="M635.41,498.339C635.41,498.339 643.916,520.232 638.8,531.553C636.171,537.368 654.539,553.872 674.945,553.175C694.265,552.514 716.623,520.179 716.623,520.179C710.061,510.047 707.106,476.869 710.698,449.8C714.652,419.998 635.41,498.339 635.41,498.339Z" style="fill:rgb(225,169,139);"/>
            </g>
            <g transform="matrix(1.4166,0,0,1.4166,-508.103,163.483)">
                <path d="M635.28,498.344C635.281,498.312 635.288,498.29 635.304,498.263C635.378,498.177 635.464,498.102 635.545,498.022C635.765,497.804 635.985,497.588 636.205,497.371C640.893,492.764 645.652,488.227 650.466,483.752C655.65,478.933 660.9,474.184 666.244,469.543C670.523,465.828 674.861,462.18 679.3,458.658C681.325,457.051 683.372,455.472 685.45,453.933C687.365,452.515 689.307,451.13 691.286,449.802C692.443,449.026 693.612,448.27 694.8,447.543C695.763,446.954 696.738,446.384 697.728,445.843C698.46,445.443 699.201,445.06 699.952,444.699C700.533,444.421 701.12,444.157 701.715,443.912C702.162,443.729 702.613,443.557 703.07,443.401C703.445,443.272 703.823,443.154 704.205,443.051C704.472,442.979 704.742,442.913 705.013,442.857C705.226,442.812 705.441,442.773 705.656,442.741C705.821,442.717 705.986,442.696 706.152,442.68C707.213,442.578 708.346,442.664 709.28,443.222C709.422,443.307 709.557,443.401 709.685,443.505C709.865,443.652 710.03,443.817 710.178,443.998C710.422,444.296 710.617,444.634 710.767,444.989C711.002,445.548 711.13,446.148 711.195,446.749C711.301,447.723 711.244,448.707 711.131,449.678C711.07,450.164 711.008,450.649 710.948,451.135C710.816,452.243 710.692,453.351 710.581,454.461C710.219,458.073 709.964,461.696 709.779,465.322C709.538,470.034 709.419,474.752 709.397,479.47C709.374,484.285 709.452,489.101 709.633,493.913C709.821,498.904 710.12,503.892 710.57,508.867C710.866,512.143 711.228,515.414 711.708,518.668C712.066,521.097 712.478,523.52 713.012,525.917C713.382,527.578 713.807,529.232 714.354,530.845C714.538,531.387 714.737,531.924 714.958,532.452C715.259,533.174 715.603,533.877 716.022,534.538L716.059,534.607C716.067,534.631 716.077,534.655 716.083,534.68C716.102,534.755 716.102,534.834 716.084,534.909C716.078,534.934 716.068,534.958 716.06,534.983L716.06,534.983L716.024,535.051L715.978,535.113L715.922,535.166C715.74,535.316 715.556,535.463 715.372,535.609C713.979,536.708 712.552,537.761 711.102,538.782C709.503,539.908 707.875,540.993 706.22,542.036C704.1,543.373 701.935,544.639 699.724,545.82C697.702,546.901 695.643,547.911 693.542,548.83C690.216,550.286 686.781,551.522 683.249,552.38C680.454,553.058 677.595,553.498 674.717,553.57C668.441,553.728 662.184,552.289 656.453,549.774C654.556,548.942 652.711,547.99 650.934,546.925C649.35,545.975 647.818,544.934 646.36,543.797C645.236,542.922 644.155,541.989 643.14,540.989C642.322,540.184 641.545,539.336 640.838,538.432C640.579,538.101 640.329,537.763 640.092,537.416C639.896,537.128 639.708,536.834 639.531,536.534C639.386,536.288 639.249,536.038 639.122,535.783C639.019,535.578 638.922,535.369 638.833,535.157C638.584,534.564 638.39,533.941 638.32,533.3C638.272,532.865 638.283,532.422 638.385,531.995C638.423,531.834 638.476,531.678 638.538,531.524C638.606,531.368 638.676,531.212 638.743,531.055C638.911,530.649 639.063,530.238 639.198,529.82C639.657,528.391 639.924,526.904 640.071,525.412C640.298,523.117 640.246,520.799 640.046,518.506C639.877,516.561 639.597,514.626 639.242,512.706C638.854,510.609 638.376,508.529 637.829,506.468C637.394,504.824 636.914,503.192 636.391,501.573C636.046,500.504 635.687,499.437 635.288,498.386C635.282,498.365 635.282,498.365 635.28,498.344ZM706.761,443.432C705.535,443.462 704.33,443.78 703.177,444.179C702.41,444.444 701.659,444.752 700.919,445.084C700.076,445.463 699.247,445.876 698.43,446.309C696.247,447.466 694.14,448.765 692.076,450.122C689.51,451.809 687.009,453.593 684.546,455.427C680.74,458.263 677.024,461.219 673.361,464.236C668.983,467.844 664.682,471.544 660.431,475.3C655.958,479.253 651.543,483.272 647.171,487.337C643.318,490.919 639.496,494.536 635.729,498.209L635.562,498.372C635.674,498.666 635.783,498.961 635.891,499.257C635.989,499.527 636.085,499.798 636.181,500.07C637.314,503.332 638.284,506.654 639.052,510.021C639.738,513.031 640.268,516.084 640.515,519.163C640.674,521.145 640.716,523.143 640.558,525.126C640.431,526.714 640.175,528.297 639.711,529.823C639.578,530.257 639.429,530.686 639.261,531.108C639.179,531.313 639.089,531.515 639.002,531.718C638.976,531.782 638.977,531.781 638.953,531.845C638.909,531.978 638.873,532.112 638.849,532.249C638.728,532.932 638.856,533.639 639.067,534.291C639.266,534.906 639.549,535.493 639.87,536.054C640.303,536.811 640.811,537.524 641.357,538.204C642.066,539.085 642.842,539.912 643.657,540.696C644.584,541.587 645.564,542.423 646.579,543.212C647.961,544.285 649.41,545.27 650.908,546.173C652.589,547.186 654.332,548.096 656.124,548.897C658.61,550.009 661.189,550.908 663.83,551.572C667.375,552.461 671.04,552.904 674.695,552.794C677.951,552.695 681.177,552.114 684.313,551.251C687.5,550.374 690.603,549.201 693.616,547.846C697.811,545.96 701.843,543.717 705.726,541.254C707.446,540.163 709.138,539.025 710.798,537.843C712.205,536.841 713.59,535.808 714.939,534.73L714.988,534.69C714.93,534.592 714.874,534.492 714.818,534.392C714.739,534.248 714.74,534.248 714.663,534.103C713.908,532.634 713.367,531.064 712.906,529.481C712.329,527.496 711.884,525.473 711.499,523.443C710.996,520.793 710.601,518.123 710.268,515.447C709.889,512.401 709.59,509.346 709.348,506.286C709.023,502.18 708.798,498.066 708.651,493.949C708.518,490.198 708.449,486.445 708.444,482.692C708.438,478.431 708.51,474.17 708.671,469.912C708.824,465.895 709.056,461.88 709.402,457.876C709.561,456.031 709.745,454.188 709.96,452.349C710.036,451.694 710.117,451.04 710.202,450.386C710.244,450.06 710.29,449.735 710.329,449.409C710.347,449.247 710.364,449.085 710.379,448.923C710.403,448.623 710.423,448.322 710.429,448.02C710.433,447.792 710.431,447.564 710.421,447.337C710.414,447.169 710.402,447.002 710.385,446.835C710.372,446.718 710.358,446.601 710.34,446.485C710.213,445.657 709.923,444.806 709.293,444.224C709.181,444.122 709.061,444.029 708.934,443.947C708.736,443.82 708.522,443.719 708.3,443.643C707.902,443.507 707.484,443.452 707.065,443.434C706.964,443.432 706.863,443.431 706.761,443.432Z" style="fill:none;"/>
            </g>
            <g transform="matrix(1.09807,0,0,1.09807,-757.738,350.643)">
                <path d="M972.472,628.679L977.365,675L980.703,675L976.966,630.056L972.472,628.679" style="fill:rgb(220,154,121);"/>
            </g>
            <g transform="matrix(1.09154,0.119621,-0.119621,1.09154,-453.329,238.082)">
                <path d="M972.472,628.679L977.365,675L980.703,675L976.966,630.056L972.472,628.679" style="fill:rgb(220,154,121);"/>
            </g>
            <g transform="matrix(1.4166,0,0,1.52044,-506.654,115.329)">
                <path d="M710.623,506.955C714.729,505.284 768.015,525.847 771.215,533.465C774.716,541.8 776.602,586.047 775.678,603.499C775.463,607.548 762.652,609.014 751.245,609.172C741.501,609.307 732.783,608.487 733.818,607.508L733.998,645.447L622.566,645.447L619.854,607.508C619.854,607.508 610.34,608.821 600.142,609.176C588.662,609.576 576.315,608.763 575.688,603.499C573.485,584.99 574.06,553.322 574.06,553.322C575.655,548.102 574.249,524.572 602.652,517.343C636.675,508.683 639.444,507.566 639.444,507.566C639.444,507.566 643.863,528.141 670.548,528.524C696.984,528.903 705.128,524.028 710.623,506.955Z" style="fill:rgb(49,25,61);"/>
            </g>
            <g transform="matrix(1.4166,0,0,1.4166,-506.654,182.352)">
                <path d="M711.42,506.729C712.006,506.746 712.588,506.832 713.165,506.937C713.854,507.061 714.538,507.216 715.219,507.384C717.131,507.853 719.019,508.419 720.895,509.012C723.385,509.8 725.856,510.649 728.314,511.532C731.114,512.538 733.897,513.589 736.665,514.678C740.899,516.343 745.1,518.093 749.254,519.946C752.707,521.486 756.131,523.094 759.487,524.835C760.856,525.545 762.214,526.278 763.551,527.048C764.634,527.672 765.704,528.319 766.747,529.01C767.551,529.543 768.34,530.101 769.089,530.709C769.67,531.181 770.234,531.684 770.719,532.257C770.947,532.525 771.158,532.812 771.324,533.123C771.457,533.374 771.556,533.644 771.651,533.912C771.787,534.295 771.906,534.686 772.014,535.078C772.325,536.203 772.561,537.347 772.771,538.494C773.131,540.453 773.409,542.428 773.656,544.404C773.956,546.805 774.204,549.212 774.424,551.622C774.873,556.537 775.207,561.462 775.475,566.39C775.767,571.758 775.979,577.13 776.11,582.504C776.215,586.761 776.271,591.019 776.241,595.277C776.229,596.99 776.203,598.704 776.153,600.416C776.131,601.17 776.104,601.924 776.071,602.677C776.058,602.974 776.046,603.273 776.027,603.569C776.023,603.621 776.017,603.672 776.01,603.724C775.989,603.86 775.959,603.994 775.915,604.125C775.677,604.837 775.116,605.391 774.515,605.813C774.41,605.887 774.302,605.957 774.193,606.025C774.04,606.12 773.883,606.209 773.724,606.294C772.786,606.794 771.772,607.146 770.754,607.441C769.353,607.846 767.919,608.138 766.481,608.379C765.054,608.617 763.618,608.801 762.179,608.951C760.385,609.139 758.585,609.273 756.784,609.371C754.781,609.479 752.776,609.542 750.77,609.566C748.862,609.589 746.954,609.577 745.047,609.526C742.792,609.466 740.536,609.361 738.29,609.144C737.513,609.069 736.736,608.981 735.965,608.859C735.393,608.769 734.819,608.664 734.265,608.49L734.234,608.48L734.245,610.328L734.447,645.445C734.442,645.507 734.445,645.524 734.426,645.584C734.382,645.72 734.273,645.83 734.138,645.874C734.077,645.894 734.061,645.892 733.998,645.897L724.984,645.906C710.393,645.916 695.801,645.927 681.21,645.936C661.662,645.947 642.114,645.947 622.566,645.944L622.484,645.937C622.413,645.919 622.393,645.918 622.328,645.883C622.231,645.83 622.153,645.744 622.11,645.642C622.08,645.574 622.082,645.555 622.071,645.482L621.791,641.557L620.1,617.734L620.108,617.734L619.415,608.046C618.964,608.103 618.513,608.159 618.062,608.214C614.747,608.609 611.425,608.937 608.096,609.19C605.151,609.414 602.201,609.581 599.248,609.664C596.71,609.736 594.169,609.747 591.631,609.654C589.442,609.574 587.251,609.42 585.081,609.111C584.385,609.011 583.69,608.895 583,608.756C582.485,608.653 581.973,608.536 581.465,608.403C581.049,608.293 580.636,608.172 580.227,608.037C579.899,607.928 579.574,607.809 579.253,607.678C579.001,607.575 578.752,607.465 578.507,607.346C578.32,607.254 578.136,607.158 577.955,607.055C577.023,606.526 576.146,605.813 575.649,604.844C575.57,604.692 575.502,604.534 575.445,604.372C575.358,604.127 575.299,603.874 575.262,603.616C575.203,603.152 575.155,602.688 575.104,602.223C574.69,598.316 574.416,594.396 574.211,590.473C574.001,586.474 573.863,582.471 573.768,578.467C573.656,573.752 573.605,569.036 573.599,564.319C573.595,560.651 573.613,556.983 573.677,553.316C573.678,553.299 573.68,553.282 573.681,553.265C573.704,553.164 573.735,553.066 573.762,552.967C573.797,552.832 573.797,552.832 573.829,552.695C573.958,552.115 574.051,551.528 574.143,550.941C574.285,549.997 574.419,549.052 574.564,548.108C574.777,546.745 575.017,545.387 575.315,544.041C575.727,542.183 576.244,540.347 576.898,538.559C577.848,535.964 579.09,533.473 580.647,531.187C582.256,528.825 584.196,526.695 586.39,524.863C588.252,523.308 590.29,521.97 592.434,520.839C594.554,519.721 596.776,518.803 599.052,518.054C600.104,517.707 601.168,517.4 602.24,517.118C604.357,516.575 606.477,516.042 608.595,515.504C614.983,513.875 621.37,512.238 627.743,510.551C630.035,509.945 632.326,509.332 634.612,508.701C635.486,508.46 636.359,508.215 637.231,507.964C637.91,507.769 638.591,507.575 639.261,507.349C639.306,507.333 639.306,507.333 639.351,507.317C639.39,507.306 639.399,507.301 639.44,507.3C639.516,507.299 639.59,507.331 639.641,507.388C639.668,507.418 639.671,507.428 639.689,507.464C639.707,507.52 639.719,507.577 639.733,507.634C639.757,507.732 639.762,507.749 639.79,507.854C640.021,508.697 640.312,509.523 640.644,510.332C640.999,511.196 641.4,512.041 641.843,512.864C643.196,515.376 644.935,517.679 646.985,519.664C648.496,521.127 650.175,522.413 651.974,523.501C654.653,525.121 657.586,526.291 660.616,527.062C662.979,527.663 665.399,528.026 667.83,528.199C668.53,528.249 669.231,528.283 669.932,528.302C670.747,528.325 671.563,528.331 672.378,528.336C674.621,528.351 676.864,528.326 679.105,528.234C680.597,528.173 682.088,528.082 683.575,527.949C684.558,527.861 685.539,527.754 686.517,527.623C687.221,527.529 687.924,527.422 688.625,527.3C692.301,526.661 695.971,525.608 699.184,523.665C699.717,523.343 700.235,522.998 700.736,522.629C701.518,522.054 702.257,521.422 702.947,520.739C703.349,520.342 703.734,519.928 704.102,519.5C706.242,517.011 707.783,514.067 709.011,511.039C709.253,510.441 709.484,509.837 709.705,509.231C709.985,508.464 710.246,507.691 710.499,506.915C710.507,506.897 710.507,506.897 710.517,506.881C710.534,506.859 710.551,506.846 710.576,506.834C710.615,506.819 710.654,506.806 710.694,506.794C710.842,506.756 710.991,506.741 711.143,506.732C711.236,506.728 711.327,506.728 711.42,506.729ZM620.02,607.061C620.082,607.09 620.1,607.094 620.154,607.138C620.235,607.204 620.293,607.296 620.317,607.397C620.323,607.422 620.325,607.448 620.329,607.474C621.232,619.966 622.133,632.458 623.028,644.95C626.865,640.829 636.901,649.7 639.92,644.947L660.215,644.95C684.659,644.959 709.102,644.973 733.546,644.997L733.547,644.998L733.382,610.262L733.417,610.264L733.409,607.964C733.393,607.94 733.382,607.914 733.37,607.888C733.343,607.819 733.325,607.749 733.324,607.674C733.321,607.484 733.423,607.288 733.576,607.176C733.614,607.149 733.655,607.128 733.7,607.115C733.906,607.053 734.132,607.167 734.205,607.37C734.232,607.446 734.229,607.522 734.229,607.602C734.285,607.628 734.342,607.651 734.4,607.672C734.871,607.839 735.368,607.933 735.858,608.017C736.584,608.142 737.316,608.231 738.048,608.308C739.115,608.42 740.186,608.502 741.257,608.567C742.378,608.636 743.499,608.686 744.621,608.722C746.504,608.783 748.387,608.806 750.27,608.794C752.262,608.782 754.255,608.731 756.245,608.636C758.042,608.55 759.838,608.428 761.629,608.255C763.069,608.116 764.506,607.944 765.935,607.721C767.374,607.495 768.808,607.221 770.214,606.839C770.803,606.678 771.389,606.498 771.962,606.286C772.409,606.121 772.849,605.937 773.273,605.72C773.422,605.644 773.57,605.564 773.714,605.478C773.815,605.418 773.915,605.356 774.012,605.291C774.104,605.23 774.193,605.166 774.281,605.1C774.706,604.776 775.113,604.358 775.265,603.831C775.295,603.728 775.313,603.623 775.323,603.516C775.351,603.082 775.367,602.647 775.387,602.213C775.542,598.568 775.582,594.919 775.575,591.271C775.567,587.033 775.491,582.795 775.369,578.56C775.232,573.841 775.037,569.124 774.775,564.411C774.54,560.16 774.253,555.912 773.879,551.671C773.666,549.267 773.426,546.864 773.134,544.468C772.895,542.501 772.624,540.536 772.272,538.585C772.068,537.452 771.839,536.321 771.535,535.21C771.431,534.829 771.317,534.449 771.186,534.076C771.099,533.831 771.012,533.583 770.89,533.353C770.742,533.072 770.551,532.814 770.347,532.571C769.883,532.021 769.341,531.537 768.785,531.082C768.05,530.481 767.275,529.929 766.485,529.403C765.454,528.714 764.394,528.067 763.321,527.445C762.168,526.775 760.999,526.134 759.82,525.51C756.514,523.761 753.137,522.148 749.731,520.604C745.596,518.728 741.412,516.958 737.196,515.272C733.817,513.921 730.416,512.624 726.989,511.4C724.284,510.433 721.563,509.506 718.813,508.674C717.792,508.365 716.768,508.07 715.736,507.801C714.919,507.588 714.097,507.389 713.267,507.23C712.753,507.131 712.235,507.045 711.712,507.006C711.527,506.993 711.341,506.985 711.155,506.993C711.014,506.999 710.874,507.014 710.738,507.053L710.727,507.056C710.606,507.431 710.483,507.805 710.357,508.178C710.27,508.434 710.181,508.69 710.092,508.945C709.872,509.562 709.646,510.177 709.406,510.787C708.346,513.485 707.053,516.119 705.322,518.456C704.358,519.758 703.257,520.96 702.024,522.013C701.429,522.521 700.805,522.994 700.156,523.43C699.759,523.697 699.354,523.95 698.94,524.19C695.734,526.047 692.111,527.066 688.481,527.693C687.772,527.816 687.06,527.923 686.347,528.018C685.437,528.139 684.524,528.241 683.609,528.325C682.116,528.464 680.62,528.559 679.122,528.625C677.465,528.697 675.806,528.733 674.148,528.744C673.356,528.749 672.564,528.749 671.772,528.744C671.052,528.739 670.332,528.733 669.612,528.711C668.91,528.689 668.207,528.653 667.506,528.6C664.572,528.382 661.653,527.885 658.836,527.03C656.033,526.179 653.336,524.968 650.877,523.372C649.218,522.296 647.672,521.049 646.274,519.653C644.341,517.723 642.692,515.51 641.39,513.109C640.936,512.271 640.524,511.411 640.16,510.531C639.817,509.703 639.517,508.857 639.277,507.992L639.256,507.912C639.024,507.989 638.791,508.06 638.557,508.132C638.166,508.25 637.773,508.366 637.38,508.481C635.531,509.017 633.676,509.531 631.819,510.038C629.432,510.689 627.041,511.328 624.65,511.962C619.355,513.364 614.054,514.741 608.75,516.108C606.634,516.653 604.517,517.19 602.402,517.738C602.185,517.796 601.968,517.854 601.751,517.913C600.812,518.176 599.879,518.458 598.955,518.771C596.822,519.496 594.738,520.372 592.746,521.429C591.072,522.317 589.464,523.334 587.958,524.485C586.368,525.7 584.893,527.066 583.569,528.566C582.104,530.227 580.829,532.051 579.759,533.989C578.762,535.796 577.944,537.699 577.286,539.655C576.589,541.727 576.073,543.855 575.678,546.004C575.37,547.68 575.143,549.369 574.894,551.054C574.854,551.318 574.813,551.581 574.77,551.843C574.682,552.36 574.589,552.877 574.442,553.38C574.456,553.382 574.441,553.409 574.441,553.423C574.44,553.512 574.438,553.6 574.437,553.688C574.428,554.283 574.422,554.879 574.416,555.475C574.372,560.175 574.375,564.876 574.427,569.576C574.471,573.57 574.55,577.563 574.678,581.555C574.795,585.199 574.951,588.842 575.174,592.481C575.399,596.143 575.691,599.802 576.122,603.446C576.131,603.513 576.141,603.58 576.153,603.648C576.189,603.827 576.238,604.002 576.305,604.171C576.614,604.952 577.246,605.552 577.934,606.007C578.044,606.081 578.157,606.151 578.272,606.218C578.41,606.299 578.551,606.376 578.694,606.45C578.894,606.552 579.096,606.648 579.302,606.738C579.543,606.843 579.788,606.94 580.035,607.03C580.353,607.147 580.675,607.252 581,607.349C581.407,607.471 581.818,607.579 582.232,607.676C582.806,607.812 583.385,607.928 583.967,608.029C584.664,608.151 585.365,608.251 586.067,608.336C588.415,608.621 590.783,608.743 593.147,608.788C595.847,608.84 598.549,608.787 601.247,608.673C604.668,608.527 608.087,608.283 611.497,607.963C614.225,607.707 616.951,607.414 619.667,607.053C619.767,607.039 619.767,607.037 619.867,607.032L619.867,607.032L619.945,607.04C619.97,607.047 619.995,607.054 620.02,607.061Z" style="fill:none;"/>
            </g>
            <g transform="matrix(1.4166,0,0,1.4166,-508.103,160.349)">
                <path d="M576.615,615.956C576.615,615.956 576.455,620.76 577.403,620.99C581.955,622.098 593.365,631.174 622.033,621.41C622.381,621.292 622.238,616.819 622.238,616.819C622.238,616.819 593.699,625.926 576.615,615.956Z" style="fill:rgb(33,17,41);"/>
            </g>
            <g transform="matrix(1.4166,0,0,1.4166,-288.131,160.349)">
                <path d="M577.838,616.819C577.838,616.819 577.538,621.257 578.487,621.488C583.039,622.595 591.42,628.481 620.868,621.41C622.307,621.065 621.419,616.819 621.419,616.819C621.419,616.819 594.922,626.789 577.838,616.819Z" style="fill:rgb(33,17,41);"/>
            </g>
            <g transform="matrix(1.4166,0,0,1.4166,-508.103,163.483)">
                <path d="M682.804,327.773C677.295,318.407 668.218,316.67 653.992,312.049C649.406,310.56 644.341,313.097 648.364,314.724C672.034,324.292 648.753,319.544 648.753,319.544C648.753,319.544 611.3,313.614 584.626,339.189C557.952,364.763 554.273,415.081 563.265,397.474C570.842,382.637 564.141,410.016 568.383,425.651C571.453,436.963 574.161,432.12 572.714,421.29C572.249,417.804 575.587,420.115 577.136,430.731C578.307,438.755 581.065,449.183 584.919,458.321C589.875,470.07 596.139,468.302 603.676,467.928C616.14,467.308 607.688,470.715 607.688,470.715L602.228,381.79L680.094,392.549L687.192,476.27C685.216,476.52 685.967,485.797 689.596,479.281C695.396,468.867 701.527,459.913 713.729,453.973C716.598,452.577 725.023,443.401 730.872,430.482C734.23,423.065 735.431,413.353 737.578,405.874C740.174,396.832 741.3,388.741 739.543,384.01C739.344,383.475 739.148,382.934 738.954,382.39C733.256,366.367 729.707,347.01 713.729,341.081C703.043,337.115 716.169,342.588 722.196,339.249C726.04,337.119 719.766,335.276 713.868,332.438C705.09,328.214 689.157,326.208 682.804,327.773Z" style="fill:rgb(19,4,27);"/>
            </g>
            <g transform="matrix(1.4166,0,0,1.4166,-508.103,163.483)">
                <path d="M651.225,311.099C651.708,311.108 652.19,311.146 652.668,311.221C653.091,311.288 653.508,311.384 653.919,311.503C654.217,311.594 654.512,311.692 654.809,311.788C655.242,311.928 655.676,312.066 656.11,312.205C658.135,312.847 660.164,313.477 662.188,314.12C662.751,314.3 663.314,314.481 663.876,314.663C664.596,314.899 665.315,315.138 666.031,315.384C668.01,316.066 669.974,316.801 671.876,317.678C673.955,318.636 675.961,319.773 677.762,321.194C678.308,321.624 678.834,322.08 679.337,322.56C680.777,323.933 682.012,325.505 683.046,327.204C683.198,327.172 683.35,327.142 683.502,327.114C685.194,326.815 686.92,326.737 688.636,326.743C690.771,326.751 692.905,326.898 695.026,327.129C697.913,327.444 700.784,327.92 703.617,328.556C706.173,329.131 708.709,329.835 711.164,330.753C711.86,331.012 712.549,331.29 713.227,331.591C713.793,331.842 714.349,332.115 714.91,332.377C715.184,332.504 715.459,332.63 715.734,332.755C716.872,333.268 718.016,333.766 719.153,334.281C719.392,334.39 719.631,334.5 719.87,334.611C720.603,334.957 721.334,335.312 722.029,335.732C722.169,335.817 722.308,335.904 722.445,335.996C722.547,336.065 722.648,336.136 722.747,336.21C722.84,336.28 722.931,336.352 723.02,336.428C723.427,336.776 723.817,337.227 723.871,337.782C723.878,337.86 723.879,337.938 723.873,338.016C723.864,338.121 723.843,338.225 723.81,338.325C723.76,338.477 723.684,338.62 723.591,338.751C723.44,338.963 723.247,339.143 723.04,339.3C722.711,339.55 722.345,339.75 721.971,339.923C721.046,340.351 720.043,340.595 719.037,340.733C717.537,340.94 716.015,340.916 714.509,340.794L714.343,340.78C714.51,340.846 714.677,340.913 714.843,340.982C715.027,341.059 715.211,341.138 715.394,341.218C715.873,341.433 716.347,341.659 716.813,341.902C717.724,342.376 718.605,342.907 719.45,343.489C720.228,344.025 720.975,344.605 721.69,345.222C722.163,345.632 722.622,346.058 723.066,346.498C726.11,349.518 728.425,353.191 730.304,357.023C730.654,357.736 730.99,358.457 731.313,359.183C731.695,360.04 732.059,360.905 732.41,361.774C732.918,363.033 733.397,364.303 733.857,365.579C734.461,367.255 735.031,368.942 735.589,370.634C736.274,372.713 736.94,374.798 737.618,376.879C737.871,377.651 738.125,378.422 738.382,379.192C738.722,380.205 739.067,381.216 739.425,382.222C739.569,382.627 739.715,383.032 739.863,383.435C739.941,383.647 740.021,383.858 740.096,384.071C740.136,384.192 740.176,384.312 740.214,384.433C740.619,385.777 740.803,387.174 740.866,388.573C740.932,390.057 740.866,391.546 740.725,393.023C740.572,394.639 740.329,396.246 740.03,397.841C739.701,399.597 739.303,401.339 738.86,403.068C738.68,403.768 738.493,404.467 738.299,405.163C738.155,405.68 738.005,406.196 737.862,406.714C737.764,407.072 737.669,407.431 737.575,407.791C737.222,409.168 736.899,410.553 736.585,411.941C736.23,413.527 735.884,415.115 735.531,416.702C734.988,419.12 734.425,421.534 733.743,423.917C733.299,425.47 732.805,427.009 732.229,428.518C732.019,429.068 731.798,429.615 731.563,430.156C731.31,430.741 731.041,431.32 730.768,431.896C730.258,432.975 729.723,434.042 729.164,435.097C727.255,438.705 725.081,442.179 722.645,445.456C721.784,446.614 720.889,447.748 719.954,448.848C719.173,449.765 718.366,450.661 717.517,451.517C716.925,452.115 716.314,452.695 715.667,453.234C715.154,453.662 714.618,454.072 714.026,454.384C713.813,454.49 713.599,454.594 713.386,454.7C712.567,455.115 711.758,455.546 710.963,456.003C709.456,456.871 707.998,457.822 706.601,458.858C704.058,460.743 701.731,462.908 699.636,465.28C697.169,468.074 695.021,471.138 693.071,474.311C692.404,475.395 691.756,476.49 691.123,477.594C690.726,478.287 690.338,478.984 689.946,479.679C689.861,479.826 689.861,479.826 689.774,479.972C689.487,480.44 689.18,480.901 688.804,481.303C688.753,481.357 688.702,481.409 688.649,481.46C688.313,481.783 687.89,482.074 687.408,482.096C687.338,482.099 687.268,482.096 687.198,482.087C687.116,482.077 687.035,482.057 686.956,482.03C686.855,481.995 686.759,481.946 686.67,481.887C686.542,481.801 686.429,481.693 686.332,481.573C686.186,481.393 686.074,481.188 685.985,480.975C685.792,480.51 685.697,480.005 685.653,479.506C685.619,479.123 685.616,478.738 685.645,478.355C685.67,478.015 685.719,477.676 685.804,477.346C685.876,477.068 685.973,476.794 686.114,476.543C686.213,476.369 686.334,476.205 686.486,476.072C686.541,476.024 686.6,475.982 686.662,475.941L679.63,392.989L602.765,382.369L607.986,467.395C608.138,467.405 608.29,467.416 608.442,467.429C608.584,467.443 608.725,467.457 608.866,467.474C609.235,467.522 609.605,467.581 609.961,467.694C610.148,467.754 610.332,467.829 610.498,467.935C610.608,468.006 610.709,468.092 610.791,468.194C610.927,468.365 611.004,468.585 610.987,468.804C610.981,468.878 610.968,468.95 610.946,469.02C610.907,469.15 610.841,469.27 610.763,469.38C610.598,469.61 610.379,469.797 610.154,469.964C609.841,470.196 609.504,470.393 609.162,470.575C608.944,470.691 608.723,470.8 608.5,470.904C608.41,470.946 608.322,470.986 608.231,471.027C608.153,471.062 608.055,471.104 607.974,471.138C607.891,471.173 607.821,471.207 607.726,471.214C607.62,471.222 607.514,471.196 607.424,471.139C607.379,471.112 607.338,471.076 607.305,471.036C607.213,470.926 607.219,470.881 607.189,470.746L607.043,468.359C605.812,468.337 604.58,468.378 603.351,468.445C602.323,468.502 601.295,468.581 600.267,468.647C600.044,468.661 599.821,468.674 599.597,468.686C597.607,468.785 595.583,468.799 593.643,468.282C592.962,468.1 592.297,467.854 591.665,467.541C591.311,467.366 590.966,467.169 590.634,466.954C588.589,465.628 587.083,463.63 585.911,461.525C585.696,461.139 585.492,460.747 585.296,460.352C585.042,459.838 584.803,459.318 584.577,458.792C584.289,458.126 584.015,457.453 583.745,456.78C583.394,455.901 583.054,455.018 582.726,454.131C581.631,451.173 580.656,448.171 579.791,445.138C578.93,442.117 578.176,439.065 577.552,435.986C577.306,434.776 577.081,433.562 576.881,432.344C576.756,431.589 576.649,430.832 576.53,430.076C576.48,429.767 576.428,429.459 576.374,429.151C576.147,427.89 575.879,426.637 575.536,425.403C575.292,424.526 575.012,423.657 574.668,422.814C574.443,422.26 574.191,421.712 573.88,421.2C573.779,421.033 573.671,420.87 573.552,420.716C573.454,420.589 573.347,420.468 573.223,420.364L573.2,420.346C573.178,420.445 573.172,420.548 573.171,420.65C573.168,420.817 573.182,420.984 573.201,421.15C573.236,421.427 573.272,421.705 573.306,421.982C573.51,423.732 573.641,425.495 573.611,427.257C573.6,427.886 573.568,428.515 573.5,429.14C573.442,429.686 573.358,430.232 573.217,430.763C573.134,431.076 573.031,431.387 572.885,431.678C572.788,431.871 572.671,432.057 572.523,432.215C572.42,432.325 572.302,432.421 572.168,432.492C572.072,432.543 571.969,432.58 571.863,432.601C571.786,432.617 571.707,432.623 571.628,432.622C571.135,432.61 570.726,432.271 570.422,431.911C570.374,431.855 570.327,431.797 570.283,431.738C570.211,431.643 570.143,431.545 570.078,431.446C569.981,431.298 569.89,431.146 569.805,430.991C569.708,430.817 569.617,430.64 569.531,430.461C569.205,429.787 568.936,429.086 568.692,428.38C568.484,427.778 568.295,427.17 568.118,426.559C567.953,425.988 567.798,425.415 567.661,424.838C567.316,423.388 567.067,421.916 566.88,420.438C566.658,418.681 566.523,416.914 566.442,415.145C566.313,412.345 566.317,409.54 566.379,406.738C566.428,404.532 566.509,402.327 566.575,400.122C566.589,399.605 566.602,399.089 566.612,398.572C566.63,397.504 566.645,396.431 566.574,395.364C566.55,395.011 566.518,394.656 566.451,394.308C566.414,394.114 566.369,393.913 566.275,393.738L566.271,393.732C566.2,393.774 566.136,393.83 566.075,393.887C566.001,393.957 565.932,394.032 565.866,394.109C565.648,394.363 565.457,394.639 565.274,394.918C564.827,395.602 564.433,396.32 564.052,397.042C563.865,397.397 563.685,397.754 563.498,398.109C563.395,398.301 563.395,398.3 563.29,398.492C563.128,398.781 562.963,399.067 562.788,399.348C562.665,399.545 562.537,399.74 562.404,399.93C562.286,400.098 562.163,400.264 562.033,400.424C561.946,400.532 561.856,400.637 561.762,400.739C561.691,400.817 561.617,400.893 561.54,400.967C561.186,401.305 560.741,401.619 560.233,401.631C560.165,401.633 560.097,401.629 560.03,401.619C559.946,401.606 559.864,401.585 559.784,401.555C559.675,401.513 559.572,401.455 559.478,401.385C559.346,401.286 559.233,401.163 559.138,401.029C558.984,400.814 558.873,400.57 558.785,400.322C558.643,399.918 558.559,399.495 558.498,399.072C558.405,398.419 558.372,397.757 558.364,397.098C558.353,396.275 558.387,395.451 558.444,394.629C558.589,392.537 558.888,390.455 559.261,388.392C559.704,385.946 560.262,383.521 560.903,381.12C561.604,378.5 562.407,375.907 563.302,373.347C564.366,370.304 565.562,367.308 566.891,364.371C568.291,361.279 569.838,358.254 571.547,355.321C574.394,350.436 577.694,345.796 581.53,341.635C583.865,339.101 586.405,336.758 589.105,334.618C591.444,332.765 593.905,331.066 596.464,329.532C598.024,328.597 599.62,327.724 601.246,326.912C610.747,322.167 621.232,319.555 631.796,318.731C635.104,318.473 638.428,318.389 641.745,318.491C642.979,318.529 644.213,318.593 645.444,318.689C646.492,318.77 647.539,318.873 648.58,319.014L648.717,319.033L648.839,319.052C649.159,319.115 649.479,319.177 649.8,319.238C651.559,319.565 653.325,319.866 655.104,320.065C655.696,320.131 656.29,320.186 656.886,320.211C657.11,320.22 657.334,320.225 657.558,320.221C657.795,320.217 658.032,320.204 658.266,320.165C658.303,320.159 658.302,320.159 658.338,320.152L658.371,320.144C658.327,320.098 658.28,320.056 658.232,320.014C658.017,319.831 657.784,319.671 657.546,319.519C657.283,319.351 657.013,319.194 656.74,319.043C656.057,318.663 655.356,318.315 654.65,317.98C653.042,317.216 651.405,316.516 649.761,315.835C649.2,315.603 648.637,315.378 648.077,315.146C647.982,315.105 647.889,315.063 647.795,315.019C647.506,314.875 647.224,314.713 646.98,314.499C646.829,314.367 646.693,314.216 646.59,314.043C646.529,313.94 646.48,313.829 646.447,313.713C646.421,313.622 646.406,313.527 646.402,313.432C646.399,313.362 646.402,313.291 646.411,313.221C646.469,312.782 646.759,312.42 647.099,312.156C647.466,311.869 647.898,311.671 648.337,311.52C649.094,311.26 649.894,311.142 650.692,311.106C650.869,311.1 651.047,311.097 651.225,311.099ZM566.441,392.715C566.518,392.728 566.592,392.748 566.663,392.78C567.074,392.961 567.26,393.414 567.366,393.821C567.385,393.894 567.402,393.968 567.417,394.042C567.439,394.148 567.458,394.255 567.474,394.362C567.492,394.479 567.508,394.596 567.52,394.714C567.541,394.908 567.558,395.102 567.571,395.297C567.586,395.514 567.596,395.732 567.604,395.95C567.616,396.274 567.621,396.599 567.624,396.923C567.626,397.285 567.625,397.647 567.62,398.008C567.615,398.509 567.604,399.009 567.592,399.509C567.575,400.171 567.554,400.834 567.533,401.497C567.502,402.469 567.47,403.442 567.44,404.414C567.417,405.196 567.397,405.978 567.379,406.76C567.313,409.963 567.311,413.169 567.509,416.368C567.661,418.815 567.924,421.264 568.424,423.667C568.624,424.629 568.871,425.58 569.149,426.523C569.376,427.29 569.622,428.053 569.908,428.8C570.146,429.42 570.407,430.036 570.739,430.612C570.795,430.709 570.853,430.804 570.914,430.898C570.95,430.953 570.988,431.007 571.026,431.061C571.061,431.109 571.096,431.156 571.133,431.202C571.166,431.243 571.199,431.283 571.234,431.322C571.319,431.415 571.412,431.508 571.521,431.572C571.562,431.596 571.616,431.627 571.665,431.621C571.683,431.618 571.698,431.61 571.713,431.6C571.792,431.548 571.851,431.467 571.902,431.388C571.988,431.252 572.054,431.103 572.11,430.952C572.216,430.668 572.29,430.372 572.35,430.076C572.419,429.731 572.469,429.382 572.506,429.033C572.604,428.126 572.625,427.211 572.611,426.3C572.593,425.139 572.513,423.979 572.393,422.824C572.36,422.501 572.323,422.177 572.283,421.855C572.255,421.631 572.223,421.407 572.198,421.183C572.19,421.101 572.183,421.019 572.178,420.937C572.173,420.836 572.169,420.735 572.171,420.634C572.172,420.563 572.175,420.493 572.181,420.423C572.212,420.048 572.326,419.633 572.659,419.415C572.699,419.388 572.741,419.364 572.786,419.346C572.859,419.315 572.938,419.292 573.018,419.284C573.132,419.273 573.246,419.284 573.356,419.315C573.478,419.349 573.593,419.406 573.699,419.475C573.974,419.653 574.196,419.907 574.391,420.168C574.705,420.586 574.959,421.048 575.187,421.518C575.696,422.565 576.077,423.674 576.401,424.79C576.801,426.165 577.108,427.566 577.359,428.975C577.503,429.786 577.62,430.6 577.744,431.413C577.805,431.799 577.868,432.185 577.932,432.57C578.642,436.717 579.6,440.819 580.753,444.864C581.868,448.773 583.163,452.634 584.674,456.408C584.94,457.074 585.211,457.738 585.495,458.396C585.715,458.906 585.946,459.411 586.192,459.908C586.381,460.29 586.578,460.667 586.785,461.038C586.939,461.316 587.099,461.59 587.265,461.861C588.277,463.51 589.541,465.053 591.178,466.115C591.478,466.309 591.789,466.487 592.109,466.645C592.419,466.799 592.738,466.935 593.063,467.053C595.028,467.767 597.154,467.799 599.218,467.704C599.659,467.684 600.099,467.657 600.539,467.628C601.224,467.583 601.908,467.534 602.593,467.489C602.945,467.467 603.298,467.447 603.651,467.428C604.721,467.377 605.792,467.344 606.864,467.356L606.981,467.358L601.729,381.821L601.75,381.646C601.776,381.594 601.794,381.536 601.829,381.489C601.901,381.394 602.004,381.328 602.121,381.302C602.178,381.289 602.238,381.297 602.297,381.295L680.163,392.054C680.216,392.07 680.273,392.079 680.323,392.104C680.424,392.156 680.504,392.241 680.551,392.344C680.573,392.395 680.579,392.452 680.593,392.507L687.69,476.228C687.683,476.29 687.688,476.355 687.67,476.415C687.633,476.537 687.551,476.64 687.441,476.704C687.387,476.735 687.323,476.746 687.263,476.765C687.24,476.773 687.219,476.775 687.197,476.787C687.178,476.797 687.162,476.811 687.145,476.824C687.057,476.906 686.994,477.009 686.942,477.116C686.859,477.288 686.801,477.472 686.757,477.658C686.673,478.009 686.636,478.371 686.627,478.732C686.618,479.13 686.644,479.531 686.718,479.923C686.754,480.114 686.801,480.303 686.867,480.485C686.909,480.597 686.957,480.708 687.018,480.812C687.078,480.912 687.156,481.026 687.265,481.077C687.376,481.129 687.511,481.068 687.606,481.012C687.642,480.991 687.662,480.978 687.696,480.955C687.729,480.932 687.762,480.908 687.793,480.883C687.829,480.854 687.865,480.823 687.899,480.792C687.938,480.757 687.977,480.719 688.014,480.682C688.056,480.639 688.096,480.596 688.136,480.551C688.203,480.476 688.268,480.397 688.331,480.317C688.579,480.003 688.793,479.665 688.997,479.322C689.145,479.066 689.288,478.807 689.432,478.549C689.614,478.225 689.797,477.902 689.98,477.579C690.618,476.462 691.265,475.351 691.934,474.252C693.202,472.17 694.544,470.131 696.002,468.178C697.186,466.592 698.447,465.062 699.798,463.615C701.178,462.135 702.651,460.742 704.213,459.456C706.171,457.844 708.266,456.402 710.464,455.137C711.093,454.775 711.729,454.428 712.373,454.095C712.654,453.949 712.938,453.805 713.222,453.665C713.359,453.597 713.496,453.532 713.63,453.462C713.698,453.424 713.764,453.386 713.831,453.347C714.405,452.992 714.93,452.561 715.435,452.115C716.087,451.54 716.707,450.928 717.307,450.299C718.058,449.512 718.778,448.697 719.476,447.863C720.404,446.754 721.293,445.613 722.147,444.446C724.429,441.331 726.475,438.042 728.28,434.629C728.832,433.587 729.36,432.534 729.864,431.468C730.105,430.959 730.343,430.448 730.57,429.932C730.801,429.407 731.019,428.876 731.226,428.341C731.821,426.802 732.328,425.229 732.782,423.642C733.383,421.542 733.891,419.416 734.375,417.286C734.792,415.432 735.195,413.576 735.609,411.721C735.926,410.324 736.248,408.927 736.607,407.54C736.872,406.514 737.169,405.497 737.451,404.476C737.564,404.062 737.675,403.647 737.785,403.231C738.358,401.015 738.868,398.781 739.249,396.523C739.525,394.887 739.736,393.238 739.834,391.581C739.91,390.309 739.92,389.029 739.812,387.758C739.711,386.58 739.506,385.408 739.113,384.29C738.952,383.849 738.789,383.408 738.629,382.966C738.036,381.307 737.473,379.638 736.921,377.965C736.241,375.888 735.573,373.806 734.896,371.727C734.342,370.041 733.782,368.357 733.19,366.684C732.74,365.413 732.273,364.148 731.779,362.893C731.391,361.905 730.986,360.923 730.559,359.951C730.244,359.232 729.917,358.519 729.577,357.813C727.611,353.738 725.157,349.822 721.841,346.706C721.358,346.251 720.857,345.815 720.34,345.399C719.582,344.789 718.789,344.224 717.963,343.709C717.118,343.182 716.239,342.708 715.335,342.29C714.811,342.047 714.277,341.825 713.738,341.618C713.102,341.379 712.463,341.147 711.825,340.913C711.167,340.673 710.506,340.437 709.85,340.193C709.746,340.153 709.642,340.113 709.54,340.07C709.501,340.053 709.462,340.036 709.427,340.012C709.404,339.997 709.378,339.984 709.359,339.964C709.328,339.931 709.297,339.897 709.265,339.864L709.264,339.861C709.213,339.77 709.213,339.77 709.182,339.67L709.182,339.668C709.18,339.486 709.18,339.485 709.244,339.314L709.245,339.312C709.321,339.215 709.321,339.215 709.419,339.139C709.467,339.102 709.533,339.096 709.59,339.076C709.619,339.065 709.652,339.069 709.683,339.067C709.782,339.06 709.887,339.087 709.983,339.103C710.423,339.185 710.863,339.273 711.303,339.354C713.067,339.667 714.854,339.889 716.648,339.887C717.79,339.885 718.942,339.797 720.054,339.527C720.493,339.42 720.925,339.284 721.341,339.108C721.606,338.996 721.865,338.869 722.111,338.721C722.307,338.603 722.501,338.471 722.661,338.307C722.747,338.219 722.833,338.115 722.866,337.993C722.912,337.818 722.797,337.642 722.692,337.512C722.671,337.486 722.65,337.461 722.628,337.436C722.59,337.394 722.551,337.354 722.511,337.315C722.3,337.112 722.06,336.939 721.816,336.779C721.461,336.546 721.09,336.339 720.714,336.142C719.988,335.761 719.242,335.419 718.495,335.081C717.438,334.607 716.378,334.142 715.322,333.666C714.95,333.497 714.579,333.327 714.209,333.154C713.886,333.002 713.565,332.846 713.242,332.695C713.031,332.599 712.82,332.505 712.608,332.412C709.819,331.21 706.894,330.344 703.939,329.656C702.397,329.296 700.842,328.989 699.28,328.727C697.568,328.44 695.847,328.21 694.119,328.04C692.071,327.84 690.011,327.721 687.952,327.746C687.248,327.755 686.543,327.781 685.84,327.834C684.959,327.899 684.081,328.007 683.216,328.191L683.068,328.224L682.92,328.259L682.763,328.271C682.629,328.238 682.584,328.244 682.475,328.15C682.436,328.115 682.408,328.069 682.374,328.028C682.247,327.814 682.247,327.815 682.117,327.601C681.738,326.991 681.337,326.395 680.904,325.822C680.133,324.798 679.269,323.845 678.323,322.981C677.227,321.979 676.025,321.099 674.757,320.327C673.133,319.338 671.408,318.522 669.649,317.801C666.924,316.684 664.116,315.781 661.311,314.89C659.476,314.312 657.64,313.739 655.807,313.158C655.372,313.019 654.937,312.88 654.502,312.74C654.213,312.647 653.925,312.55 653.634,312.462C653.533,312.432 653.431,312.404 653.329,312.377C652.39,312.142 651.418,312.051 650.452,312.121C649.893,312.161 649.335,312.253 648.8,312.421C648.687,312.456 648.575,312.495 648.465,312.538C648.276,312.612 648.091,312.699 647.917,312.804C647.79,312.882 647.667,312.97 647.564,313.078C647.479,313.167 647.377,313.295 647.406,313.427C647.432,313.541 647.522,313.639 647.604,313.716C647.698,313.803 647.802,313.877 647.911,313.944C648.088,314.054 648.276,314.142 648.466,314.225C649.025,314.456 649.585,314.681 650.143,314.911C651.574,315.506 653,316.113 654.406,316.762C655.202,317.129 655.993,317.509 656.767,317.92C657.297,318.2 657.822,318.494 658.319,318.83C658.496,318.95 658.669,319.076 658.833,319.213C658.98,319.336 659.122,319.468 659.239,319.62C659.323,319.728 659.396,319.847 659.44,319.978C659.47,320.067 659.485,320.159 659.486,320.253C659.486,320.323 659.475,320.391 659.456,320.459C659.444,320.503 659.426,320.546 659.406,320.587C659.245,320.914 658.882,321.059 658.546,321.13C658.492,321.141 658.437,321.151 658.382,321.16C658.07,321.209 657.752,321.221 657.436,321.222C656.855,321.224 656.274,321.184 655.696,321.131C655.037,321.07 654.379,320.99 653.724,320.9C652.03,320.666 650.344,320.371 648.667,320.037C648.455,320.005 648.242,319.977 648.028,319.95C645.673,319.662 643.3,319.521 640.928,319.47C637.817,319.402 634.702,319.498 631.601,319.75C621.258,320.587 610.997,323.16 601.693,327.806C600.089,328.607 598.516,329.468 596.978,330.39C594.456,331.902 592.031,333.575 589.726,335.402C587.067,337.51 584.565,339.817 582.265,342.313C578.671,346.211 575.555,350.538 572.844,355.09C571.191,357.866 569.687,360.73 568.32,363.658C567.012,366.458 565.829,369.316 564.768,372.219C563.828,374.789 562.983,377.393 562.24,380.027C561.582,382.363 561.003,384.722 560.526,387.102C560.145,389.001 559.827,390.915 559.612,392.841C559.519,393.673 559.445,394.507 559.402,395.342C559.366,396.038 559.35,396.736 559.371,397.433C559.384,397.89 559.413,398.347 559.471,398.8C559.515,399.142 559.574,399.485 559.673,399.816C559.712,399.95 559.759,400.083 559.817,400.21C559.855,400.293 559.899,400.374 559.952,400.448C560,400.516 560.064,400.595 560.147,400.622C560.236,400.652 560.339,400.607 560.417,400.568C560.621,400.465 560.797,400.304 560.953,400.14C561.119,399.966 561.272,399.78 561.417,399.588C561.675,399.244 561.907,398.881 562.126,398.512C562.501,397.881 562.828,397.225 563.168,396.576C563.331,396.269 563.33,396.27 563.496,395.965C563.794,395.425 564.099,394.888 564.437,394.372C564.659,394.032 564.894,393.696 565.164,393.393C565.316,393.222 565.481,393.058 565.671,392.929C565.807,392.836 565.957,392.761 566.119,392.727C566.193,392.711 566.266,392.707 566.342,392.706C566.392,392.71 566.391,392.709 566.441,392.715ZM608.143,469.967C608.549,469.775 608.95,469.567 609.326,469.322C609.448,469.242 609.567,469.159 609.68,469.067C609.778,468.987 609.873,468.9 609.949,468.798L609.962,468.78C609.888,468.73 609.801,468.696 609.717,468.667C609.601,468.626 609.481,468.595 609.361,468.569C608.935,468.475 608.498,468.434 608.064,468.403L608.047,468.401C608.079,468.923 608.111,469.445 608.143,469.967Z" style="fill:none;"/>
            </g>
            <g transform="matrix(1.4166,0,0,1.4166,-508.156,163.556)">
                <path d="M583.58,405.681C577.164,491.782 631.602,500.889 642.112,501.416C658.378,502.233 718.964,484.462 713.385,429.68C706.871,365.725 656.762,346.989 656.762,346.989C656.762,346.989 582.737,344.857 583.58,405.681Z" style="fill:rgb(238,181,148);"/>
            </g>
            <g transform="matrix(1.4166,0,0,1.4166,-508.103,163.483)">
                <path d="M586.41,417.405L586.487,421.29L587.593,426.372L588.229,426.816L589.341,430.616L594.19,434.521L599.719,435.596L609.055,435.596L615.121,433.649L619.067,430.616L619.966,427.038L618.733,421.29L615.686,416.31L611.691,412.339L606.405,408.609L599.719,406.984L594.19,406.984L589.548,408.916L587.972,412.373L586.574,415.668L586.41,417.405Z" style="fill:rgb(235,235,235);"/>
            </g>
            <g transform="matrix(1.4166,0,0,1.4166,-513.133,164.695)">
                <path d="M666.594,412.991L661.431,417.91L658.532,423.206L657.484,426.735L658.323,429.774L660.611,431.885L665.59,433.793L669.454,434.03L677.675,434.03L685.297,431.578L690.44,426.349L692.907,419.799L693.146,416.182L689.744,410.386L686.249,408.058L683.595,408.437L679.703,408.055L673.051,409.236L669.886,411.208L666.594,412.991Z" style="fill:rgb(235,235,235);"/>
            </g>
            <g transform="matrix(1.09807,0,0,1.09807,-757.738,350.643)">
                <path d="M979.479,376.788C979.479,376.788 977.958,416.476 1005.5,446.894C1016.52,459.064 1034.86,471.051 1055.71,476.423C1058.92,477.247 981.149,475.394 979.479,376.788Z" style="fill:rgb(236,167,128);"/>
            </g>
            <g transform="matrix(1.09807,0,0,1.09807,-757.738,350.643)">
                <path d="M1065.41,312.651C1065.41,312.651 1072.28,304.164 1076.9,317.038C1081.51,329.913 1091.19,355.089 1097.01,346.982C1102.84,338.876 1076.72,300.801 1076.72,300.801L1063.78,302.329L1065.41,312.651Z" style="fill:rgb(220,154,121);"/>
            </g>
            <g transform="matrix(1.09807,0,0,1.09807,-757.738,350.643)">
                <path d="M1094.64,311.988C1094.64,311.988 1110.68,328.818 1108.94,322.573C1107.2,316.328 1097.86,298.64 1097.86,298.64L1088.9,310.936L1094.64,311.988Z" style="fill:rgb(220,154,121);"/>
            </g>
            <g transform="matrix(1.09807,0,0,1.09807,-757.738,350.643)">
                <path d="M1015.47,311.301C1015.47,311.301 1023.84,307.698 1024.94,314.33C1026.04,320.962 1025.63,347.42 1035.56,345.786C1045.5,344.152 1039.3,298.64 1039.3,298.64L1021.39,302.208L1015.47,311.301" style="fill:rgb(220,154,121);"/>
            </g>
            <g transform="matrix(1.4166,0,0,1.4166,-513.133,164.695)">
                <path d="M679.752,407.558L683.643,407.94L683.695,407.948L683.746,407.961L689.895,409.91C689.965,409.938 690.027,409.967 690.083,410.019C690.131,410.064 690.138,410.08 690.175,410.133L693.578,415.929C693.607,415.989 693.618,416.002 693.633,416.067C693.648,416.132 693.645,416.149 693.645,416.215L693.406,419.832C693.396,419.905 693.396,419.905 693.375,419.975L690.908,426.525C690.883,426.581 690.879,426.597 690.842,426.647C690.828,426.665 690.812,426.682 690.797,426.7L685.654,431.929C685.636,431.944 685.619,431.962 685.599,431.976C685.548,432.015 685.531,432.019 685.473,432.046L677.525,435.023C677.447,435.046 677.447,435.046 677.366,435.055L669.241,435.312C669.165,435.309 669.165,435.309 669.09,435.294L665.455,434.275C663.753,433.711 662.106,432.994 660.432,432.352L660.375,432.326C660.321,432.292 660.321,432.293 660.272,432.253L657.984,430.141C657.942,430.096 657.928,430.087 657.896,430.034C657.864,429.981 657.861,429.965 657.841,429.907L657.002,426.868C656.99,426.808 656.984,426.793 656.984,426.731C656.985,426.668 656.991,426.653 657.005,426.593L658.053,423.063C658.07,423.013 658.07,423.014 658.093,422.966L660.993,417.67C661.035,417.605 661.035,417.606 661.087,417.549L666.249,412.629C666.3,412.586 666.3,412.587 666.356,412.551L669.634,410.775L672.786,408.812L672.842,408.782C672.902,408.759 672.901,408.759 672.963,408.744L679.616,407.563L679.684,407.556C679.707,407.556 679.73,407.557 679.752,407.558ZM673.233,409.711L670.137,411.64L666.891,413.399C665.205,415.006 663.276,416.391 661.833,418.219C659.342,421.374 659.023,423.308 658.004,426.74L658.767,429.503C659.471,430.153 660.039,430.993 660.88,431.453C662.404,432.286 664.102,432.759 665.747,433.318C669.846,434.711 672.395,435.034 677.252,434.058C679.962,433.513 682.429,432.118 685.018,431.148L690.01,426.074C691.806,421.304 692.301,421.389 692.637,416.303L689.41,410.805C684.653,409.297 684.689,409.047 679.723,408.56C677.56,408.944 675.396,409.327 673.233,409.711Z" style="fill:none;"/>
            </g>
            <g transform="matrix(1.4166,0,0,1.30187,-504.717,213.049)">
                <path d="M593.878,404.776L590.881,410.304L590.88,416.503L592.252,421.29L594.19,427.434L599.128,432.905L602.417,432.996L606.912,431.927L610.037,426.461L611.691,421.85L611.691,415.666L611.691,412.535C611.691,412.535 605.218,406.612 602.373,405.942C599.528,405.273 593.878,404.776 593.878,404.776Z" style="fill:rgb(62,130,155);"/>
            </g>
            <g transform="matrix(-1.4166,0,0,1.28263,1295.87,219.978)">
                <path d="M593.351,406.629L590.649,410.828L590.88,416.503L592.252,421.29L593.86,430.606L598.61,433.698L601.899,433.789L606.394,432.72L610.037,426.461L611.691,421.85L611.691,415.666L610.818,412.535C610.818,412.535 606.456,408.303 603.61,407.634C600.765,406.964 593.351,406.629 593.351,406.629" style="fill:rgb(62,130,155);"/>
            </g>
            <g transform="matrix(1.09807,0,0,1.09807,-757.738,350.643)">
                <path d="M1007.78,386.855C1008.73,387.118 1020.52,380.047 1014.2,360.154C1013.61,358.315 1018.4,363.643 1018.4,363.643L1019.76,372.856L1017.17,379.93C1016.26,382.429 1014.74,384.72 1012.77,386.855L1007.78,386.855" style="fill:rgb(53,111,133);"/>
            </g>
            <g transform="matrix(1.09581,0.0704749,-0.0704749,1.09581,-725.51,281.168)">
                <path d="M1038.66,443.793C1038.66,443.793 1039.46,446.341 1051.44,443.793" style="fill:rgb(19,4,27);"/>
            </g>
            <g transform="matrix(1.29651,0,0,1.25679,-863.116,288.675)">
                <path d="M1007.88,386.663C1010.93,384.538 1020.69,378.101 1015.7,360.733C1015.17,358.874 1017.64,361.296 1017.64,361.296C1019.55,364.413 1021.63,367.433 1019.76,372.856L1017.17,379.93L1013.16,386.719L1007.88,386.663Z" style="fill:rgb(53,111,133);"/>
            </g>
            <g transform="matrix(1.09807,0,0,1.09807,-757.738,350.643)">
                <path d="M1021.39,436.654C1021.39,436.654 1039.84,440.658 1047.07,440.934C1054.29,441.21 1076.72,436.654 1076.72,436.654C1078.69,437.452 1063.59,443.862 1046.9,443.792C1038.19,443.756 1031.2,442.15 1021.39,436.654Z" style="fill:rgb(236,167,128);"/>
            </g>
            <g transform="matrix(-1.4166,0,0,1.28263,1295.87,219.978)">
                <path d="M593.32,406.079C593.181,406.082 593.037,406.169 592.956,406.292C591.97,407.63 591.146,409.103 590.242,410.509C590.215,410.554 590.207,410.565 590.188,410.615C590.159,410.692 590.15,410.77 590.15,410.853L590.381,416.527C590.388,416.6 590.388,416.599 590.403,416.669L591.777,421.464L593.717,427.615L593.74,427.675C593.769,427.733 593.799,427.785 593.843,427.831C593.88,427.871 593.893,427.877 593.936,427.909L598.685,431.001C598.736,431.029 598.747,431.039 598.802,431.057C598.856,431.074 598.871,431.072 598.927,431.078L602.216,431.168C602.275,431.166 602.275,431.166 602.334,431.156L606.828,430.087C606.881,430.071 606.895,430.07 606.944,430.043C606.992,430.017 607.002,430.005 607.046,429.97L610.359,426.884C610.399,426.842 610.411,426.833 610.443,426.784C610.475,426.735 610.479,426.719 610.502,426.665L612.156,422.054C612.162,422.032 612.17,422.01 612.175,421.988C612.189,421.928 612.187,421.912 612.191,421.85L612.191,415.666C612.188,415.611 612.188,415.612 612.181,415.557C611.933,414.481 611.592,413.434 611.296,412.373C611.276,412.314 611.255,412.26 611.221,412.209C611.186,412.155 611.14,412.113 611.095,412.069C610.922,411.905 610.747,411.743 610.571,411.583C609.559,410.668 608.512,409.797 607.412,409.014C606.959,408.692 606.496,408.385 606.021,408.104C605.616,407.865 605.202,407.644 604.774,407.457C604.501,407.338 604.223,407.233 603.938,407.152C603.718,407.089 603.493,407.042 603.269,406.998C602.927,406.931 602.583,406.874 602.239,406.824C601.214,406.672 600.185,406.565 599.155,406.471C597.833,406.35 596.509,406.256 595.185,406.176C594.816,406.154 594.447,406.133 594.078,406.113C593.951,406.106 593.824,406.1 593.697,406.093C593.582,406.088 593.468,406.075 593.352,406.078C593.336,406.078 593.337,406.077 593.32,406.079ZM593.652,407.197C595.885,407.312 598.119,407.458 600.344,407.698C601.049,407.774 601.755,407.859 602.456,407.972C602.848,408.035 603.242,408.1 603.626,408.204C603.822,408.257 604.014,408.324 604.204,408.399C604.616,408.564 605.014,408.769 605.403,408.993C605.906,409.282 606.394,409.604 606.871,409.943C608.071,410.797 609.211,411.756 610.301,412.773L610.383,412.85C611.375,416.411 611.878,417.206 611.191,421.745C610.956,423.295 610.142,424.668 609.618,426.129L606.496,429.037C602.831,429.908 602.83,430.08 599.081,429.977L594.601,427.061C594.448,426.573 591.564,417.613 591.377,416.405C591.101,414.625 591.23,412.797 591.156,410.993L593.601,407.194C593.618,407.195 593.635,407.196 593.652,407.197Z" style="fill:none;"/>
            </g>
            <g transform="matrix(0.381606,0.0484765,-0.0480001,0.290828,118.244,396.627)">
                <path d="M1054.21,1060.6C1053.43,1055.25 1045.93,1012.75 1003.2,1013.88C957.599,1015.09 910.883,1100.62 926.477,1132.87C932.087,1147.37 953.543,1171.28 1011.71,1147.63C1045.41,1133.93 1059.03,1088.97 1054.21,1060.6ZM1019.12,1023.83C1040.14,1040.65 1036.06,1135.79 1001.01,1141.81C954.164,1149.85 946.32,1078.1 949.025,1063.49C942.287,1070.07 926.609,1108.4 928.874,1123.82C930.682,1136.12 937.355,1147.46 962.028,1149.51C1047.22,1156.55 1052.34,1071.69 1048.65,1057.89C1041.64,1031.66 1027.81,1024.13 1019.12,1023.83ZM1015.04,1024.71C1012.31,1021.07 1003.58,1020.78 990.338,1026.21C974.358,1032.76 955.783,1046.4 954.712,1054.78C951.307,1081.41 962.492,1148 1001.62,1132.78C1025.02,1123.68 1032.91,1048.54 1015.04,1024.71Z" style="fill:rgb(19,4,27);"/>
            </g>
            <g transform="matrix(-0.386637,0.0599434,0.037249,0.318017,686.749,355.762)">
                <path d="M1046.09,1067.78C1045.93,1063.52 1045.93,1012.75 1003.2,1013.88C957.599,1015.09 910.883,1100.62 926.477,1132.87C932.087,1147.37 953.543,1171.28 1011.71,1147.63C1045.41,1133.93 1047.07,1092.84 1046.09,1067.78ZM1009.74,1022.09C1030.76,1038.9 1025.48,1136.6 990.427,1142.61C943.576,1150.65 940.639,1082.8 943.345,1068.19C936.606,1074.77 926.609,1108.4 928.874,1123.82C930.682,1136.12 937.355,1147.46 962.028,1149.51C1047.22,1156.55 1043.25,1078.93 1039.17,1065.3C1038.06,1059.78 1037.18,1047.6 1032.53,1040.15C1025.62,1029.06 1013.95,1023.1 1009.74,1022.09ZM1008.68,1028.6C1005.95,1024.95 1005.07,1020.68 991.828,1026.11C975.848,1032.65 950.532,1050.78 949.461,1059.15C946.056,1085.78 951.903,1148.8 991.036,1133.59C1014.44,1124.49 1026.55,1052.43 1008.68,1028.6Z" style="fill:rgb(19,4,27);"/>
            </g>
            <g transform="matrix(-1.17242,-0.466362,-0.52359,1.31629,1354.58,527.497)">
                <path d="M658.19,395.804C657.003,391.368 683.775,387.916 696.958,395.088C699.665,396.561 697.604,401.101 697.604,401.101C698.473,395.241 672.309,391.63 658.19,395.804Z" style="fill:rgb(19,4,27);"/>
            </g>
            <g transform="matrix(1.43091,0.0161828,-0.0160199,1.41651,-513.855,159.694)">
                <path d="M658.19,395.804C657.003,391.368 683.775,387.916 696.958,395.088C699.665,396.561 698.1,400.406 698.1,400.406C691.494,394.071 672.309,391.63 658.19,395.804Z" style="fill:rgb(19,4,27);"/>
            </g>
            <g transform="matrix(1.38113,0,0,1.4166,-485.504,150.274)">
                <path d="M640.185,518.226C636.887,519.41 633.738,528.056 645.479,539.114C656.957,549.924 682.804,548.584 682.804,548.584C682.804,548.584 710.985,546.594 713.729,524.609C714.639,517.313 710.78,515.457 710.78,515.457C710.78,515.457 708.383,538.732 682.804,541.04C655.359,543.516 642.323,527.861 640.185,518.226Z" style="fill:rgb(33,17,41);"/>
            </g>
            <g transform="matrix(1.4166,0,0,1.52044,-508.103,95.0766)">
                <path d="M710.85,514.978C710.875,514.983 710.901,514.987 710.926,514.995C711.023,515.026 711.115,515.086 711.2,515.139C711.342,515.227 711.478,515.326 711.608,515.43C712.211,515.91 712.706,516.519 713.097,517.181C714.048,518.793 714.372,520.703 714.364,522.553C714.363,522.866 714.352,523.179 714.333,523.491C714.309,523.885 714.272,524.279 714.223,524.671C714.158,525.187 714.08,525.702 713.985,526.213C713.804,527.191 713.567,528.158 713.268,529.106C712.893,530.298 712.423,531.461 711.86,532.577C711.358,533.574 710.782,534.534 710.14,535.447C709.682,536.097 709.192,536.724 708.672,537.326C708.254,537.81 707.817,538.278 707.363,538.729C704.259,541.814 700.415,544.074 696.377,545.71C695.367,546.12 694.342,546.495 693.304,546.827C692.156,547.196 690.996,547.526 689.824,547.814C688.532,548.131 687.228,548.399 685.915,548.616C684.922,548.78 683.923,548.918 682.92,549.002C682.834,549.008 682.834,549.009 682.748,549.012C681.018,549.078 679.285,549.062 677.554,549.01C675.227,548.94 672.901,548.78 670.586,548.534C667.922,548.25 665.269,547.848 662.65,547.285C660.68,546.861 658.727,546.348 656.814,545.714C655.104,545.148 653.425,544.485 651.806,543.694C650.409,543.012 649.057,542.233 647.787,541.335C647.117,540.861 646.47,540.353 645.855,539.809C645.526,539.519 645.208,539.217 644.894,538.911C644.462,538.489 644.038,538.059 643.624,537.62C642.424,536.346 641.306,534.991 640.324,533.541C639.545,532.39 638.851,531.177 638.295,529.902C637.503,528.086 636.977,526.116 636.995,524.124C636.999,523.751 637.022,523.377 637.067,523.007C637.108,522.663 637.169,522.322 637.25,521.986C637.315,521.718 637.393,521.454 637.485,521.194C637.558,520.99 637.639,520.789 637.729,520.593C638.096,519.797 638.625,519.046 639.342,518.529C639.469,518.438 639.601,518.357 639.737,518.282C639.866,518.211 640.002,518.155 640.139,518.104L640.161,518.098C640.207,518.093 640.249,518.103 640.282,518.139C640.295,518.153 640.296,518.159 640.305,518.176C640.331,518.256 640.345,518.341 640.365,518.422C640.393,518.536 640.422,518.65 640.452,518.764C640.837,520.195 641.394,521.575 642.071,522.893C642.742,524.198 643.529,525.443 644.403,526.621C646.535,529.494 649.184,531.971 652.132,533.99C654.08,535.323 656.162,536.458 658.329,537.395C659.225,537.782 660.136,538.135 661.059,538.456C667.202,540.589 673.785,541.227 680.255,540.869C682.334,540.754 684.409,540.551 686.456,540.163C688.232,539.826 689.985,539.359 691.685,538.743C693.408,538.118 695.076,537.339 696.652,536.401C698.677,535.195 700.543,533.727 702.188,532.038C704.65,529.511 706.604,526.515 708.019,523.287C708.71,521.709 709.277,520.075 709.707,518.407C709.859,517.817 709.995,517.223 710.106,516.625C710.182,516.22 710.252,515.812 710.298,515.402L710.313,515.326C710.337,515.262 710.34,515.243 710.378,515.186C710.437,515.1 710.522,515.034 710.62,515C710.686,514.977 710.704,514.979 710.773,514.973C710.799,514.974 710.824,514.976 710.85,514.978ZM711.144,516.316C710.886,517.769 710.515,519.2 710.052,520.601C709.581,522.025 709.014,523.418 708.355,524.765C707.163,527.2 705.663,529.495 703.862,531.526C702.993,532.507 702.057,533.428 701.06,534.279C699.76,535.386 698.358,536.372 696.879,537.225C693.784,539.007 690.371,540.186 686.867,540.849C684.595,541.28 682.288,541.485 679.979,541.584C677.99,541.669 675.997,541.66 674.009,541.544C672.986,541.485 671.964,541.398 670.946,541.277C667.674,540.888 664.439,540.193 661.322,539.119C658.682,538.209 656.133,537.033 653.747,535.58C650.07,533.34 646.772,530.436 644.216,526.962C643.163,525.53 642.235,524.003 641.485,522.391C640.89,521.113 640.405,519.779 640.091,518.403C640.014,518.436 639.941,518.474 639.867,518.513C639.659,518.623 639.466,518.764 639.288,518.916C638.872,519.274 638.534,519.718 638.264,520.194C637.934,520.774 637.704,521.409 637.554,522.058C637.323,523.061 637.283,524.103 637.379,525.126C637.429,525.671 637.519,526.213 637.64,526.747C638.147,528.974 639.188,531.055 640.453,532.944C641.458,534.447 642.618,535.844 643.863,537.153C644.314,537.627 644.777,538.09 645.25,538.542C645.694,538.967 646.147,539.38 646.621,539.77C647.633,540.602 648.72,541.34 649.852,541.999C652.278,543.41 654.904,544.461 657.583,545.284C661.018,546.339 664.562,547.025 668.124,547.486C671.43,547.914 674.763,548.144 678.096,548.205C679.083,548.223 680.071,548.226 681.059,548.21C681.42,548.205 681.782,548.196 682.143,548.185C682.379,548.177 682.615,548.173 682.85,548.153C683.757,548.074 684.661,547.943 685.56,547.793C687.019,547.55 688.469,547.241 689.901,546.87C690.974,546.593 692.038,546.283 693.088,545.932C695.887,545 698.609,543.822 701.14,542.3C703.373,540.958 705.455,539.349 707.238,537.446C709.026,535.538 710.495,533.336 711.528,530.932C712.301,529.132 712.829,527.232 713.13,525.298C713.202,524.833 713.263,524.366 713.305,523.897C713.341,523.496 713.364,523.093 713.37,522.69C713.375,522.372 713.369,522.053 713.352,521.735C713.339,521.486 713.318,521.236 713.289,520.988C713.121,519.538 712.666,518.072 711.734,516.925C711.583,516.738 711.419,516.564 711.244,516.399L711.18,516.34L711.145,516.309C711.144,516.311 711.144,516.314 711.144,516.316Z" style="fill:none;"/>
            </g>
            <g transform="matrix(0.398159,-0.0393831,-0.0374186,-0.378299,93.253,1308.74)">
                <path d="M876.648,1244.59C876.648,1244.59 876.265,1244.37 875.364,1245.85C872.339,1250.84 863.553,1262.89 844.477,1262.78C838.078,1262.74 831.504,1259.01 829.401,1253.02C827.941,1248.86 823.682,1243.86 826.577,1251.2C829.597,1258.86 833.589,1266.8 843.858,1267.22C869.756,1268.29 873.572,1255.57 877.586,1246.46C881.601,1237.35 876.648,1244.59 876.648,1244.59Z" style="fill:rgb(27,3,1);"/>
            </g>
            <g transform="matrix(1.4166,0,0,1.4166,-528.536,171.06)">
                <path d="M582.807,409.567C582.807,409.567 587.955,360.706 627.305,358.339C642.762,357.409 627.699,395.534 644.552,395.382C661.406,395.23 662.964,361.285 669.225,364.667C675.485,368.05 680.427,397.432 687.615,396.92C694.803,396.408 687.4,372.832 687.587,366.326C687.69,362.724 693.66,376.582 697.666,377.703C701.672,378.824 695.484,360.506 701.803,364.33C708.123,368.154 731.963,427.564 715.842,456.053C708.176,469.599 733.753,460.149 729.922,424.147C727.933,405.466 724.305,345.641 724.305,345.641L638.819,327.089L598.003,366.153L582.807,409.567Z" style="fill:rgb(19,4,27);"/>
            </g>
            <g transform="matrix(1.4166,0,0,1.4166,-508.103,163.483)">
                <ellipse cx="598.566" cy="413.8" rx="1.931" ry="2.272" style="fill:rgb(99,172,183);"/>
            </g>
            <g transform="matrix(1.4166,0,0,1.4166,-409.977,166.701)">
                <ellipse cx="598.566" cy="413.8" rx="1.931" ry="2.272" style="fill:rgb(99,172,183);"/>
            </g>
            <g transform="matrix(1.4166,0,0,1.4166,-508.103,163.483)">
                <path d="M715.618,415.95C715.618,415.95 727.415,404.251 730.515,418.914C733.615,433.578 719.361,448.124 713.729,449.39C712.121,449.751 720.518,433.377 715.618,415.95Z" style="fill:rgb(225,169,139);"/>
            </g>
            <g transform="matrix(1.4166,0,0,1.4166,-508.103,163.483)">
                <path d="M724.366,411.279C724.837,411.288 725.306,411.347 725.76,411.475C726.063,411.559 726.358,411.673 726.639,411.813C726.826,411.906 727.007,412.011 727.181,412.126C728.377,412.916 729.199,414.155 729.781,415.442C729.876,415.653 729.966,415.866 730.05,416.081C730.158,416.358 730.257,416.637 730.35,416.92C730.484,417.329 730.602,417.744 730.708,418.162C730.853,418.732 730.975,419.308 731.071,419.887C731.205,420.695 731.291,421.51 731.328,422.328C731.358,422.963 731.359,423.599 731.332,424.233C731.161,428.388 729.821,432.429 727.869,436.076C727.503,436.76 727.113,437.431 726.702,438.089C726.186,438.917 725.637,439.723 725.058,440.508C724.202,441.666 723.281,442.775 722.299,443.829C721.238,444.967 720.101,446.041 718.883,447.01C717.998,447.715 717.068,448.372 716.076,448.917C715.72,449.113 715.355,449.294 714.979,449.45C714.748,449.547 714.512,449.634 714.273,449.708C714.174,449.738 714.074,449.766 713.973,449.791C713.891,449.812 713.808,449.836 713.723,449.841C713.641,449.846 713.558,449.836 713.48,449.808C713.437,449.793 713.397,449.773 713.359,449.747C713.322,449.722 713.289,449.694 713.259,449.661C713.044,449.432 713.061,449.086 713.099,448.798C713.108,448.722 713.114,448.688 713.127,448.612C713.138,448.545 713.152,448.476 713.166,448.409C713.189,448.297 713.215,448.185 713.241,448.073C713.282,447.902 713.326,447.731 713.372,447.561C713.433,447.331 713.468,447.207 713.533,446.975C713.779,446.103 714.031,445.232 714.276,444.36C714.77,442.577 715.229,440.785 715.611,438.975C716.061,436.847 716.409,434.697 716.634,432.533C716.984,429.178 717.028,425.785 716.677,422.428C716.53,421.016 716.314,419.612 716.026,418.222C715.869,417.471 715.69,416.726 715.493,415.984C715.489,415.965 715.489,415.965 715.488,415.945C715.491,415.917 715.498,415.896 715.514,415.871C715.581,415.795 715.659,415.726 715.733,415.656C716.405,415.021 717.118,414.429 717.864,413.884C718.633,413.323 719.439,412.81 720.289,412.38C721.258,411.889 722.296,411.497 723.376,411.345C723.622,411.311 723.87,411.29 724.118,411.281C724.201,411.28 724.283,411.279 724.366,411.279ZM724.127,411.778C722.796,411.796 721.506,412.232 720.321,412.813C719.326,413.3 718.388,413.899 717.499,414.558C717.157,414.811 716.823,415.074 716.497,415.347C716.274,415.533 716.053,415.722 715.841,415.919L715.765,415.99C715.837,416.236 715.906,416.483 715.973,416.731C716.045,417.002 716.116,417.273 716.184,417.546C716.558,419.075 716.851,420.622 717.053,422.183C717.675,426.984 717.492,431.865 716.755,436.642C716.455,438.59 716.064,440.522 715.604,442.438C715.221,444.034 714.784,445.615 714.362,447.2C714.289,447.478 714.218,447.757 714.15,448.036C714.087,448.301 714.028,448.567 713.987,448.836L713.985,448.856C714.443,448.713 714.884,448.511 715.308,448.288C715.895,447.979 716.455,447.623 716.997,447.241C717.685,446.757 718.341,446.23 718.976,445.679C719.811,444.954 720.601,444.181 721.361,443.379C722.467,442.21 723.494,440.964 724.441,439.663C725.002,438.893 725.535,438.103 726.037,437.293C727.312,435.233 728.389,433.048 729.177,430.755C729.959,428.479 730.453,426.102 730.539,423.694C730.567,422.913 730.551,422.13 730.49,421.35C730.441,420.729 730.363,420.11 730.256,419.496C730.169,418.999 730.064,418.505 729.943,418.015C729.857,417.669 729.761,417.325 729.655,416.985C729.571,416.717 729.48,416.452 729.381,416.19C729.305,415.987 729.223,415.786 729.136,415.587C728.619,414.411 727.885,413.27 726.799,412.546C726.645,412.443 726.485,412.35 726.32,412.267C726.07,412.141 725.809,412.039 725.54,411.962C725.129,411.845 724.705,411.79 724.279,411.779C724.202,411.778 724.203,411.778 724.127,411.778Z" style="fill:none;"/>
            </g>
            <g transform="matrix(1.7264,0,0,1.36933,-703.456,192.057)">
                <path d="M594.58,376.958C594.263,380.207 593.395,395.926 602.228,386.286C610.411,377.356 620.633,353.485 622.221,363.933C622.57,366.229 626.733,358.613 628.361,358.476C633.619,358.033 612.613,343.251 602.228,346.98C595.499,349.396 594.58,376.958 594.58,376.958Z" style="fill:rgb(19,4,27);"/>
            </g>
            <g transform="matrix(0.772626,-1.43632,1.697,1.05158,-1139.06,1351.85)">
                <path d="M671.572,608.76C671.572,606.625 669.374,604.892 666.667,604.892C663.96,604.892 661.762,606.625 661.762,608.76L661.762,648.889C661.762,651.023 663.96,652.756 666.667,652.756C669.374,652.756 671.572,651.023 671.572,648.889L671.572,608.76Z" style="fill:white;"/>
            </g>
            <g transform="matrix(1.09807,0,0,1.09807,-757.738,350.643)">
                <path d="M1155.92,366.321C1155.92,366.321 1177.34,361.753 1161.94,391.509C1151.45,411.784 1178.28,365.136 1155.92,366.321Z" style="fill:rgb(215,137,98);"/>
            </g>
            <g transform="matrix(0.801588,1.49016,-1.697,1.05158,976.581,-599.403)">
                <path d="M671.572,608.905C671.572,606.69 669.374,604.892 666.667,604.892C663.96,604.892 661.762,606.69 661.762,608.905L661.762,648.744C661.762,650.958 663.96,652.756 666.667,652.756C669.374,652.756 671.572,650.958 671.572,648.744L671.572,608.905Z" style="fill:white;"/>
            </g>
            <g transform="matrix(1.63939,0,0,1.75956,-664.925,-30.4144)">
                <ellipse cx="676.372" cy="589.135" rx="16.717" ry="14.306" style="fill:white;"/>
            </g>
            <g transform="matrix(1.76649,0,0,1.75956,-748.095,-31.0098)">
                <path d="M683.333,600.714C683.333,599.889 682.712,599.219 681.946,599.219L667.291,599.219C666.525,599.219 665.903,599.889 665.903,600.714L665.903,603.704C665.903,604.529 666.525,605.198 667.291,605.198L681.946,605.198C682.712,605.198 683.333,604.529 683.333,603.704L683.333,600.714Z" style="fill:white;"/>
            </g>
            <g transform="matrix(1.72069,0,0,1.84682,-717.669,-83.8174)">
                <ellipse cx="682.242" cy="589.694" rx="3.373" ry="5.855" style="fill:rgb(33,17,41);"/>
            </g>
            <g transform="matrix(1.72069,0,0,1.84682,-742.462,-83.8174)">
                <ellipse cx="682.242" cy="589.694" rx="3.373" ry="5.855" style="fill:rgb(33,17,41);"/>
            </g>
            <g transform="matrix(-0.152764,-0.182148,-0.326895,0.288492,696.047,728.317)">
                <path d="M1230.06,445.151C1250.02,445.151 1290.08,477.658 1290.08,525.835C1290.08,574.013 1263.31,612.175 1247.68,605.435C1233.83,599.464 1258.12,576.423 1258.12,528.246C1258.12,480.069 1210.1,445.151 1230.06,445.151Z" style="fill:rgb(44,15,61);"/>
            </g>
            <g transform="matrix(-0.128745,-0.0743311,-0.130332,0.239476,568.473,660.849)">
                <path d="M1230.06,445.151C1250.02,445.151 1290.08,477.658 1290.08,525.835C1290.08,574.013 1263.31,612.175 1247.68,605.435C1233.83,599.464 1258.12,576.423 1258.12,528.246C1258.12,480.069 1210.1,445.151 1230.06,445.151Z" style="fill:rgb(44,15,61);"/>
            </g>
            <g transform="matrix(-0.101509,-0.00784855,-0.00970072,0.18647,433.804,666.467)">
                <path d="M1267.94,447.062C1287.9,447.062 1290.08,477.658 1290.08,525.835C1290.08,574.013 1252.96,630.677 1237.32,623.937C1223.47,617.966 1238.55,576.849 1258.12,528.246C1276.97,481.436 1247.98,447.062 1267.94,447.062Z" style="fill:rgb(44,15,61);"/>
            </g>
            <g transform="matrix(-0.287792,-0.128788,-0.188585,0.421418,724.878,685.049)">
                <ellipse cx="1223.23" cy="363.372" rx="6.237" ry="6.406" style="fill:rgb(44,15,61);"/>
            </g>
        </g>
        <g transform="matrix(1.18687,-0.537816,0.512568,1.13116,-396.935,335.05)">
            <path d="M743.209,494.683C742.818,494.722 746.574,490.288 749.727,494.794C752.706,499.051 746.731,505.459 745.375,505.156C743.214,504.674 740.877,498.461 743.209,494.683Z" style="fill:rgb(19,4,27);"/>
        </g>
    </g>
    <g transform="matrix(1,0,0,1,-653.141,-288.088)">
        <path d="M789.742,467.898C790.873,468.744 801.169,473.383 812.94,473.862C821.156,474.196 829.748,471.734 837.891,467.799C839.97,466.795 828.571,468.327 816.8,468.57C803.609,468.843 789.742,467.898 789.742,467.898Z" style="fill:white;stroke:rgb(19,4,27);stroke-width:1px;"/>
    </g>
</svg>
