<?xml version="1.0" encoding="UTF-8" standalone="no"?>
<!DOCTYPE svg PUBLIC "-//W3C//DTD SVG 1.1//EN" "http://www.w3.org/Graphics/SVG/1.1/DTD/svg11.dtd">
<svg width="100%" height="100%" viewBox="0 0 93 93" version="1.1" xmlns="http://www.w3.org/2000/svg" xmlns:xlink="http://www.w3.org/1999/xlink" xml:space="preserve" style="fill-rule:evenodd;clip-rule:evenodd;stroke-linejoin:round;stroke-miterlimit:1.41421;">
    <g transform="matrix(-0.374606,0.466553,-0.47909,-0.384672,161.161,9.03311)">
        <path d="M163.031,107.919L162.945,107.807L162.86,107.694L162.776,107.58L162.694,107.464L162.613,107.347L162.534,107.228L162.456,107.108L162.38,106.987L162.305,106.865L162.232,106.742L162.161,106.617L162.091,106.491L162.023,106.364L161.956,106.236L161.892,106.107L161.828,105.977L161.767,105.845L161.707,105.713L161.649,105.579L161.593,105.445L161.539,105.309L161.486,105.172L161.435,105.035L161.386,104.896L161.339,104.757L161.294,104.616L161.25,104.475L161.208,104.332L161.168,104.189L161.13,104.045L161.094,103.9L161.06,103.755L161.027,103.608L160.997,103.461L160.968,103.313L160.942,103.164L160.917,103.014L160.894,102.864L160.873,102.713L160.854,102.561L160.836,102.408L160.821,102.255L160.808,102.102L160.796,101.947L160.787,101.792L160.779,101.636L160.773,101.48L160.77,101.323L160.769,101.237L160.768,101.165L160.768,101.007L160.771,100.849L160.775,100.689L160.781,100.529L160.789,100.386L160.79,100.37L161.782,98.245L163.917,97.369L163.95,97.369L166.05,98.281L167.024,100.422L167.03,100.546L167.037,100.636L167.045,100.725L167.054,100.812L167.064,100.897L167.069,100.936L167.074,100.982L167.086,101.065L167.098,101.147L167.111,101.227L167.125,101.306L167.14,101.384L167.156,101.461L167.172,101.536L167.189,101.61L167.207,101.683L167.226,101.754L167.245,101.824L167.265,101.893L167.286,101.961L167.307,102.028L167.329,102.094L167.351,102.158L167.374,102.221L167.398,102.283L167.422,102.344L167.447,102.404L167.472,102.463L167.498,102.521L167.525,102.578L167.551,102.633L167.579,102.688L167.606,102.742L167.635,102.794L167.663,102.846L167.692,102.897L167.722,102.947L167.752,102.996L167.782,103.044L167.823,103.111L167.802,103.072L167.844,103.138L167.886,103.202L167.864,103.164L167.907,103.228L167.951,103.291L167.927,103.252L167.972,103.315L168.017,103.376L167.992,103.338L168.038,103.398L168.084,103.458L168.059,103.421L168.105,103.479L168.153,103.537L168.126,103.5L168.174,103.557L168.223,103.613L168.195,103.577L168.245,103.632L168.295,103.686L168.266,103.651L168.316,103.704L168.367,103.757L168.337,103.722L168.389,103.774L168.441,103.825L168.411,103.791L168.463,103.841L168.517,103.89L168.485,103.857L168.539,103.906L168.593,103.953L168.561,103.921L168.616,103.968L168.671,104.014L168.638,103.983L168.694,104.028L168.75,104.072L168.716,104.042L168.773,104.086L168.831,104.128L168.796,104.099L168.845,104.134L168.936,104.194L169.055,104.272L168.982,104.219L169.104,104.294L169.226,104.366L169.152,104.317L169.276,104.385L169.403,104.451L169.326,104.406L169.454,104.468L169.583,104.528L169.505,104.487L169.636,104.543L169.729,104.577L169.823,104.609L169.918,104.639L170.014,104.666L170.111,104.692L170.209,104.715L170.308,104.736L170.407,104.755L170.507,104.772L170.608,104.786L170.709,104.799L170.811,104.809L170.914,104.816L171.016,104.822L171.119,104.825L171.222,104.825L171.326,104.824L171.429,104.82L171.532,104.814L171.635,104.805L171.738,104.795L171.841,104.782L171.943,104.766L172.045,104.749L172.146,104.729L172.247,104.707L172.347,104.682L172.446,104.656L172.545,104.627L172.642,104.596L172.738,104.563L172.834,104.528L172.928,104.49L173.021,104.451L173.113,104.409L173.204,104.366L173.293,104.32L173.381,104.273L173.468,104.223L173.553,104.172L173.637,104.119L173.719,104.063L173.8,104.006L173.879,103.947L173.957,103.886L174.034,103.823L174.108,103.758L174.221,103.661L174.162,103.706L174.218,103.657L174.253,103.622L174.289,103.587L174.323,103.551L174.358,103.515L174.392,103.478L174.426,103.441L174.459,103.403L174.492,103.365L174.524,103.326L174.557,103.287L174.588,103.247L174.62,103.207L174.651,103.166L174.682,103.124L174.712,103.082L174.742,103.039L174.771,102.996L174.8,102.952L174.829,102.907L174.857,102.862L174.885,102.816L174.913,102.769L174.94,102.722L174.967,102.674L174.993,102.625L175.019,102.576L175.045,102.526L175.07,102.475L175.095,102.423L175.119,102.371L175.143,102.318L175.166,102.264L175.189,102.209L175.212,102.154L175.234,102.097L175.256,102.04L175.277,101.982L175.298,101.923L175.318,101.863L175.338,101.802L175.357,101.74L175.376,101.677L175.394,101.613L175.412,101.548L175.429,101.483L175.446,101.416L175.462,101.348L175.477,101.279L175.492,101.209L175.506,101.138L175.52,101.066L175.532,100.993L175.545,100.919L175.556,100.843L175.567,100.767L175.577,100.689L175.587,100.61L175.595,100.53L175.603,100.449L175.611,100.366L175.617,100.283L175.622,100.198L175.627,100.111L175.631,100.024L175.634,99.935L175.636,99.845L175.637,99.754L175.637,99.662L175.637,99.568L175.635,99.473L175.632,99.376L175.628,99.278L175.624,99.18L175.613,98.952L175.6,98.727L175.585,98.506L175.567,98.287L175.547,98.071L175.525,97.859L175.501,97.649L175.474,97.443L175.445,97.239L175.415,97.039L175.382,96.841L175.347,96.646L175.311,96.454L175.272,96.265L175.231,96.079L175.189,95.896L175.145,95.716L175.099,95.539L175.052,95.364L175.003,95.193L174.952,95.024L174.9,94.857L174.846,94.694L174.79,94.533L174.733,94.375L174.675,94.22L174.615,94.068L174.554,93.918L174.492,93.77L174.428,93.625L174.363,93.483L174.297,93.344L174.23,93.206L174.161,93.072L174.092,92.94L174.021,92.81L173.949,92.682L173.876,92.557L173.802,92.435L173.727,92.314L173.651,92.196L173.574,92.08L173.497,91.967L173.418,91.855L173.338,91.746L173.258,91.638L173.176,91.533L173.094,91.43L173.011,91.329L172.927,91.23L172.843,91.133L172.757,91.038L172.671,90.945L172.584,90.853L172.497,90.764L172.408,90.676L172.319,90.59L172.229,90.506L172.139,90.424L172.059,90.354L172.047,90.343L171.956,90.264L171.864,90.186L171.771,90.11L171.677,90.036L171.583,89.963L171.488,89.892L171.392,89.822L171.296,89.754L171.198,89.688L171.101,89.623L171.002,89.559L170.903,89.497L170.803,89.437L170.702,89.378L170.601,89.32L170.499,89.264L170.397,89.209L170.293,89.156L170.19,89.104L170.085,89.054L169.98,89.005L169.874,88.957L169.767,88.911L169.66,88.866L169.552,88.823L169.444,88.781L169.334,88.741L169.225,88.701L169.114,88.664L169.003,88.627L168.892,88.592L168.779,88.558L168.667,88.526L168.553,88.495L168.439,88.466L168.325,88.438L168.21,88.411L168.094,88.386L167.978,88.362L167.861,88.339L167.744,88.318L167.626,88.298L167.508,88.28L167.389,88.263L167.27,88.247L167.151,88.233L167.031,88.221L166.91,88.209L166.79,88.199L166.668,88.191L166.547,88.184L166.425,88.178L166.303,88.174L166.18,88.172L166.058,88.17L165.934,88.17L165.811,88.172L165.687,88.175L165.564,88.18L165.44,88.186L165.315,88.193L165.191,88.202L165.067,88.212L164.942,88.224L164.817,88.237L164.692,88.252L164.567,88.268L164.443,88.286L164.318,88.305L164.193,88.325L164.068,88.347L163.943,88.371L163.818,88.396L163.693,88.422L163.568,88.45L163.444,88.479L163.319,88.51L163.195,88.542L163.071,88.576L162.947,88.611L162.823,88.647L162.7,88.685L162.577,88.725L162.454,88.766L162.331,88.808L162.209,88.852L162.087,88.897L161.965,88.944L161.844,88.992L161.723,89.042L161.603,89.093L161.483,89.145L161.363,89.199L161.244,89.254L161.125,89.311L161.007,89.369L160.89,89.429L160.772,89.49L160.656,89.552L160.54,89.616L160.425,89.681L160.31,89.748L160.196,89.816L160.082,89.885L159.969,89.956L159.857,90.028L159.746,90.102L159.635,90.177L159.525,90.253L159.416,90.331L159.307,90.41L159.199,90.49L159.092,90.572L158.986,90.656L158.88,90.74L158.775,90.826L158.671,90.914L158.568,91.002L158.466,91.093L158.365,91.184L158.264,91.277L158.165,91.372L158.066,91.467L157.968,91.564L157.871,91.663L157.775,91.763L157.68,91.864L157.586,91.967L157.492,92.071L157.4,92.177L157.309,92.284L157.219,92.392L157.129,92.502L157.041,92.613L156.954,92.726L156.868,92.84L156.782,92.956L156.698,93.073L156.615,93.191L156.533,93.311L156.452,93.433L156.373,93.556L156.294,93.681L156.216,93.807L156.14,93.934L156.064,94.064L155.99,94.194L155.917,94.327L155.845,94.461L155.775,94.596L155.705,94.734L155.637,94.872L155.57,95.013L155.505,95.155L155.44,95.299L155.377,95.444L155.315,95.591L155.255,95.74L155.196,95.891L155.195,95.892L155.136,96.043L155.077,96.196L155.02,96.351L154.965,96.508L154.91,96.667L154.857,96.828L154.806,96.991L154.756,97.155L154.707,97.322L154.66,97.49L154.615,97.661L154.571,97.833L154.529,98.008L154.488,98.184L154.449,98.363L154.412,98.543L154.376,98.726L154.342,98.911L154.31,99.097L154.28,99.286L154.251,99.477L154.224,99.671L154.199,99.866L154.176,100.063L154.155,100.263L154.136,100.465L154.118,100.669L154.103,100.876L154.09,101.084L154.079,101.295L154.07,101.509L154.063,101.724L154.058,101.942L154.056,102.162L154.056,102.384L154.058,102.609L154.062,102.834L154.071,103.179L154.084,103.517L154.101,103.85L154.121,104.179L154.145,104.503L154.173,104.823L154.204,105.138L154.238,105.448L154.276,105.755L154.317,106.056L154.362,106.353L154.409,106.646L154.46,106.934L154.513,107.218L154.57,107.498L154.629,107.773L154.691,108.044L154.757,108.311L154.824,108.574L154.895,108.832L154.968,109.086L155.043,109.336L155.121,109.582L155.201,109.824L155.284,110.062L155.369,110.296L155.456,110.526L155.546,110.753L155.637,110.975L155.731,111.194L155.827,111.409L155.924,111.62L156.024,111.827L156.126,112.031L156.229,112.232L156.335,112.429L156.398,112.543L156.437,112.625L156.535,112.82L156.635,113.013L156.737,113.202L156.84,113.388L156.946,113.572L157.053,113.753L157.162,113.93L157.273,114.105L157.386,114.278L157.5,114.447L157.617,114.614L157.735,114.778L157.854,114.94L157.976,115.099L158.099,115.256L158.224,115.41L158.35,115.561L158.479,115.711L158.609,115.858L158.74,116.002L158.873,116.144L159.008,116.284L159.145,116.422L159.283,116.557L159.423,116.691L159.564,116.822L159.707,116.95L159.852,117.077L159.999,117.202L160.147,117.324L160.296,117.444L160.448,117.562L160.6,117.678L160.755,117.792L160.911,117.904L161.069,118.014L161.228,118.122L161.389,118.228L161.552,118.332L161.716,118.433L161.882,118.533L162.049,118.63L162.218,118.726L162.389,118.819L162.561,118.911L162.734,119L162.909,119.087L163.086,119.173L163.264,119.256L163.444,119.337L163.625,119.416L163.807,119.493L163.991,119.568L164.176,119.64L164.363,119.711L164.551,119.78L164.741,119.846L164.931,119.91L165.123,119.972L165.317,120.032L165.511,120.09L165.707,120.145L165.904,120.199L166.103,120.25L166.302,120.299L166.503,120.345L166.704,120.39L166.907,120.432L167.111,120.472L167.315,120.51L167.521,120.545L167.728,120.579L167.935,120.61L168.144,120.638L168.353,120.664L168.563,120.688L168.774,120.71L168.986,120.73L169.198,120.747L169.411,120.761L169.625,120.774L169.839,120.784L170.054,120.791L170.27,120.797L170.485,120.8L170.702,120.8L170.918,120.798L171.136,120.794L171.353,120.788L171.571,120.779L171.789,120.767L172.007,120.754L172.226,120.738L172.444,120.719L172.663,120.698L172.882,120.675L173.101,120.649L173.319,120.621L173.538,120.591L173.757,120.558L173.976,120.522L174.194,120.485L174.412,120.445L174.63,120.402L174.848,120.357L175.066,120.31L175.283,120.26L175.5,120.208L175.716,120.154L175.932,120.097L176.147,120.038L176.362,119.977L176.577,119.913L176.79,119.846L177.003,119.778L177.216,119.707L177.428,119.634L177.639,119.558L177.849,119.48L178.059,119.4L178.267,119.317L178.475,119.232L178.682,119.145L178.888,119.055L179.093,118.963L179.297,118.869L179.5,118.773L179.702,118.674L179.903,118.573L180.103,118.469L180.302,118.364L180.499,118.256L180.696,118.146L180.891,118.033L181.085,117.919L181.277,117.802L181.469,117.683L181.659,117.561L181.847,117.438L182.035,117.312L182.221,117.184L182.405,117.053L182.588,116.921L182.77,116.786L182.95,116.649L183.129,116.51L183.306,116.368L183.481,116.224L183.655,116.079L183.828,115.93L183.915,115.853L183.998,115.78L184.168,115.627L184.335,115.473L184.501,115.315L184.665,115.156L184.828,114.995L184.988,114.831L185.147,114.665L185.305,114.496L185.46,114.326L185.614,114.153L185.765,113.977L185.916,113.8L186.064,113.62L186.21,113.438L186.354,113.253L186.497,113.066L186.637,112.877L186.776,112.685L186.913,112.491L187.048,112.295L187.18,112.096L187.311,111.894L187.439,111.69L187.566,111.484L187.691,111.275L187.813,111.063L187.933,110.849L188.051,110.633L188.167,110.414L188.281,110.192L188.392,109.967L188.501,109.74L188.608,109.51L188.713,109.277L188.815,109.042L188.915,108.804L189.012,108.563L189.107,108.319L189.2,108.072L189.29,107.823L189.377,107.57L189.462,107.314L189.545,107.056L189.624,106.795L189.701,106.53L189.775,106.262L189.847,105.992L189.916,105.718L189.981,105.441L190.044,105.161L190.104,104.878L190.161,104.591L190.215,104.302L190.266,104.009L190.314,103.712L190.358,103.413L190.4,103.11L190.438,102.803L190.473,102.494L190.504,102.181L190.532,101.864L190.557,101.544L190.578,101.221L190.595,100.894L190.609,100.563L190.619,100.23L190.625,99.892L190.628,99.541L190.628,99.295L190.626,99.04L190.623,98.787L190.618,98.535L190.612,98.284L190.604,98.035L190.595,97.787L190.585,97.54L190.573,97.295L190.559,97.051L190.544,96.808L190.528,96.566L190.511,96.326L190.492,96.087L190.473,95.869L190.472,95.85L190.45,95.614L190.427,95.379L190.403,95.145L190.377,94.913L190.35,94.682L190.322,94.452L190.292,94.224L190.261,93.997L190.229,93.771L190.195,93.546L190.161,93.323L190.125,93.101L190.087,92.88L190.049,92.66L190.009,92.442L189.968,92.225L189.926,92.009L189.883,91.795L189.838,91.581L189.792,91.369L189.745,91.158L189.697,90.949L189.648,90.74L189.598,90.533L189.546,90.327L189.493,90.123L189.439,89.919L189.384,89.717L189.328,89.516L189.271,89.316L189.213,89.117L189.153,88.919L189.093,88.723L189.031,88.528L188.968,88.334L188.905,88.141L188.84,87.949L188.774,87.758L188.707,87.569L188.639,87.381L188.57,87.194L188.5,87.008L188.429,86.823L188.357,86.639L188.284,86.456L188.21,86.275L188.135,86.094L188.059,85.915L187.982,85.737L187.904,85.56L187.825,85.384L187.745,85.209L187.664,85.035L187.583,84.863L187.5,84.691L187.416,84.52L187.332,84.351L187.246,84.182L187.159,84.015L187.072,83.848L186.984,83.683L186.894,83.519L186.804,83.356L186.713,83.193L186.621,83.032L186.528,82.872L186.435,82.713L186.34,82.555L186.245,82.398L186.148,82.242L186.051,82.087L185.953,81.932L185.854,81.779L185.754,81.627L185.653,81.476L185.552,81.326L185.45,81.177L185.373,81.067L185.347,81.028L185.246,80.879L185.144,80.731L185.041,80.584L184.937,80.437L184.832,80.292L184.727,80.147L184.62,80.004L184.513,79.861L184.405,79.72L184.296,79.579L184.187,79.439L184.076,79.3L183.965,79.162L183.852,79.024L183.739,78.888L183.626,78.753L183.511,78.618L183.395,78.485L183.279,78.352L183.162,78.22L183.044,78.089L182.925,77.959L182.806,77.83L182.686,77.702L182.564,77.574L182.443,77.448L182.32,77.322L182.196,77.197L182.072,77.073L181.947,76.95L181.821,76.828L181.695,76.707L181.568,76.587L181.439,76.467L181.311,76.348L181.181,76.231L181.051,76.114L180.92,75.998L180.788,75.882L180.655,75.768L180.522,75.655L180.388,75.542L180.253,75.43L180.117,75.32L179.981,75.21L179.844,75.101L179.706,74.992L179.568,74.885L179.429,74.778L179.289,74.673L179.148,74.568L179.007,74.464L178.865,74.361L178.722,74.259L178.579,74.158L178.435,74.057L178.29,73.958L178.145,73.859L177.999,73.761L177.852,73.664L177.704,73.568L177.556,73.473L177.408,73.379L177.258,73.285L177.108,73.193L176.957,73.101L176.806,73.01L176.654,72.92L176.501,72.831L176.348,72.743L176.194,72.656L176.04,72.569L175.884,72.484L175.729,72.399L175.572,72.316L175.415,72.233L175.258,72.151L175.1,72.07L174.941,71.99L174.782,71.91L174.622,71.832L174.461,71.755L174.3,71.678L174.138,71.602L173.976,71.527L173.813,71.454L173.65,71.381L173.486,71.309L173.322,71.237L173.157,71.167L172.992,71.098L172.826,71.029L172.659,70.962L172.492,70.895L172.325,70.83L172.157,70.765L171.988,70.701L171.819,70.638L171.65,70.576L171.48,70.515L171.309,70.455L171.138,70.396L170.967,70.337L170.795,70.28L170.623,70.223L170.45,70.168L170.277,70.113L170.103,70.06L169.929,70.007L169.755,69.955L169.58,69.904L169.405,69.854L169.229,69.805L169.053,69.757L168.877,69.71L168.7,69.664L168.523,69.619L168.345,69.575L168.167,69.531L167.989,69.489L167.82,69.45L167.452,69.368L167.092,69.292L166.731,69.219L166.369,69.151L166.006,69.086L165.641,69.026L165.276,68.969L164.909,68.916L164.542,68.867L164.173,68.821L163.804,68.78L163.434,68.742L163.063,68.709L162.692,68.679L162.319,68.654L161.947,68.632L161.573,68.614L161.199,68.6L160.825,68.59L160.451,68.584L160.076,68.582L159.701,68.584L159.325,68.589L158.95,68.599L158.574,68.613L158.199,68.631L157.823,68.652L157.447,68.678L157.072,68.708L156.697,68.741L156.322,68.779L155.947,68.82L155.572,68.866L155.198,68.915L154.825,68.969L154.452,69.026L154.079,69.087L153.707,69.153L153.336,69.222L152.965,69.295L152.596,69.373L152.227,69.454L151.849,69.541L151.675,69.583L151.491,69.628L151.308,69.674L151.125,69.722L150.942,69.77L150.76,69.819L150.578,69.869L150.396,69.92L150.214,69.972L150.033,70.025L149.852,70.079L149.671,70.134L149.49,70.19L149.31,70.247L149.13,70.305L148.951,70.364L148.772,70.424L148.593,70.484L148.414,70.546L148.236,70.609L148.058,70.673L147.881,70.738L147.704,70.804L147.527,70.871L147.351,70.939L147.175,71.007L146.999,71.077L146.824,71.148L146.649,71.22L146.475,71.292L146.301,71.366L146.127,71.441L145.954,71.517L145.781,71.593L145.609,71.671L145.437,71.749L145.266,71.829L145.095,71.91L144.924,71.991L144.754,72.074L144.585,72.157L144.416,72.242L144.264,72.319L144.247,72.327L144.079,72.413L143.911,72.501L143.743,72.589L143.577,72.678L143.41,72.768L143.244,72.859L143.079,72.951L142.914,73.044L142.75,73.137L142.586,73.232L142.422,73.328L142.26,73.425L142.097,73.523L141.936,73.622L141.774,73.722L141.614,73.823L141.454,73.924L141.294,74.027L141.135,74.131L140.977,74.236L140.819,74.342L140.662,74.448L140.505,74.556L140.349,74.665L140.194,74.775L140.039,74.885L139.885,74.997L139.731,75.11L139.578,75.223L139.426,75.338L139.274,75.454L139.123,75.57L138.972,75.688L138.822,75.807L138.673,75.926L138.525,76.047L138.377,76.169L138.229,76.291L138.083,76.415L137.937,76.539L137.792,76.665L137.647,76.792L137.503,76.919L137.36,77.048L137.217,77.178L137.075,77.309L136.934,77.44L136.794,77.573L136.654,77.707L136.515,77.841L136.376,77.977L136.239,78.114L136.102,78.252L135.966,78.391L135.83,78.531L135.695,78.671L135.561,78.813L135.428,78.956L135.296,79.1L135.164,79.245L135.033,79.391L134.903,79.538L134.773,79.687L134.644,79.836L134.517,79.986L134.389,80.137L134.263,80.29L134.137,80.443L134.013,80.598L133.889,80.753L133.766,80.91L133.643,81.067L133.522,81.226L133.401,81.386L133.281,81.547L133.162,81.709L133.044,81.872L132.926,82.036L132.81,82.201L132.694,82.367L132.579,82.535L132.465,82.703L132.352,82.873L132.24,83.043L132.128,83.215L132.018,83.388L131.908,83.562L131.799,83.737L131.691,83.913L131.584,84.091L131.478,84.269L131.373,84.449L131.269,84.629L131.166,84.811L131.063,84.994L130.962,85.178L130.862,85.364L130.762,85.55L130.663,85.738L130.566,85.927L130.469,86.117L130.373,86.308L130.279,86.5L130.185,86.693L130.092,86.888L130,87.084L129.91,87.281L129.82,87.479L129.731,87.678L129.644,87.879L129.557,88.08L129.471,88.283L129.387,88.487L129.303,88.693L129.221,88.899L129.139,89.107L129.059,89.316L128.98,89.526L128.901,89.737L128.824,89.95L128.748,90.164L128.674,90.379L128.6,90.595L128.527,90.813L128.456,91.032L128.385,91.252L128.316,91.473L128.248,91.696L128.181,91.92L128.115,92.145L128.051,92.371L127.987,92.599L127.925,92.828L127.864,93.058L127.804,93.29L127.745,93.522L127.688,93.756L127.632,93.992L127.577,94.228L127.523,94.466L127.471,94.705L127.42,94.946L127.37,95.188L127.321,95.431L127.274,95.675L127.228,95.921L127.183,96.168L127.14,96.417L127.098,96.666L127.057,96.917L127.018,97.17L126.98,97.423L126.943,97.678L126.908,97.935L126.874,98.192L126.841,98.451L126.81,98.712L126.78,98.974L126.752,99.237L126.725,99.501L126.699,99.767L126.675,100.034L126.652,100.302L126.631,100.572L126.611,100.843L126.593,101.116L126.576,101.39L126.561,101.665L126.547,101.942L126.531,102.324L126.516,102.705L126.503,103.084L126.493,103.461L126.485,103.836L126.479,104.21L126.475,104.582L126.473,104.952L126.474,105.32L126.476,105.686L126.48,106.051L126.487,106.414L126.495,106.775L126.506,107.135L126.519,107.492L126.533,107.848L126.55,108.203L126.568,108.555L126.589,108.906L126.611,109.255L126.636,109.602L126.662,109.947L126.691,110.291L126.721,110.633L126.753,110.973L126.787,111.311L126.824,111.648L126.861,111.983L126.901,112.316L126.943,112.648L126.986,112.978L127.032,113.306L127.079,113.632L127.128,113.957L127.179,114.28L127.231,114.601L127.286,114.921L127.342,115.239L127.4,115.555L127.46,115.869L127.521,116.182L127.584,116.493L127.649,116.802L127.716,117.11L127.784,117.416L127.855,117.721L127.926,118.023L128,118.324L128.075,118.624L128.152,118.921L128.23,119.217L128.31,119.512L128.392,119.805L128.475,120.096L128.56,120.385L128.647,120.673L128.735,120.959L128.825,121.244L128.916,121.527L129.009,121.808L129.103,122.088L129.199,122.366L129.297,122.642L129.396,122.917L129.496,123.19L129.599,123.462L129.702,123.732L129.807,124L129.914,124.267L130.022,124.532L130.131,124.796L130.242,125.058L130.355,125.319L130.469,125.578L130.584,125.835L130.589,125.846L130.701,126.091L130.819,126.346L130.938,126.599L131.058,126.85L131.181,127.1L131.304,127.348L131.429,127.595L131.555,127.84L131.683,128.084L131.812,128.326L131.942,128.566L132.074,128.805L132.207,129.043L132.341,129.279L132.477,129.514L132.614,129.747L132.752,129.978L132.892,130.209L133.033,130.437L133.175,130.664L133.319,130.89L133.463,131.114L133.609,131.337L133.757,131.558L133.905,131.778L134.055,131.996L134.206,132.213L134.358,132.428L134.512,132.642L134.667,132.854L134.823,133.065L134.98,133.275L135.138,133.483L135.298,133.689L135.459,133.895L135.621,134.098L135.784,134.301L135.948,134.501L136.114,134.701L136.28,134.899L136.448,135.095L136.617,135.29L136.787,135.484L136.958,135.676L137.131,135.867L137.304,136.057L137.479,136.245L137.654,136.431L137.831,136.617L138.009,136.8L138.188,136.983L138.368,137.164L138.549,137.343L138.732,137.521L138.915,137.698L139.099,137.874L139.285,138.048L139.471,138.22L139.659,138.391L139.847,138.561L140.037,138.729L140.228,138.896L140.419,139.062L140.612,139.226L140.806,139.389L141,139.55L141.196,139.71L141.393,139.869L141.59,140.026L141.789,140.182L141.988,140.337L142.189,140.49L142.391,140.641L142.593,140.792L142.796,140.941L143.001,141.088L143.206,141.234L143.412,141.379L143.619,141.522L143.827,141.664L144.036,141.805L144.246,141.944L144.457,142.082L144.669,142.219L144.881,142.354L145.094,142.487L145.309,142.62L145.524,142.751L145.74,142.88L145.957,143.008L146.174,143.135L146.393,143.261L146.612,143.385L146.832,143.507L147.053,143.628L147.275,143.748L147.498,143.867L147.721,143.984L147.945,144.099L148.17,144.214L148.396,144.327L148.622,144.438L148.849,144.548L149.077,144.657L149.306,144.764L149.535,144.87L149.765,144.975L149.996,145.078L150.228,145.18L150.46,145.28L150.693,145.379L150.927,145.477L151.161,145.573L151.396,145.668L151.632,145.761L151.868,145.853L152.105,145.944L152.343,146.033L152.581,146.121L152.82,146.207L153.06,146.292L153.3,146.376L153.54,146.458L153.782,146.539L154.024,146.618L154.266,146.696L154.509,146.773L154.753,146.848L154.997,146.922L155.242,146.994L155.487,147.065L155.733,147.135L155.979,147.203L156.226,147.269L156.473,147.335L156.721,147.398L156.969,147.461L157.218,147.522L157.468,147.582L157.717,147.64L157.968,147.697L158.218,147.752L158.469,147.806L158.721,147.859L158.973,147.91L159.225,147.959L159.478,148.008L159.731,148.055L159.984,148.1L160.238,148.144L160.493,148.187L160.747,148.228L161.002,148.267L161.258,148.306L161.513,148.343L161.769,148.378L162.026,148.412L162.282,148.445L162.539,148.476L162.796,148.506L163.054,148.534L163.312,148.561L163.57,148.586L163.828,148.611L164.087,148.633L164.345,148.654L164.604,148.674L164.864,148.692L165.123,148.709L165.383,148.725L165.642,148.739L165.903,148.751L166.163,148.762L166.423,148.772L166.684,148.78L166.944,148.787L167.205,148.793L167.466,148.797L167.727,148.799L167.988,148.8L168.25,148.8L168.511,148.798L168.772,148.795L169.034,148.79L169.295,148.784L169.557,148.777L169.819,148.768L170.081,148.758L170.342,148.746L170.604,148.732L170.866,148.718L171.128,148.702L171.39,148.684L171.651,148.665L171.913,148.645L172.175,148.623L172.437,148.599L172.698,148.575L172.96,148.549L173.222,148.521L173.483,148.492L173.744,148.461L174.006,148.429L174.267,148.396L174.528,148.361L174.789,148.325L175.05,148.287L175.31,148.248L175.571,148.208L175.831,148.166L176.092,148.122L176.352,148.077L176.611,148.031L176.871,147.983L177.131,147.934L177.39,147.884L177.649,147.832L177.908,147.778L178.166,147.723L178.425,147.667L178.683,147.609L178.94,147.55L179.198,147.489L179.455,147.427L179.712,147.364L179.969,147.299L180.225,147.232L180.481,147.165L180.737,147.095L180.992,147.025L181.247,146.953L181.502,146.879L181.756,146.804L182.01,146.728L182.264,146.65L182.517,146.571L182.77,146.49L183.022,146.408L183.274,146.324L183.526,146.239L183.777,146.153L184.027,146.065L184.278,145.976L184.527,145.885L184.777,145.793L185.026,145.7L185.274,145.605L185.522,145.508L185.769,145.411L186.016,145.311L186.262,145.211L186.508,145.109L186.754,145.005L186.998,144.9L187.242,144.794L187.486,144.686L187.729,144.577L187.972,144.467L188.214,144.355L188.455,144.241L188.696,144.126L188.936,144.01L189.175,143.892L189.414,143.773L189.652,143.653L189.89,143.531L190.127,143.407L190.363,143.283L190.599,143.156L190.834,143.029L191.068,142.9L191.302,142.769L191.535,142.638L191.767,142.504L191.998,142.37L192.229,142.233L192.459,142.096L192.688,141.957L192.917,141.817L193.144,141.675L193.371,141.532L193.598,141.387L193.823,141.241L194.048,141.094L194.272,140.945L194.495,140.794L194.717,140.643L194.938,140.49L195.159,140.335L195.379,140.179L195.598,140.022L195.816,139.863L196.033,139.703L196.249,139.541L196.465,139.378L196.679,139.214L196.893,139.048L197.106,138.881L197.318,138.712L197.529,138.542L197.739,138.371L197.948,138.198L198.156,138.024L198.363,137.848L198.57,137.671L198.775,137.492L198.979,137.312L199.183,137.131L199.385,136.948L199.587,136.764L199.787,136.578L199.986,136.391L200.185,136.202L200.382,136.012L200.578,135.821L200.774,135.628L200.968,135.434L201.161,135.238L201.353,135.041L201.544,134.843L201.734,134.643L201.923,134.442L202.111,134.239L202.298,134.035L202.483,133.829L202.668,133.622L202.851,133.413L203.033,133.203L203.214,132.992L203.394,132.779L203.573,132.565L203.75,132.349L203.927,132.132L204.102,131.914L204.276,131.694L204.449,131.472L204.621,131.25L204.791,131.025L204.96,130.8L205.128,130.572L205.295,130.344L205.461,130.114L205.625,129.882L205.788,129.649L205.949,129.415L206.11,129.179L206.269,128.941L206.427,128.703L206.583,128.462L206.739,128.22L206.893,127.977L207.045,127.733L207.197,127.487L207.346,127.239L207.495,126.99L207.642,126.739L207.788,126.487L207.933,126.234L208.076,125.979L208.217,125.723L208.358,125.465L208.496,125.205L208.634,124.944L208.77,124.682L208.904,124.418L209.038,124.153L209.169,123.886L209.3,123.618L209.428,123.348L209.556,123.077L209.681,122.804L209.806,122.53L209.928,122.254L210.05,121.977L210.169,121.698L210.287,121.418L210.404,121.136L210.519,120.853L210.633,120.568L210.745,120.282L210.855,119.994L210.964,119.705L211.071,119.414L211.176,119.122L211.28,118.828L211.383,118.532L211.483,118.235L211.582,117.937L211.68,117.637L211.776,117.336L211.87,117.033L211.962,116.728L212.053,116.422L212.141,116.114L212.229,115.805L212.314,115.495L212.398,115.182L212.48,114.869L212.56,114.553L212.639,114.237L212.716,113.918L212.79,113.598L212.864,113.277L212.935,112.954L213.005,112.629L213.072,112.303L213.138,111.976L213.202,111.647L213.264,111.316L213.325,110.984L213.383,110.65L213.44,110.314L213.494,109.977L213.547,109.639L213.598,109.299L213.647,108.957L213.694,108.614L213.739,108.269L213.782,107.923L213.823,107.575L213.862,107.226L213.9,106.874L213.935,106.522L213.968,106.168L213.999,105.812L214.028,105.455L214.055,105.096L214.08,104.735L214.103,104.373L214.124,104.01L214.143,103.645L214.16,103.278L214.174,102.91L214.177,102.843L214.187,102.54L214.198,102.168L214.206,101.795L214.212,101.412L214.213,101.396L215.146,99.265L217.305,98.368L217.322,98.368L217.339,98.368L219.504,99.254L220.448,101.379L220.457,101.796L220.463,102.204L220.466,102.61L220.467,102.942L220.468,103.015L220.466,103.418L220.463,103.821L220.457,104.222L220.449,104.622L220.438,105.02L220.425,105.417L220.41,105.813L220.392,106.207L220.372,106.6L220.35,106.992L220.325,107.383L220.299,107.772L220.269,108.16L220.238,108.546L220.204,108.931L220.169,109.315L220.13,109.698L220.09,110.079L220.047,110.459L220.003,110.837L219.956,111.214L219.906,111.59L219.855,111.965L219.801,112.338L219.745,112.709L219.687,113.08L219.627,113.449L219.565,113.817L219.5,114.183L219.433,114.548L219.364,114.911L219.293,115.274L219.22,115.635L219.145,115.994L219.068,116.352L218.988,116.709L218.907,117.064L218.823,117.418L218.738,117.771L218.65,118.122L218.56,118.472L218.468,118.82L218.374,119.167L218.278,119.513L218.18,119.857L218.08,120.2L217.978,120.541L217.874,120.881L217.768,121.219L217.661,121.557L217.551,121.892L217.439,122.227L217.325,122.559L217.209,122.891L217.091,123.221L216.972,123.549L216.85,123.877L216.726,124.202L216.601,124.527L216.474,124.849L216.344,125.171L216.213,125.491L216.08,125.809L215.945,126.126L215.809,126.442L215.67,126.756L215.53,127.069L215.388,127.38L215.244,127.689L215.098,127.998L214.95,128.304L214.801,128.61L214.65,128.913L214.497,129.216L214.342,129.517L214.185,129.816L214.027,130.114L213.867,130.41L213.706,130.705L213.542,130.998L213.377,131.29L213.21,131.581L213.042,131.87L212.872,132.157L212.7,132.443L212.527,132.727L212.351,133.01L212.175,133.291L211.996,133.571L211.816,133.849L211.635,134.126L211.452,134.401L211.267,134.675L211.08,134.947L210.893,135.217L210.703,135.487L210.512,135.754L210.32,136.02L210.125,136.284L209.93,136.547L209.733,136.809L209.534,137.068L209.334,137.327L209.132,137.583L208.929,137.838L208.725,138.092L208.519,138.344L208.311,138.594L208.103,138.843L207.892,139.091L207.681,139.336L207.468,139.58L207.253,139.823L207.037,140.064L206.82,140.303L206.602,140.541L206.382,140.777L206.161,141.012L205.938,141.245L205.714,141.477L205.489,141.707L205.263,141.935L205.035,142.162L204.806,142.387L204.576,142.61L204.344,142.832L204.111,143.053L203.877,143.272L203.642,143.489L203.405,143.704L203.168,143.918L202.929,144.131L202.689,144.341L202.448,144.55L202.205,144.758L201.962,144.964L201.717,145.168L201.471,145.371L201.224,145.572L200.976,145.771L200.727,145.969L200.477,146.165L200.225,146.36L199.973,146.553L199.719,146.744L199.465,146.934L199.209,147.122L198.952,147.309L198.695,147.494L198.436,147.677L198.176,147.858L197.916,148.038L197.654,148.217L197.392,148.393L197.128,148.569L196.863,148.742L196.598,148.914L196.331,149.084L196.064,149.253L195.796,149.42L195.527,149.585L195.257,149.749L194.986,149.911L194.714,150.071L194.441,150.23L194.167,150.387L193.893,150.542L193.618,150.696L193.342,150.848L193.065,150.999L192.787,151.148L192.509,151.295L192.229,151.44L191.949,151.584L191.668,151.727L191.387,151.867L191.104,152.006L190.821,152.144L190.538,152.279L190.253,152.413L189.968,152.546L189.682,152.676L189.395,152.806L189.108,152.933L188.82,153.059L188.531,153.183L188.242,153.305L187.952,153.426L187.661,153.545L187.37,153.663L187.078,153.779L186.785,153.893L186.492,154.005L186.199,154.116L185.904,154.225L185.609,154.333L185.314,154.439L185.018,154.543L184.722,154.645L184.425,154.746L184.127,154.845L183.829,154.943L183.53,155.039L183.231,155.133L182.932,155.225L182.632,155.316L182.331,155.405L182.03,155.493L181.729,155.579L181.427,155.663L181.124,155.745L180.822,155.826L180.518,155.905L180.215,155.983L179.911,156.059L179.606,156.133L179.302,156.205L178.997,156.276L178.691,156.345L178.385,156.412L178.079,156.478L177.773,156.542L177.466,156.604L177.159,156.665L176.851,156.724L176.543,156.781L176.235,156.837L175.927,156.891L175.618,156.943L175.309,156.994L175,157.042L174.691,157.09L174.381,157.135L174.071,157.179L173.761,157.221L173.451,157.261L173.141,157.3L172.83,157.337L172.519,157.372L172.208,157.406L171.897,157.437L171.586,157.468L171.274,157.496L170.962,157.523L170.651,157.548L170.339,157.571L170.027,157.593L169.715,157.613L169.403,157.631L169.09,157.647L168.778,157.662L168.465,157.675L168.153,157.686L167.84,157.696L167.528,157.704L167.215,157.71L166.903,157.715L166.59,157.717L166.277,157.718L165.965,157.718L165.652,157.715L165.34,157.711L165.027,157.705L164.714,157.698L164.402,157.688L164.089,157.677L163.777,157.664L163.465,157.65L163.153,157.633L162.841,157.615L162.529,157.596L162.217,157.574L161.905,157.551L161.593,157.526L161.282,157.499L160.97,157.47L160.659,157.44L160.348,157.408L160.037,157.374L159.727,157.339L159.416,157.302L159.106,157.263L158.796,157.222L158.486,157.179L158.177,157.135L157.867,157.089L157.558,157.041L157.249,156.991L156.941,156.94L156.632,156.887L156.324,156.832L156.017,156.775L155.709,156.716L155.402,156.656L155.096,156.594L154.789,156.53L154.483,156.465L154.177,156.397L153.872,156.328L153.567,156.257L153.262,156.184L152.958,156.11L152.654,156.033L152.351,155.955L152.048,155.875L151.746,155.793L151.443,155.71L151.142,155.624L150.841,155.537L150.54,155.448L150.24,155.357L149.94,155.265L149.641,155.17L149.342,155.074L149.044,154.976L148.746,154.876L148.449,154.774L148.152,154.671L147.856,154.566L147.561,154.458L147.266,154.349L146.972,154.239L146.678,154.126L146.385,154.011L146.093,153.895L145.801,153.777L145.51,153.657L145.219,153.535L144.929,153.411L144.64,153.286L144.352,153.158L144.064,153.029L143.777,152.898L143.491,152.765L143.205,152.63L142.92,152.494L142.636,152.355L142.353,152.215L142.07,152.073L141.788,151.929L141.507,151.783L141.227,151.635L140.948,151.485L140.669,151.334L140.392,151.18L140.115,151.025L139.839,150.868L139.564,150.709L139.289,150.548L139.016,150.385L138.743,150.221L138.472,150.054L138.201,149.886L137.932,149.716L137.663,149.544L137.395,149.37L137.129,149.194L136.863,149.016L136.598,148.836L136.334,148.655L136.071,148.471L135.81,148.286L135.549,148.099L135.289,147.91L135.031,147.719L134.773,147.526L134.517,147.331L134.262,147.135L134.008,146.936L133.755,146.736L133.503,146.534L133.252,146.33L133.002,146.124L132.754,145.916L132.507,145.706L132.261,145.494L132.016,145.281L131.772,145.065L131.53,144.848L131.289,144.628L131.049,144.407L130.81,144.184L130.573,143.959L130.337,143.733L130.102,143.504L129.869,143.273L129.637,143.041L129.406,142.807L129.177,142.571L128.949,142.332L128.722,142.093L128.497,141.851L128.273,141.607L128.05,141.361L127.829,141.114L127.61,140.865L127.392,140.613L127.175,140.36L126.96,140.105L126.746,139.849L126.534,139.59L126.323,139.329L126.114,139.067L125.906,138.803L125.7,138.537L125.495,138.269L125.292,137.999L125.091,137.727L124.891,137.454L124.693,137.178L124.496,136.901L124.301,136.622L124.107,136.341L123.916,136.058L123.725,135.774L123.537,135.487L123.35,135.199L123.165,134.909L122.982,134.617L122.8,134.323L122.62,134.028L122.441,133.73L122.265,133.431L122.09,133.13L121.917,132.827L121.746,132.523L121.576,132.216L121.408,131.908L121.243,131.598L121.078,131.286L120.916,130.972L120.756,130.657L120.603,130.353L120.597,130.34L120.441,130.021L120.286,129.7L120.133,129.377L119.982,129.052L119.834,128.726L119.686,128.398L119.541,128.068L119.398,127.737L119.257,127.403L119.118,127.068L118.98,126.731L118.845,126.393L118.711,126.052L118.58,125.71L118.45,125.366L118.323,125.021L118.197,124.673L118.074,124.324L117.952,123.973L117.833,123.621L117.715,123.266L117.6,122.91L117.487,122.553L117.375,122.193L117.266,121.832L117.159,121.469L117.054,121.104L116.951,120.738L116.85,120.37L116.751,120L116.655,119.629L116.56,119.256L116.468,118.881L116.378,118.504L116.29,118.126L116.204,117.746L116.12,117.364L116.039,116.981L115.959,116.596L115.882,116.209L115.807,115.821L115.734,115.431L115.664,115.039L115.595,114.646L115.529,114.25L115.465,113.854L115.404,113.455L115.344,113.055L115.287,112.653L115.232,112.25L115.18,111.845L115.13,111.438L115.082,111.03L115.036,110.619L114.992,110.208L114.951,109.794L114.913,109.379L114.876,108.962L114.842,108.544L114.81,108.124L114.781,107.702L114.754,107.279L114.729,106.854L114.706,106.427L114.686,105.999L114.669,105.569L114.654,105.137L114.641,104.704L114.63,104.269L114.622,103.833L114.617,103.395L114.613,102.955L114.613,102.513L114.614,102.07L114.618,101.625L114.624,101.285L114.631,100.945L114.64,100.606L114.651,100.268L114.663,99.932L114.678,99.596L114.695,99.262L114.713,98.928L114.733,98.596L114.756,98.264L114.78,97.934L114.806,97.605L114.833,97.277L114.863,96.949L114.894,96.623L114.928,96.298L114.963,95.974L115,95.651L115.039,95.329L115.079,95.009L115.122,94.689L115.166,94.37L115.212,94.053L115.26,93.736L115.31,93.421L115.361,93.107L115.415,92.794L115.47,92.481L115.527,92.17L115.585,91.861L115.646,91.552L115.708,91.244L115.772,90.937L115.838,90.632L115.905,90.328L115.974,90.024L116.045,89.722L116.118,89.421L116.192,89.121L116.268,88.823L116.346,88.525L116.425,88.228L116.507,87.933L116.59,87.639L116.674,87.346L116.76,87.054L116.848,86.763L116.938,86.474L117.029,86.185L117.122,85.898L117.217,85.612L117.313,85.327L117.411,85.043L117.51,84.761L117.612,84.479L117.714,84.199L117.819,83.92L117.925,83.642L118.032,83.365L118.142,83.09L118.252,82.816L118.365,82.543L118.479,82.271L118.594,82L118.711,81.731L118.83,81.463L118.95,81.196L119.072,80.93L119.195,80.665L119.32,80.402L119.446,80.14L119.574,79.879L119.703,79.62L119.834,79.361L119.966,79.104L120.1,78.848L120.235,78.594L120.372,78.341L120.51,78.088L120.649,77.838L120.79,77.588L120.933,77.34L121.077,77.093L121.222,76.847L121.369,76.603L121.517,76.36L121.666,76.118L121.817,75.878L121.969,75.638L122.123,75.4L122.278,75.164L122.434,74.928L122.592,74.694L122.751,74.462L122.911,74.23L123.072,74L123.235,73.772L123.4,73.544L123.565,73.318L123.732,73.093L123.9,72.87L124.069,72.648L124.24,72.427L124.412,72.207L124.585,71.989L124.759,71.773L124.934,71.557L125.111,71.343L125.289,71.13L125.468,70.919L125.648,70.709L125.83,70.5L126.012,70.293L126.196,70.087L126.381,69.882L126.567,69.679L126.754,69.477L126.943,69.277L127.132,69.078L127.323,68.88L127.514,68.683L127.707,68.488L127.901,68.295L128.096,68.102L128.291,67.912L128.488,67.722L128.686,67.534L128.885,67.347L129.085,67.162L129.286,66.978L129.488,66.795L129.691,66.614L129.895,66.434L130.1,66.256L130.306,66.078L130.513,65.903L130.721,65.728L130.93,65.556L131.14,65.384L131.35,65.214L131.562,65.045L131.774,64.878L131.988,64.712L132.202,64.547L132.417,64.384L132.633,64.222L132.85,64.062L133.067,63.903L133.286,63.746L133.505,63.589L133.726,63.435L133.947,63.281L134.168,63.129L134.391,62.979L134.614,62.83L134.839,62.682L135.063,62.535L135.289,62.39L135.516,62.247L135.743,62.105L135.971,61.964L136.199,61.825L136.429,61.687L136.659,61.55L136.89,61.415L137.121,61.281L137.354,61.149L137.586,61.018L137.82,60.888L137.844,60.875L138.054,60.76L138.289,60.634L138.525,60.509L138.762,60.385L138.999,60.263L139.236,60.143L139.474,60.023L139.713,59.905L139.953,59.789L140.193,59.674L140.433,59.56L140.674,59.447L140.916,59.336L141.158,59.227L141.401,59.119L141.644,59.012L141.888,58.907L142.133,58.803L142.377,58.7L142.623,58.599L142.869,58.499L143.115,58.401L143.362,58.304L143.609,58.208L143.857,58.114L144.105,58.021L144.354,57.93L144.603,57.84L144.853,57.751L145.103,57.664L145.353,57.578L145.604,57.493L145.856,57.41L146.107,57.329L146.359,57.248L146.612,57.169L146.865,57.092L147.118,57.016L147.372,56.941L147.625,56.868L147.88,56.796L148.134,56.725L148.398,56.654L148.9,56.522L149.412,56.393L149.926,56.27L150.44,56.152L150.956,56.04L151.473,55.934L151.99,55.833L152.509,55.737L153.028,55.647L153.549,55.563L154.07,55.484L154.591,55.411L155.114,55.343L155.637,55.281L156.16,55.224L156.684,55.173L157.208,55.127L157.733,55.087L158.258,55.052L158.784,55.023L159.309,55L159.835,54.982L160.361,54.969L160.887,54.962L161.413,54.961L161.939,54.965L162.465,54.975L162.991,54.99L163.516,55.011L164.041,55.037L164.566,55.069L165.091,55.107L165.615,55.15L166.139,55.199L166.662,55.253L167.184,55.313L167.706,55.379L168.228,55.45L168.748,55.527L169.268,55.609L169.787,55.698L170.304,55.791L170.812,55.889L171.079,55.943L171.337,55.996L171.595,56.051L171.852,56.107L172.109,56.164L172.366,56.223L172.622,56.284L172.878,56.345L173.134,56.409L173.389,56.473L173.645,56.539L173.899,56.607L174.154,56.676L174.408,56.746L174.662,56.818L174.915,56.891L175.168,56.966L175.421,57.042L175.673,57.12L175.925,57.199L176.176,57.279L176.427,57.361L176.677,57.444L176.928,57.529L177.177,57.615L177.427,57.703L177.675,57.792L177.924,57.883L178.172,57.975L178.419,58.068L178.666,58.163L178.912,58.26L179.158,58.357L179.404,58.457L179.649,58.557L179.893,58.66L180.137,58.763L180.38,58.869L180.623,58.975L180.865,59.083L181.107,59.193L181.348,59.304L181.588,59.416L181.828,59.53L182.067,59.646L182.306,59.763L182.544,59.881L182.781,60.001L183.018,60.122L183.254,60.245L183.49,60.37L183.724,60.495L183.959,60.623L184.192,60.751L184.425,60.882L184.657,61.013L184.888,61.147L185.119,61.281L185.349,61.418L185.578,61.555L185.806,61.694L186.034,61.835L186.261,61.977L186.487,62.121L186.712,62.266L186.937,62.413L187.16,62.561L187.383,62.71L187.605,62.861L187.827,63.014L188.047,63.168L188.266,63.324L188.485,63.481L188.703,63.639L188.92,63.799L189.136,63.961L189.351,64.124L189.565,64.288L189.779,64.455L189.991,64.622L190.202,64.791L190.413,64.962L190.622,65.134L190.831,65.307L191.038,65.482L191.245,65.659L191.45,65.837L191.655,66.016L191.858,66.197L192.061,66.379L192.262,66.563L192.462,66.749L192.662,66.936L192.86,67.124L193.057,67.314L193.253,67.505L193.448,67.698L193.642,67.892L193.834,68.088L194.026,68.286L194.216,68.484L194.405,68.684L194.593,68.886L194.78,69.089L194.966,69.294L195.15,69.5L195.334,69.708L195.515,69.917L195.696,70.127L195.876,70.339L196.054,70.552L196.231,70.767L196.407,70.983L196.581,71.201L196.754,71.42L196.926,71.641L197.097,71.863L197.266,72.086L197.434,72.311L197.6,72.537L197.765,72.765L197.808,72.824L197.927,72.996L198.086,73.228L198.244,73.462L198.401,73.697L198.556,73.934L198.71,74.171L198.862,74.411L199.013,74.651L199.163,74.893L199.31,75.137L199.457,75.381L199.602,75.627L199.745,75.874L199.887,76.123L200.027,76.373L200.166,76.624L200.303,76.877L200.439,77.131L200.573,77.386L200.706,77.643L200.837,77.901L200.966,78.16L201.094,78.42L201.22,78.682L201.345,78.945L201.468,79.209L201.589,79.475L201.709,79.742L201.827,80.01L201.943,80.279L202.058,80.55L202.171,80.822L202.282,81.095L202.392,81.369L202.5,81.644L202.606,81.921L202.711,82.199L202.814,82.478L202.915,82.759L203.014,83.04L203.112,83.323L203.208,83.607L203.302,83.893L203.395,84.179L203.486,84.467L203.575,84.755L203.662,85.045L203.747,85.336L203.831,85.629L203.913,85.922L203.993,86.217L204.071,86.512L204.148,86.809L204.222,87.107L204.295,87.407L204.366,87.707L204.435,88.008L204.503,88.311L204.568,88.615L204.632,88.919L204.694,89.225L204.754,89.532L204.812,89.84L204.868,90.15L204.923,90.46L204.975,90.771L205.026,91.084L205.075,91.397L205.121,91.712L205.166,92.028L205.21,92.344L205.251,92.662L205.29,92.981L205.327,93.301L205.363,93.622L205.397,93.944L205.428,94.268L205.458,94.592L205.486,94.917L205.511,95.243L205.535,95.571L205.557,95.899L205.577,96.228L205.595,96.559L205.612,96.89L205.626,97.223L205.638,97.556L205.648,97.891L205.656,98.226L205.663,98.563L205.667,98.9L205.669,99.239L205.67,99.588L205.666,100.08L205.657,100.58L205.642,101.077L205.621,101.571L205.595,102.062L205.563,102.551L205.526,103.038L205.483,103.521L205.435,104.002L205.381,104.48L205.322,104.956L205.257,105.428L205.187,105.898L205.112,106.365L205.032,106.829L204.946,107.291L204.854,107.749L204.758,108.205L204.656,108.657L204.55,109.107L204.438,109.553L204.321,109.996L204.199,110.437L204.071,110.874L203.939,111.308L203.802,111.739L203.66,112.166L203.513,112.591L203.361,113.012L203.204,113.43L203.043,113.844L202.877,114.255L202.706,114.663L202.53,115.067L202.35,115.468L202.165,115.865L201.976,116.259L201.782,116.649L201.584,117.036L201.382,117.419L201.175,117.798L200.964,118.174L200.749,118.546L200.529,118.915L200.306,119.279L200.078,119.64L199.846,119.997L199.611,120.35L199.371,120.7L199.128,121.045L198.881,121.387L198.63,121.725L198.375,122.059L198.117,122.388L197.856,122.714L197.59,123.036L197.322,123.354L197.05,123.668L196.774,123.978L196.495,124.284L196.214,124.586L195.928,124.884L195.64,125.178L195.349,125.468L195.055,125.753L194.757,126.035L194.457,126.312L194.154,126.586L194.006,126.716L193.849,126.855L193.54,127.12L193.229,127.381L192.915,127.638L192.599,127.89L192.28,128.139L191.959,128.383L191.635,128.623L191.31,128.859L190.981,129.091L190.651,129.319L190.318,129.543L189.983,129.762L189.646,129.977L189.307,130.188L188.966,130.395L188.624,130.598L188.279,130.797L187.932,130.991L187.584,131.181L187.234,131.367L186.882,131.549L186.528,131.727L186.173,131.901L185.817,132.07L185.458,132.236L185.099,132.397L184.738,132.554L184.375,132.707L184.011,132.855L183.646,133L183.28,133.14L182.912,133.277L182.544,133.409L182.174,133.537L181.803,133.661L181.431,133.78L181.058,133.896L180.684,134.007L180.309,134.115L179.933,134.218L179.556,134.317L179.179,134.412L178.801,134.503L178.422,134.589L178.042,134.672L177.662,134.75L177.281,134.824L176.899,134.894L176.517,134.96L176.135,135.022L175.751,135.079L175.368,135.133L174.984,135.182L174.6,135.227L174.215,135.268L173.83,135.305L173.445,135.338L173.06,135.366L172.674,135.39L172.289,135.41L171.903,135.426L171.517,135.438L171.131,135.445L170.746,135.449L170.36,135.448L169.974,135.442L169.589,135.433L169.203,135.419L168.818,135.401L168.433,135.379L168.048,135.352L167.664,135.321L167.28,135.286L166.896,135.247L166.513,135.203L166.13,135.155L165.748,135.102L165.367,135.045L164.986,134.984L164.605,134.919L164.225,134.849L163.846,134.774L163.468,134.695L163.091,134.612L162.714,134.524L162.339,134.432L161.964,134.336L161.59,134.234L161.218,134.129L160.846,134.019L160.476,133.904L160.107,133.785L159.913,133.719L159.739,133.661L159.372,133.533L159.007,133.4L158.643,133.262L158.281,133.12L157.92,132.973L157.561,132.822L157.203,132.666L156.848,132.505L156.493,132.339L156.141,132.169L155.791,131.995L155.442,131.815L155.096,131.631L154.751,131.442L154.409,131.249L154.069,131.05L153.731,130.847L153.395,130.64L153.062,130.427L152.732,130.21L152.403,129.988L152.078,129.761L151.755,129.53L151.435,129.294L151.118,129.053L150.803,128.807L150.492,128.557L150.183,128.302L149.878,128.042L149.576,127.778L149.277,127.509L148.981,127.235L148.689,126.957L148.4,126.674L148.115,126.386L147.883,126.145L147.833,126.094L147.555,125.797L147.281,125.496L147.011,125.19L146.744,124.88L146.482,124.565L146.223,124.246L145.969,123.922L145.718,123.595L145.472,123.262L145.23,122.926L144.993,122.585L144.76,122.24L144.531,121.891L144.307,121.538L144.088,121.18L143.873,120.819L143.663,120.453L143.457,120.084L143.257,119.71L143.061,119.333L142.87,118.951L142.794,118.793L142.691,118.563L142.521,118.17L142.357,117.773L142.198,117.372L142.044,116.968L141.896,116.561L141.753,116.151L141.615,115.737L141.483,115.32L141.356,114.9L141.234,114.477L141.118,114.051L141.008,113.622L140.903,113.19L140.804,112.754L140.71,112.316L140.622,111.876L140.539,111.432L140.462,110.985L140.391,110.536L140.325,110.084L140.265,109.629L140.21,109.172L140.162,108.711L140.119,108.249L140.081,107.783L140.05,107.315L140.024,106.844L140.004,106.371L139.989,105.895L139.98,105.417L139.977,104.936L139.98,104.453L139.989,103.967L140.003,103.479L140.023,102.988L140.049,102.497L140.071,102.133L140.097,101.774L140.127,101.416L140.16,101.06L140.196,100.706L140.236,100.355L140.28,100.005L140.327,99.657L140.377,99.311L140.431,98.968L140.488,98.627L140.549,98.287L140.613,97.95L140.681,97.615L140.751,97.282L140.826,96.951L140.903,96.623L140.984,96.296L141.068,95.972L141.155,95.65L141.246,95.33L141.339,95.013L141.436,94.698L141.537,94.385L141.64,94.075L141.746,93.766L141.856,93.461L141.969,93.157L142.084,92.856L142.203,92.557L142.325,92.261L142.45,91.968L142.578,91.676L142.708,91.387L142.842,91.101L142.978,90.817L143.117,90.539L143.118,90.536L143.262,90.258L143.409,89.983L143.559,89.711L143.711,89.441L143.866,89.174L144.024,88.909L144.185,88.647L144.348,88.388L144.513,88.132L144.682,87.878L144.852,87.628L145.025,87.38L145.201,87.134L145.379,86.892L145.559,86.652L145.742,86.415L145.926,86.181L146.114,85.95L146.303,85.722L146.495,85.497L146.688,85.274L146.884,85.054L147.082,84.838L147.282,84.624L147.484,84.413L147.688,84.205L147.894,84L148.102,83.798L148.311,83.599L148.523,83.403L148.736,83.21L148.951,83.02L149.168,82.833L149.386,82.649L149.607,82.468L149.828,82.29L150.051,82.114L150.276,81.942L150.503,81.773L150.73,81.607L150.96,81.444L151.19,81.284L151.422,81.127L151.656,80.973L151.89,80.822L152.126,80.674L152.363,80.529L152.602,80.387L152.841,80.248L153.082,80.112L153.323,79.979L153.566,79.849L153.81,79.723L154.055,79.599L154.3,79.478L154.547,79.36L154.795,79.246L155.043,79.134L155.292,79.025L155.543,78.919L155.793,78.817L156.045,78.717L156.297,78.62L156.55,78.527L156.804,78.436L157.058,78.349L157.313,78.264L157.569,78.182L157.825,78.104L158.082,78.028L158.339,77.956L158.596,77.886L158.854,77.819L159.112,77.756L159.371,77.695L159.63,77.637L159.89,77.583L160.149,77.531L160.409,77.482L160.67,77.437L160.93,77.394L161.191,77.354L161.451,77.318L161.712,77.284L161.973,77.253L162.234,77.226L162.496,77.201L162.757,77.179L163.018,77.16L163.279,77.144L163.54,77.132L163.801,77.122L164.062,77.115L164.323,77.111L164.584,77.111L164.844,77.113L165.105,77.118L165.365,77.126L165.624,77.138L165.884,77.152L166.143,77.169L166.402,77.189L166.66,77.213L166.918,77.239L167.176,77.269L167.433,77.301L167.689,77.336L167.945,77.375L168.201,77.416L168.456,77.461L168.71,77.509L168.964,77.559L169.217,77.613L169.469,77.67L169.721,77.73L169.972,77.793L170.222,77.859L170.471,77.928L170.719,78L170.967,78.076L171.213,78.154L171.458,78.236L171.703,78.32L171.946,78.408L172.189,78.499L172.43,78.593L172.67,78.69L172.909,78.79L173.146,78.893L173.382,79L173.617,79.109L173.851,79.222L174.083,79.338L174.314,79.456L174.543,79.578L174.771,79.704L174.997,79.832L175.222,79.963L175.445,80.097L175.666,80.235L175.886,80.375L176.104,80.519L176.32,80.666L176.534,80.816L176.746,80.969L176.956,81.125L177.164,81.284L177.37,81.446L177.575,81.611L177.777,81.779L177.976,81.95L178.174,82.124L178.369,82.301L178.562,82.481L178.753,82.664L178.941,82.849L179.127,83.038L179.31,83.23L179.491,83.424L179.513,83.449L179.668,83.622L179.843,83.822L180.016,84.026L180.185,84.232L180.352,84.441L180.516,84.652L180.678,84.866L180.836,85.083L180.992,85.303L181.144,85.525L181.294,85.75L181.441,85.977L181.584,86.207L181.725,86.439L181.862,86.674L181.997,86.911L182.128,87.15L182.256,87.392L182.381,87.636L182.502,87.883L182.621,88.132L182.736,88.383L182.848,88.636L182.956,88.892L183.061,89.149L183.163,89.409L183.261,89.671L183.356,89.935L183.448,90.201L183.536,90.469L183.621,90.739L183.702,91.011L183.78,91.285L183.854,91.561L183.925,91.839L183.992,92.119L184.056,92.401L184.116,92.684L184.173,92.969L184.226,93.257L184.276,93.545L184.322,93.836L184.365,94.128L184.404,94.422L184.439,94.718L184.471,95.016L184.499,95.315L184.524,95.616L184.545,95.918L184.563,96.223L184.576,96.528L184.587,96.836L184.593,97.145L184.596,97.456L184.596,97.768L184.591,98.082L184.584,98.397L184.572,98.714L184.557,99.033L184.538,99.352L184.526,99.539L184.512,99.724L184.496,99.908L184.479,100.091L184.459,100.273L184.438,100.454L184.415,100.634L184.39,100.813L184.363,100.991L184.335,101.169L184.304,101.345L184.272,101.52L184.238,101.694L184.202,101.867L184.165,102.038L184.126,102.209L184.084,102.379L184.042,102.547L183.997,102.715L183.95,102.881L183.902,103.047L183.852,103.211L183.8,103.374L183.747,103.536L183.692,103.696L183.635,103.856L183.576,104.014L183.516,104.171L183.454,104.327L183.39,104.481L183.325,104.634L183.258,104.786L183.189,104.937L183.119,105.087L183.047,105.235L182.973,105.381L182.898,105.527L182.821,105.671L182.743,105.814L182.663,105.955L182.582,106.095L182.499,106.233L182.414,106.37L182.328,106.506L182.241,106.64L182.152,106.773L182.062,106.904L181.97,107.034L181.877,107.162L181.783,107.289L181.687,107.414L181.59,107.537L181.491,107.66L181.391,107.78L181.29,107.899L181.188,108.016L181.084,108.132L180.98,108.246L180.874,108.359L180.767,108.47L180.658,108.579L180.549,108.687L180.439,108.793L180.327,108.897L180.215,109L180.101,109.101L179.986,109.2L179.871,109.298L179.754,109.394L179.637,109.489L179.518,109.581L179.399,109.672L179.279,109.762L179.148,109.857L178.914,110.02L178.667,110.183L178.416,110.34L178.163,110.49L177.908,110.633L177.65,110.769L177.39,110.899L177.127,111.022L176.863,111.138L176.597,111.248L176.33,111.351L176.061,111.447L175.791,111.537L175.52,111.62L175.247,111.697L174.974,111.767L174.7,111.831L174.425,111.888L174.15,111.939L173.875,111.984L173.599,112.023L173.323,112.055L173.047,112.081L172.77,112.1L172.494,112.114L172.219,112.121L171.943,112.122L171.668,112.117L171.394,112.106L171.12,112.089L170.847,112.066L170.575,112.037L170.304,112.001L170.034,111.96L169.765,111.913L169.497,111.859L169.231,111.8L168.966,111.734L168.702,111.663L168.441,111.585L168.181,111.501L167.923,111.412L167.667,111.316L167.414,111.214L167.163,111.106L166.914,110.992L166.667,110.872L166.424,110.746L166.183,110.614L165.946,110.476L165.711,110.332L165.48,110.182L165.253,110.026L165.029,109.863L164.809,109.695L164.593,109.521L164.39,109.348L164.277,109.249L164.174,109.155L164.072,109.06L163.971,108.963L163.871,108.865L163.773,108.766L163.676,108.665L163.58,108.562L163.485,108.459L163.392,108.354L163.3,108.247L163.209,108.139L163.119,108.03L163.031,107.919Z" style="fill:rgb(144,233,183);"/>
    </g>
</svg>
