<?xml version="1.0" encoding="UTF-8" standalone="no"?>
<!DOCTYPE svg PUBLIC "-//W3C//DTD SVG 1.1//EN" "http://www.w3.org/Graphics/SVG/1.1/DTD/svg11.dtd">
<svg width="100%" height="100%" viewBox="0 0 129 129" version="1.1" xmlns="http://www.w3.org/2000/svg" xmlns:xlink="http://www.w3.org/1999/xlink" xml:space="preserve" style="fill-rule:evenodd;clip-rule:evenodd;stroke-linecap:round;stroke-linejoin:round;stroke-miterlimit:1.5;">
    <g transform="matrix(1,0,0,1,-1201.16,-433.407)">
        <circle cx="1265.2" cy="497.446" r="61.038" style="fill:rgb(92,201,148);stroke:rgb(92,201,148);stroke-width:6px;"/>
    </g>
    <g transform="matrix(0.761795,0,0,1,-838.668,-275.172)">
        <path d="M1210.39,306.289C1210.39,301.939 1205.75,298.408 1200.04,298.408L1169.9,298.408C1164.19,298.408 1159.56,301.939 1159.56,306.289L1159.56,372.131C1159.56,376.481 1164.19,380.013 1169.9,380.013L1200.04,380.013C1205.75,380.013 1210.39,376.481 1210.39,372.131L1210.39,306.289Z" style="fill:white;stroke:rgb(92,201,148);stroke-width:6.75px;"/>
    </g>
    <g transform="matrix(0.571988,0,0,0.16493,-613.752,36.5717)">
        <path d="M1210.39,315.017C1210.39,305.85 1208.24,298.408 1205.6,298.408L1164.35,298.408C1161.7,298.408 1159.56,305.85 1159.56,315.017L1159.56,363.403C1159.56,372.57 1161.7,380.013 1164.35,380.013L1205.6,380.013C1208.24,380.013 1210.39,372.57 1210.39,363.403L1210.39,315.017Z" style="fill:rgb(92,201,148);"/>
    </g>
    <g transform="matrix(0.928685,0,0,0.928685,2.27658,1.24552)">
        <circle cx="54.078" cy="46.722" r="3.227" style="fill:rgb(92,201,148);"/>
    </g>
    <g transform="matrix(0.928685,0,0,0.928685,25.3579,1.24552)">
        <circle cx="54.078" cy="46.722" r="3.227" style="fill:rgb(92,201,148);"/>
    </g>
    <g transform="matrix(1.62986,0,0,1.7188,-1708.14,-589.819)">
        <path d="M1084.85,372.524C1084.8,375.756 1090.03,375.909 1089.96,372.44" style="fill:rgb(92,201,148);stroke:white;stroke-width:0.76px;"/>
    </g>
    <g transform="matrix(1,0,0,1.36484,-0.671776,-11.1843)">
        <path d="M70.692,26.317C70.692,25.711 70.02,25.219 69.193,25.219L60.227,25.219C59.4,25.219 58.729,25.711 58.729,26.317L58.729,28.513C58.729,29.119 59.4,29.611 60.227,29.611L69.193,29.611C70.02,29.611 70.692,29.119 70.692,28.513L70.692,26.317Z" style="fill:white;"/>
    </g>
</svg>
