<?xml version="1.0" encoding="UTF-8" standalone="no"?>
<!DOCTYPE svg PUBLIC "-//W3C//DTD SVG 1.1//EN" "http://www.w3.org/Graphics/SVG/1.1/DTD/svg11.dtd">
<svg width="100%" height="100%" viewBox="0 0 309 434" version="1.1" xmlns="http://www.w3.org/2000/svg" xmlns:xlink="http://www.w3.org/1999/xlink" xml:space="preserve" style="fill-rule:evenodd;clip-rule:evenodd;stroke-linejoin:round;stroke-miterlimit:1.41421;">
    <g transform="matrix(0.87814,0,0,0.87814,-649.86,-177.477)">
        <g transform="matrix(0.294544,0,0,0.294544,657.28,194.623)">
            <path d="M599.73,433.406C599.73,433.406 549.945,715.618 697.235,771.998C743.795,789.82 727.361,787.83 729.227,781.232C731.743,772.335 750.657,761.237 750.657,761.237C763.952,744.694 613.061,763.698 630.247,521.412C634.352,463.536 599.73,433.406 599.73,433.406Z" style="fill:rgb(151,136,86);"/>
        </g>
        <g transform="matrix(0.294544,0,0,0.294544,657.28,194.623)">
            <path d="M910.498,129.808C910.498,129.808 875.284,131.712 870.475,116.893C868.252,110.046 861.183,95.907 887.419,83.035C932.857,60.742 1068.98,52.456 1168.51,96.028C1250.82,132.058 1305.46,175.155 1338.56,222.471C1419.62,338.349 1584.38,666.718 1365.46,869.169C1264.74,962.312 1130.03,982.387 1130.03,982.387L1172.66,817.211L1327.13,728.343L1310.48,686.403L1279.96,609.555L1283.78,353.732L1194.45,194.882L1017.93,140.385L910.498,129.808" style="fill:rgb(151,136,86);"/>
        </g>
        <g transform="matrix(-0.337883,0,0,0.301547,1154.82,189.667)">
            <path d="M693.803,784.059C395.183,787.3 243.099,799.014 290.435,1712.08C291.059,1724.11 483.053,1712.08 483.053,1712.08C495.108,1713.33 477.588,1500.81 509.505,1228.54" style="fill:rgb(232,203,174);"/>
        </g>
        <g transform="matrix(0.294544,0,0,0.294544,657.28,194.623)">
            <path d="M719.497,788.81C719.497,788.81 779.313,716.525 790.669,642.395C802.024,568.264 1042,719.132 1042,719.132L1048.69,758.949L1096.8,936.226C1096.8,936.226 1032.49,1058.8 976.126,1081.89C900.941,1112.69 932.2,1084.27 839.044,1115.86C825.016,1120.62 807.915,1096.41 690.99,1019.51C647.1,990.643 652.687,854.765 719.497,788.81Z" style="fill:rgb(219,185,149);"/>
        </g>
        <g transform="matrix(0.294544,0,0,0.294544,657.28,194.623)">
            <path d="M732.432,529.867C732.432,529.867 807.727,745.274 955.129,758.319C1085.92,769.893 1195.14,619.154 1187.97,544.783C1180.8,470.411 1261.48,288.904 1098.55,218.446C935.609,147.989 698.913,145.013 732.432,529.867Z" style="fill:rgb(241,210,175);"/>
        </g>
        <g transform="matrix(0.294544,0,0,0.294544,657.28,194.623)">
            <path d="M939.831,180.753C944.513,180.763 949.194,180.881 953.87,181.11C967.05,181.755 980.184,183.247 993.197,185.419C1007.98,187.885 1022.61,191.23 1037.03,195.285C1052.43,199.615 1067.61,204.759 1082.5,210.596C1086.74,212.259 1090.96,213.978 1095.16,215.752C1097.56,216.766 1099.95,217.792 1102.32,218.862C1105.4,220.248 1108.44,221.701 1111.45,223.225C1118.51,226.802 1125.37,230.772 1131.95,235.18C1138.36,239.481 1144.5,244.201 1150.26,249.35C1154.25,252.916 1158.06,256.688 1161.65,260.656C1165.1,264.47 1168.35,268.466 1171.38,272.624C1175.44,278.195 1179.1,284.057 1182.33,290.146C1187.24,299.387 1191.15,309.139 1194.15,319.157C1196.85,328.169 1198.82,337.392 1200.2,346.697C1201.54,355.793 1202.31,364.969 1202.65,374.155C1203.09,385.826 1202.82,397.514 1202.1,409.167C1201.71,415.542 1201.18,421.907 1200.56,428.262C1199.78,436.15 1198.84,444.022 1197.83,451.882C1196.48,462.279 1194.99,472.656 1193.54,483.038C1193.3,484.753 1193.07,486.469 1192.83,488.185C1191.71,496.434 1190.64,504.692 1189.84,512.98C1189.41,517.336 1189.07,521.702 1188.86,526.074C1188.68,529.871 1188.6,533.674 1188.69,537.475C1188.73,539.148 1188.81,540.821 1188.93,542.491C1189,543.516 1189.1,544.538 1189.19,545.562C1189.21,545.861 1189.24,546.16 1189.26,546.458C1189.36,547.983 1189.43,549.509 1189.44,551.037C1189.51,556.442 1189.04,561.847 1188.21,567.185C1187.17,573.839 1185.58,580.399 1183.61,586.835C1182.23,591.356 1180.66,595.818 1178.93,600.218C1176.87,605.455 1174.59,610.604 1172.13,615.664C1169.45,621.184 1166.56,626.599 1163.48,631.907C1160.27,637.439 1156.86,642.854 1153.27,648.149C1147,657.404 1140.19,666.293 1132.91,674.773C1127.49,681.085 1121.81,687.171 1115.87,693.002C1111.28,697.514 1106.54,701.873 1101.64,706.063C1097.87,709.3 1094,712.436 1090.05,715.46C1087.28,717.579 1084.47,719.644 1081.61,721.65C1079.17,723.37 1076.69,725.047 1074.18,726.678C1057.12,737.782 1038.62,746.79 1019.09,752.641C1015.52,753.71 1011.93,754.672 1008.31,755.522C1004.19,756.488 1000.04,757.309 995.862,757.976C989.926,758.924 983.941,759.562 977.938,759.874C969.869,760.292 961.768,760.118 953.725,759.339C948.153,758.8 942.611,757.965 937.126,756.844C931.74,755.742 926.412,754.363 921.164,752.725C917.033,751.436 912.953,749.986 908.932,748.387C905.703,747.103 902.512,745.724 899.362,744.255C882.863,736.56 867.563,726.443 853.54,714.866C851.393,713.093 849.274,711.285 847.184,709.445C844.884,707.421 842.619,705.357 840.387,703.259C833.104,696.41 826.178,689.185 819.575,681.68C811.998,673.068 804.845,664.086 798.066,654.834C790.813,644.935 783.988,634.725 777.54,624.284C770.707,613.22 764.298,601.895 758.281,590.367C752.257,578.827 746.621,567.084 741.403,555.158C739.311,550.374 737.285,545.56 735.346,540.712C734.667,539.017 734,537.317 733.345,535.613C732.682,533.884 732.032,532.15 731.408,530.407L731.352,530.248L731.291,529.965C731.194,528.84 731.098,527.715 731.003,526.589C730.545,521.064 730.13,515.536 729.77,510.004C728.93,497.077 728.378,484.132 728.171,471.179C727.945,457.042 728.132,442.896 728.832,428.773C729.372,417.883 730.218,407.007 731.432,396.172C732.377,387.73 733.545,379.312 734.972,370.937C736.056,364.573 737.29,358.233 738.691,351.93C739.761,347.119 740.927,342.329 742.2,337.567C743.121,334.122 744.098,330.691 745.134,327.278C745.94,324.62 746.782,321.973 747.662,319.339C753.541,301.731 761.105,284.637 770.808,268.791C772.322,266.318 773.888,263.876 775.506,261.47C777.61,258.341 779.802,255.271 782.084,252.27C785.18,248.196 788.442,244.248 791.867,240.445C796.468,235.337 801.365,230.493 806.537,225.961C814.08,219.351 822.207,213.413 830.796,208.235C837.215,204.365 843.888,200.92 850.75,197.906C857.435,194.969 864.298,192.441 871.28,190.305C885.242,186.033 899.66,183.335 914.186,181.936C919.452,181.429 924.735,181.092 930.023,180.912C932.602,180.824 935.181,180.775 937.761,180.757C938.451,180.754 939.141,180.752 939.831,180.753ZM938.801,183.045C936.241,183.053 933.681,183.092 931.122,183.169C925.709,183.333 920.3,183.662 914.908,184.17C900.691,185.508 886.576,188.1 872.894,192.21C865.986,194.286 859.193,196.747 852.572,199.611C845.787,202.548 839.184,205.908 832.83,209.688C824.189,214.828 816.015,220.745 808.433,227.348C803.187,231.917 798.225,236.81 793.57,241.979C790.187,245.734 786.966,249.634 783.908,253.657C781.881,256.323 779.926,259.042 778.042,261.811C776.434,264.174 774.876,266.572 773.37,269.001C763.586,284.781 755.967,301.84 750.052,319.42C749.174,322.027 748.334,324.646 747.53,327.277C746.355,331.114 745.257,334.975 744.229,338.855C742.972,343.598 741.821,348.369 740.766,353.16C739.383,359.442 738.167,365.76 737.099,372.103C735.692,380.455 734.543,388.85 733.616,397.268C732.424,408.082 731.598,418.936 731.076,429.802C730.383,444.242 730.227,458.707 730.497,473.16C730.747,486.494 731.361,499.82 732.275,513.124C732.631,518.3 733.036,523.473 733.477,528.642L733.561,529.623C733.985,530.823 734.432,532.016 734.882,533.207C735.579,535.052 736.293,536.892 737.021,538.725C738.975,543.651 741.021,548.541 743.137,553.4C745.893,559.73 748.77,566.007 751.759,572.231C754.704,578.363 757.758,584.444 760.92,590.468C766.735,601.546 772.915,612.434 779.49,623.08C786.187,633.925 793.294,644.52 800.866,654.773C807.322,663.514 814.117,672.007 821.296,680.166C828.216,688.032 835.493,695.588 843.168,702.721C845.393,704.79 847.652,706.822 849.945,708.816C852.028,710.627 854.14,712.405 856.28,714.148C870.225,725.509 885.435,735.404 901.825,742.867C904.949,744.289 908.112,745.622 911.313,746.859C915.557,748.499 919.865,749.971 924.228,751.261C929.437,752.801 934.723,754.081 940.062,755.084C945.205,756.051 950.397,756.761 955.611,757.21C963.488,757.889 971.415,757.982 979.307,757.501C991.344,756.768 1003.29,754.695 1014.9,751.466C1025.06,748.642 1034.96,744.939 1044.53,740.517C1053.7,736.282 1062.56,731.387 1071.07,725.96C1081.27,719.457 1090.97,712.19 1100.15,704.322C1105,700.167 1109.71,695.843 1114.27,691.367C1120.33,685.413 1126.12,679.191 1131.64,672.732C1138.84,664.308 1145.57,655.48 1151.76,646.291C1158.22,636.711 1164.1,626.732 1169.23,616.38C1171.54,611.724 1173.69,606.991 1175.67,602.183C1177.46,597.811 1179.11,593.376 1180.57,588.881C1182.64,582.491 1184.35,575.973 1185.52,569.356C1186.46,564.071 1187.06,558.715 1187.15,553.346C1187.18,551.395 1187.14,549.443 1187.03,547.495C1187,546.914 1186.95,546.333 1186.91,545.753C1186.86,545.17 1186.8,544.587 1186.75,544.004C1186.72,543.705 1186.7,543.406 1186.67,543.107C1186.59,541.881 1186.51,540.655 1186.46,539.426C1186.31,535.811 1186.34,532.189 1186.46,528.573C1186.61,524.242 1186.91,519.916 1187.29,515.6C1187.71,510.913 1188.22,506.235 1188.79,501.564C1189.49,495.708 1190.28,489.862 1191.09,484.019C1191.95,477.816 1192.83,471.615 1193.69,465.412C1194.39,460.339 1195.08,455.265 1195.73,450.185C1197.49,436.509 1198.97,422.791 1199.82,409.027C1200.44,398.927 1200.72,388.802 1200.5,378.684C1200.19,364.914 1198.95,351.14 1196.32,337.611C1195.53,333.531 1194.6,329.478 1193.55,325.457C1192.99,323.331 1192.38,321.216 1191.75,319.114C1188.74,309.248 1184.84,299.651 1179.96,290.564C1175.89,282.994 1171.15,275.787 1165.79,269.067C1162.76,265.257 1159.52,261.604 1156.12,258.118C1152.18,254.081 1148,250.27 1143.64,246.692C1135.42,239.956 1126.54,234.05 1117.25,228.896C1112.96,226.516 1108.59,224.296 1104.15,222.221C1102.61,221.503 1101.06,220.801 1099.51,220.117C1097.77,219.351 1096.02,218.604 1094.27,217.863C1090.41,216.233 1086.54,214.65 1082.64,213.114C1067.51,207.145 1052.08,201.896 1036.41,197.491C1022.07,193.458 1007.52,190.132 992.82,187.679C979.894,185.522 966.849,184.04 953.758,183.399C949.118,183.172 944.474,183.055 939.828,183.044C939.486,183.044 939.144,183.044 938.801,183.045Z" style="fill:none;"/>
        </g>
        <g transform="matrix(0.294544,0,0,0.294544,657.28,194.623)">
            <path d="M899.158,222.954C899.158,222.954 696.646,295.252 739.322,529.867C747.976,577.44 766.38,603.791 775.875,619.478C783.637,632.304 786.274,636.096 790.669,642.372C793.844,646.906 789.511,662.484 778.071,689.219C773.556,699.77 767.163,711.078 760.855,725.616C758.635,730.733 746.223,749.064 744.314,752.815C743.391,754.627 704.712,734.457 672.631,683.264C626.363,609.433 583.871,486.431 604.524,400.886C642.709,242.721 717.903,101.779 862.786,91.501C913.574,87.897 929.49,131.387 933.271,152.634C938.213,180.404 917.007,207.138 899.158,222.954Z" style="fill:rgb(151,136,86);"/>
        </g>
        <g transform="matrix(0.294544,0,0,0.294544,657.28,194.623)">
            <path d="M916.245,222.437C879.019,232.764 708.199,300.452 739.322,529.867C745.823,577.781 766.38,603.791 775.875,619.478C783.637,632.304 786.274,636.096 790.669,642.372C793.844,646.906 788.175,667.09 776.734,693.825C772.219,704.377 627.768,551.505 662.741,406.645C700.927,248.481 754.275,153.202 899.158,142.923C949.945,139.32 929.49,131.387 933.271,152.634C938.213,180.404 934.094,206.621 916.245,222.437Z" style="fill:rgb(121,107,62);"/>
        </g>
        <g transform="matrix(0.294544,0,0,0.294544,657.28,194.623)">
            <path d="M1074.19,761.237C1074.19,761.237 1177.94,1024.63 1160.85,1136.2C1143.77,1247.78 1179.16,1083.22 1017.93,1091.25C833.604,1100.43 1089.81,1026.78 1042,784.059" style="fill:rgb(193,156,37);"/>
        </g>
        <g transform="matrix(0.294544,0,0,0.294544,657.28,194.623)">
            <path d="M630.275,457.379C628.709,331.114 763.818,105.762 875.664,133.346C882.955,135.144 897.681,100.809 957.365,100.846C1140.36,100.962 1281.44,161.873 1341.9,326.396C1389.79,456.671 1506.14,844.272 1201.72,844.691C1081.68,844.856 982.94,899.074 962.177,968.184C953.626,996.646 979.341,1016.45 980.048,1018.98C985.168,1037.33 931.081,1005.68 933.999,958.357C936.105,924.214 968.624,882.324 1002.36,830.048C1006.89,823.022 1186.39,692.734 1188.44,670.242L1232.19,478.963L1219.44,326.35L1168.51,230.523L1033.5,181.898L899.158,181.898C899.158,181.898 891.067,174.137 879.769,172.233C854.07,167.903 835.258,179.134 828.771,181.898C736.887,221.045 558.47,440.144 778.884,686.387C780.129,687.777 759.324,728.343 759.324,728.343C759.324,728.343 632.077,602.761 630.275,457.379Z" style="fill:rgb(133,118,68);"/>
        </g>
        <g transform="matrix(0.294544,0,0,0.294544,658.291,195.226)">
            <path d="M693.803,784.059C495.963,780.102 234.183,816.865 283.649,1709.43C283.903,1714.01 489.062,1711.27 489.062,1711.27C506.305,1712.09 444.641,1414.49 489.062,1154.03" style="fill:rgb(232,203,174);"/>
        </g>
        <g transform="matrix(0.294544,0,0,0.294544,657.28,194.623)">
            <path d="M729.227,778.725C729.227,778.725 710.235,784.002 697.235,784.059C683.822,784.119 676.187,779.316 662.741,803.321C636.263,850.591 505.461,995.468 491.913,1027.5C478.365,1059.53 513.875,975.921 598.909,995.62C683.942,1015.32 683.438,1009.42 713.627,1029.39C743.816,1049.37 592.782,926.799 729.227,778.725Z" style="fill:rgb(193,156,37);"/>
        </g>
        <g transform="matrix(0.294544,0,0,0.294544,657.28,194.623)">
            <path d="M509.534,1491.02C465.529,1525.35 390.201,1633.96 383.938,1712.08C383.274,1720.36 1163.21,1748.32 1168.51,1730.21C1175.15,1707.56 1149.08,1541.46 1098.55,1507.85C1010.84,1449.52 509.534,1491.02 509.534,1491.02Z" style="fill:rgb(212,180,83);"/>
        </g>
        <g transform="matrix(0.294544,0,0,0.294544,657.28,194.623)">
            <path d="M506.673,1441.97C506.673,1441.97 368.388,1117.66 511.572,1009.75C654.755,901.839 786.97,1091.58 831.039,1109.94C839.382,1113.42 943.149,1069.61 1048.69,1079.08C1127.19,1086.12 1195.83,1122.36 1141.25,1249.64C1073.28,1408.14 1075.57,1468.99 1052.34,1473.11C1029.12,1477.23 709.462,1560.98 506.673,1441.97Z" style="fill:rgb(252,214,93);"/>
        </g>
        <g transform="matrix(0.294544,0,0,0.294544,657.28,194.623)">
            <path d="M489.108,1505.56C489.108,1505.56 509.653,1488.5 502.386,1471.96C495.119,1455.41 476.119,1421 502.981,1424.89C529.843,1428.77 646.155,1467.04 766.768,1465.45C887.38,1463.87 1026.19,1444.68 1052.34,1439.15C1078.5,1433.63 1088.77,1459.68 1074.19,1477.36C1059.61,1495.03 1156.18,1508.86 1080.39,1530.89C1004.59,1552.93 633.975,1587.89 489.108,1505.56Z" style="fill:rgb(193,156,37);"/>
        </g>
        <g transform="matrix(0.29441,0.0892754,-0.0854726,0.28187,688.434,98.3231)">
            <path d="M1073.49,359.015C1072.27,358.499 1063.56,336.619 1110.24,334.878C1156.91,333.137 1170.88,341.851 1187.97,364.624C1194.29,373.047 1185.21,369.378 1183.48,367.561C1166.54,349.743 1150.44,337.176 1117.46,344.159C1083.03,351.448 1087.14,364.82 1073.49,359.015Z" style="fill:rgb(50,44,26);"/>
        </g>
        <g transform="matrix(0.294544,0,0,0.294544,657.28,194.623)">
            <path d="M916.245,222.435C916.245,222.435 1044.56,192.447 1158.64,278.931C1231.53,334.182 1187.98,459.631 1187.97,513.079C1187.96,566.526 1174.16,677.042 1033.5,745.13C827.779,844.711 828.076,1063.47 993.601,1062.87C1063.14,1062.62 1086.55,986.64 1039.22,966.983C1037.32,966.195 1032.64,968.647 1034.63,973.597C1041.74,991.273 1056,1032.84 995.757,1022.87C926.457,1011.4 938.9,945.306 955.129,924.87C1082.9,763.977 1241.12,868.964 1325.29,575.46C1348.09,495.941 1297.63,68.595 910.498,163.501C885.837,169.547 868.629,231.869 916.245,222.435Z" style="fill:rgb(121,107,62);"/>
        </g>
        <g transform="matrix(0.294544,0,0,0.294544,657.28,194.623)">
            <path d="M1016.43,148.68C1020.49,148.692 1024.55,148.762 1028.61,148.909C1036.15,149.183 1043.69,149.706 1051.2,150.497C1069.13,152.388 1086.91,155.824 1104.2,160.984C1112.81,163.556 1121.3,166.554 1129.62,169.979C1138.36,173.579 1146.9,177.651 1155.2,182.177C1166.08,188.11 1176.54,194.82 1186.47,202.223C1193.68,207.59 1200.61,213.318 1207.26,219.364C1211.88,223.571 1216.37,227.932 1220.71,232.431C1224.03,235.874 1227.27,239.397 1230.42,242.994C1249.78,265.053 1265.92,289.814 1279.23,315.939C1281.13,319.683 1282.98,323.457 1284.77,327.257C1287.15,332.294 1289.42,337.377 1291.61,342.501C1294.49,349.263 1297.2,356.097 1299.75,362.989C1303.12,372.082 1306.2,381.278 1309.03,390.554C1312.76,402.838 1316.03,415.263 1318.85,427.79C1322.23,442.823 1324.96,458.005 1327,473.278C1328.71,486.136 1329.94,499.063 1330.58,512.021C1330.82,516.836 1330.97,521.655 1331.02,526.476C1331.08,531.734 1331.02,536.995 1330.81,542.249C1330.64,546.392 1330.38,550.532 1330,554.661C1329.63,558.561 1329.15,562.453 1328.49,566.315C1328.06,568.833 1327.55,571.34 1326.92,573.816C1326.61,575.049 1326.25,576.271 1325.9,577.493C1325.57,578.63 1325.24,579.766 1324.9,580.901C1324,583.97 1323.08,587.033 1322.13,590.089C1318.43,602.061 1314.42,613.937 1310.01,625.665C1307.72,631.766 1305.31,637.827 1302.79,643.838C1300.95,648.226 1299.04,652.588 1297.06,656.918C1295.54,660.246 1293.98,663.554 1292.38,666.842C1282.52,687.017 1270.97,706.433 1257.15,724.154C1255.18,726.669 1253.18,729.149 1251.12,731.591C1248.15,735.124 1245.08,738.578 1241.92,741.941C1234.23,750.115 1225.97,757.75 1217.2,764.755C1210.38,770.204 1203.26,775.272 1195.9,779.969C1188.3,784.818 1180.46,789.272 1172.46,793.408C1163.59,797.994 1154.51,802.189 1145.35,806.162C1137.79,809.442 1130.16,812.569 1122.52,815.663C1117.22,817.8 1111.93,819.924 1106.63,822.061C1100.51,824.54 1094.38,827.038 1088.29,829.615C1080.23,833.027 1072.22,836.573 1064.33,840.359C1056.77,843.982 1049.32,847.823 1042.02,851.944C1036.65,854.979 1031.36,858.167 1026.18,861.511C1023.79,863.051 1021.42,864.629 1019.08,866.24C1011.8,871.252 1004.75,876.603 997.965,882.279C990.435,888.583 983.242,895.286 976.404,902.335C971.692,907.192 967.147,912.21 962.768,917.37C961.12,919.311 959.496,921.272 957.894,923.253C957.394,923.871 956.896,924.491 956.4,925.113C956.088,925.504 955.777,925.895 955.477,926.295C955.035,926.884 954.611,927.487 954.204,928.101C952.9,930.068 951.759,932.142 950.738,934.27C949.583,936.68 948.583,939.164 947.718,941.693C946.731,944.579 945.921,947.526 945.283,950.509C944.838,952.591 944.478,954.691 944.206,956.802C944.027,958.186 943.887,959.575 943.785,960.967C943.706,962.06 943.651,963.155 943.621,964.251C943.416,971.805 944.417,979.437 947.002,986.558C947.472,987.852 947.993,989.127 948.566,990.378C949.351,992.092 950.234,993.761 951.213,995.373C952.615,997.682 954.214,999.87 955.987,1001.91C958.849,1005.2 962.163,1008.09 965.77,1010.54C969.718,1013.22 974.003,1015.38 978.451,1017.1C982.127,1018.51 985.914,1019.64 989.754,1020.52C992.817,1021.23 995.914,1021.77 999.026,1022.21C1001.34,1022.54 1003.66,1022.81 1005.99,1022.99C1007.78,1023.13 1009.57,1023.22 1011.37,1023.24C1012.73,1023.26 1014.1,1023.24 1015.46,1023.17C1016.55,1023.12 1017.64,1023.04 1018.72,1022.92C1019.59,1022.82 1020.44,1022.71 1021.3,1022.56C1021.9,1022.46 1022.5,1022.34 1023.09,1022.21C1026.51,1021.47 1029.88,1020.22 1032.72,1018.14C1033.13,1017.84 1033.54,1017.52 1033.92,1017.18C1034.43,1016.74 1034.91,1016.26 1035.37,1015.76C1036.01,1015.06 1036.59,1014.3 1037.1,1013.49C1037.88,1012.26 1038.5,1010.93 1038.97,1009.55C1039.59,1007.7 1039.95,1005.76 1040.11,1003.82C1040.31,1001.47 1040.23,999.104 1039.98,996.762C1039.69,994.04 1039.17,991.345 1038.5,988.691C1037.64,985.247 1036.54,981.866 1035.32,978.537C1034.92,977.453 1034.5,976.374 1034.08,975.298C1033.89,974.829 1033.7,974.361 1033.52,973.892C1033.47,973.761 1033.47,973.761 1033.42,973.63C1033.25,973.133 1033.12,972.626 1033.06,972.106C1032.94,971.199 1033.02,970.268 1033.32,969.404C1033.51,968.892 1033.77,968.408 1034.09,967.972C1034.82,967.002 1035.86,966.268 1037.02,965.912C1037.69,965.705 1038.42,965.62 1039.11,965.759C1039.27,965.792 1039.43,965.838 1039.58,965.894C1039.8,965.979 1040.01,966.073 1040.22,966.163C1041.86,966.872 1043.46,967.658 1045.01,968.541C1047.67,970.057 1050.17,971.846 1052.44,973.903C1055.14,976.356 1057.5,979.185 1059.39,982.303C1060.93,984.825 1062.16,987.526 1063.08,990.332C1063.87,992.74 1064.42,995.222 1064.75,997.733C1065.04,999.94 1065.16,1002.17 1065.12,1004.4C1065.08,1006.31 1064.93,1008.23 1064.66,1010.13C1064.42,1011.89 1064.08,1013.64 1063.65,1015.36C1063.28,1016.86 1062.85,1018.34 1062.35,1019.79C1061.91,1021.1 1061.41,1022.39 1060.88,1023.66C1057.21,1032.3 1051.44,1039.99 1044.37,1046.15C1041.34,1048.79 1038.07,1051.16 1034.62,1053.23C1031.26,1055.24 1027.74,1056.97 1024.1,1058.41C1018.37,1060.67 1012.36,1062.22 1006.26,1063.1C1003.41,1063.51 1000.55,1063.78 997.676,1063.91C995.511,1064.02 993.344,1064.03 991.177,1064.01C988.639,1063.99 986.101,1063.91 983.567,1063.78C974.694,1063.32 965.848,1062.17 957.186,1060.18C951.615,1058.9 946.122,1057.27 940.772,1055.25C934.904,1053.04 929.209,1050.36 923.792,1047.2C920.299,1045.16 916.923,1042.92 913.693,1040.49C909.973,1037.68 906.449,1034.62 903.161,1031.32C898.52,1026.67 894.354,1021.55 890.734,1016.06C887.825,1011.65 885.271,1007.01 883.081,1002.2C881.306,998.305 879.771,994.301 878.47,990.224C877.479,987.116 876.624,983.965 875.901,980.784C875.357,978.392 874.888,975.983 874.491,973.563C871.88,957.64 872.397,941.297 875.217,925.44C875.63,923.123 876.091,920.814 876.6,918.515C877.271,915.484 878.024,912.472 878.854,909.48C879.975,905.437 881.236,901.434 882.627,897.476C888.501,880.756 896.654,864.872 906.405,850.09C912.879,840.275 920.065,830.935 927.82,822.099C937.277,811.322 947.578,801.294 958.514,792.025C964.329,787.097 970.324,782.382 976.474,777.88C983.729,772.567 991.2,767.549 998.848,762.819C1006.32,758.201 1013.95,753.857 1021.73,749.779C1024.27,748.446 1026.82,747.142 1029.39,745.866C1031.14,745.001 1032.89,744.155 1034.64,743.301C1035.18,743.034 1035.72,742.767 1036.26,742.5C1039.46,740.912 1042.63,739.288 1045.78,737.614C1052.3,734.144 1058.72,730.476 1065.01,726.597C1081.45,716.459 1097.02,704.862 1111.14,691.673C1118.85,684.471 1126.13,676.801 1132.87,668.682C1139.57,660.602 1145.75,652.078 1151.31,643.167C1157.19,633.727 1162.38,623.857 1166.83,613.658C1171.27,603.454 1174.96,592.925 1177.9,582.191C1182.01,567.185 1184.63,551.788 1185.9,536.286C1186.33,530.95 1186.61,525.601 1186.74,520.249C1186.78,518.491 1186.81,516.732 1186.82,514.974C1186.82,514.023 1186.82,513.072 1186.83,512.121C1186.83,511.688 1186.84,511.255 1186.85,510.822C1186.92,507.439 1187.13,504.061 1187.42,500.689C1187.66,497.861 1187.95,495.038 1188.28,492.219C1189.1,485.067 1190.12,477.939 1191.15,470.815C1191.79,466.459 1192.43,462.104 1193.06,457.748C1194.35,448.832 1195.6,439.91 1196.65,430.963C1198.2,417.822 1199.36,404.62 1199.66,391.387C1199.9,380.827 1199.61,370.239 1198.45,359.734C1198.25,357.874 1198.02,356.016 1197.76,354.162C1196.06,342.183 1193.13,330.323 1188.36,319.183C1187.59,317.39 1186.78,315.617 1185.91,313.868C1183.68,309.349 1181.12,304.99 1178.23,300.861C1175.48,296.935 1172.43,293.22 1169.11,289.762C1166.63,287.178 1164,284.739 1161.25,282.454C1160.44,281.785 1159.62,281.129 1158.79,280.487C1157.86,279.76 1156.9,279.05 1155.95,278.341C1153.75,276.698 1151.52,275.085 1149.27,273.503C1140.4,267.266 1131.19,261.513 1121.69,256.286C1112.95,251.481 1103.98,247.121 1094.8,243.223C1085.1,239.1 1075.18,235.495 1065.1,232.412C1047.38,226.995 1029.18,223.192 1010.8,220.957C998.923,219.514 986.972,218.722 975.013,218.576C968.672,218.499 962.329,218.604 955.994,218.898C950.267,219.163 944.548,219.582 938.846,220.172C934.454,220.626 930.072,221.179 925.71,221.861C924.093,222.113 922.479,222.384 920.869,222.677C919.438,222.938 918.01,223.215 916.591,223.531L916.483,223.556C915.828,223.684 915.172,223.805 914.513,223.912C911.403,224.421 908.235,224.678 905.085,224.49C902.4,224.33 899.718,223.838 897.209,222.853C895.679,222.252 894.221,221.468 892.896,220.495C892.001,219.839 891.169,219.098 890.415,218.284C889.859,217.685 889.346,217.047 888.878,216.378C888.504,215.844 888.159,215.29 887.843,214.72C886.068,211.517 885.23,207.869 885.014,204.234C884.982,203.703 884.964,203.172 884.957,202.641C884.949,201.982 884.961,201.324 884.989,200.665C885.119,197.627 885.612,194.606 886.37,191.662C886.976,189.305 887.755,186.992 888.686,184.743C889.422,182.963 890.254,181.223 891.18,179.535C891.911,178.202 892.7,176.901 893.55,175.64C894.175,174.713 894.833,173.807 895.525,172.928C896.09,172.21 896.678,171.51 897.29,170.832C899.005,168.928 900.91,167.183 903.022,165.727C904.644,164.61 906.39,163.665 908.243,162.991C908.843,162.773 909.453,162.587 910.071,162.427C910.877,162.225 911.686,162.032 912.494,161.837C914.372,161.387 916.251,160.943 918.133,160.511C921.837,159.661 925.549,158.85 929.269,158.08C941.68,155.512 954.187,153.401 966.763,151.832C977.49,150.494 988.267,149.551 999.066,149.063C1002.62,148.902 1006.18,148.791 1009.74,148.731C1011.34,148.704 1012.93,148.69 1014.52,148.682C1015.16,148.681 1015.79,148.68 1016.43,148.68ZM1014.53,150.974C1011.99,150.987 1009.45,151.02 1006.91,151.082C1002.04,151.202 997.167,151.418 992.303,151.724C974.967,152.816 957.711,155.052 940.63,158.194C934.02,159.41 927.436,160.761 920.879,162.237C918.635,162.742 916.394,163.261 914.157,163.795C912.982,164.075 911.807,164.355 910.635,164.648C910.501,164.683 910.366,164.719 910.232,164.756C909.597,164.938 908.972,165.152 908.361,165.402C906.502,166.162 904.774,167.219 903.187,168.443C901.893,169.442 900.689,170.554 899.567,171.742C898.133,173.261 896.832,174.903 895.652,176.625C894.902,177.719 894.201,178.845 893.546,179.998C892.638,181.598 891.819,183.249 891.091,184.938C890.169,187.078 889.391,189.282 888.776,191.53C888.027,194.267 887.514,197.078 887.325,199.911C887.273,200.7 887.245,201.49 887.247,202.28C887.247,202.886 887.265,203.492 887.301,204.097C887.512,207.626 888.35,211.189 890.209,214.228C890.506,214.715 890.829,215.186 891.177,215.638C891.64,216.242 892.148,216.811 892.697,217.339C893.508,218.12 894.407,218.81 895.369,219.397C895.764,219.637 896.168,219.861 896.582,220.068C899.576,221.568 902.95,222.16 906.275,222.247C906.861,222.263 907.448,222.263 908.035,222.248C908.813,222.229 909.591,222.186 910.366,222.122C911.368,222.038 912.367,221.92 913.361,221.773C914.246,221.642 915.13,221.492 916.007,221.314C916.128,221.289 916.249,221.259 916.37,221.232C916.526,221.198 916.682,221.165 916.838,221.131C917.182,221.059 917.527,220.988 917.872,220.917C921.454,220.203 925.061,219.614 928.678,219.103C933.107,218.476 937.553,217.969 942.007,217.561C951.383,216.703 960.8,216.283 970.215,216.261C972.814,216.255 975.413,216.281 978.012,216.334C981.443,216.404 984.873,216.532 988.301,216.71C994.751,217.046 1001.19,217.569 1007.61,218.28C1028.9,220.64 1049.97,225.079 1070.36,231.665C1079.87,234.738 1089.24,238.276 1098.39,242.275C1106.94,246.006 1115.31,250.137 1123.47,254.653C1133.05,259.953 1142.33,265.785 1151.26,272.104C1153.3,273.546 1155.32,275.012 1157.32,276.504C1158.29,277.221 1159.25,277.94 1160.2,278.676C1161.04,279.333 1161.88,280.005 1162.71,280.689C1165.66,283.139 1168.48,285.763 1171.12,288.549C1174.96,292.591 1178.43,296.972 1181.52,301.617C1184.64,306.326 1187.35,311.303 1189.67,316.455C1190.35,317.971 1191,319.502 1191.61,321.047C1196.31,332.847 1199.07,345.349 1200.56,357.94C1201.62,366.95 1202.05,376.03 1202.03,385.101C1202.02,396.36 1201.33,407.611 1200.26,418.817C1199.51,426.69 1198.57,434.545 1197.53,442.385C1196.25,451.984 1194.81,461.562 1193.42,471.145C1193.25,472.344 1193.07,473.544 1192.9,474.744C1192.06,480.648 1191.24,486.556 1190.55,492.481C1190.02,497.16 1189.56,501.852 1189.3,506.556C1189.22,508.1 1189.16,509.645 1189.13,511.191C1189.11,512.457 1189.12,513.723 1189.11,514.988C1189.11,515.64 1189.1,516.292 1189.09,516.944C1189.05,519.701 1188.98,522.457 1188.87,525.212C1188.68,529.761 1188.39,534.305 1187.98,538.839C1186.88,550.948 1184.96,562.984 1182.15,574.815C1178.92,588.421 1174.51,601.75 1168.93,614.573C1163.15,627.838 1156.11,640.549 1147.95,652.494C1142.55,660.39 1136.67,667.951 1130.37,675.143C1123.85,682.578 1116.88,689.617 1109.55,696.248C1093.87,710.426 1076.53,722.715 1058.25,733.309C1052.69,736.531 1047.04,739.599 1041.32,742.521C1039.44,743.483 1037.54,744.428 1035.64,745.359C1034.3,746.018 1032.95,746.669 1031.6,747.33C1030.81,747.721 1030.02,748.115 1029.23,748.51C1023.8,751.236 1018.42,754.08 1013.12,757.058C1001.62,763.525 990.46,770.607 979.755,778.328C967.235,787.358 955.337,797.263 944.297,808.055C935.368,816.783 926.999,826.09 919.348,835.958C913.21,843.874 907.534,852.152 902.421,860.766C898.771,866.914 895.408,873.233 892.376,879.708C889.853,885.096 887.559,890.592 885.523,896.182C884.05,900.229 882.712,904.325 881.522,908.463C880.596,911.685 879.759,914.933 879.018,918.203C878.415,920.869 877.875,923.549 877.403,926.242C874.9,940.522 874.292,955.191 876.215,969.582C876.489,971.626 876.813,973.664 877.19,975.692C877.605,977.929 878.085,980.155 878.63,982.363C879.423,985.569 880.353,988.741 881.428,991.864C882.899,996.139 884.639,1000.32 886.653,1004.37C889.66,1010.42 893.279,1016.17 897.466,1021.47C900.894,1025.81 904.699,1029.85 908.823,1033.53C911.985,1036.35 915.334,1038.97 918.835,1041.36C921.532,1043.2 924.319,1044.91 927.18,1046.49C929.464,1047.75 931.795,1048.92 934.165,1050.01C936.13,1050.91 938.121,1051.76 940.135,1052.55C941.829,1053.21 943.539,1053.84 945.263,1054.42C957.641,1058.63 970.648,1060.81 983.685,1061.49C986.029,1061.61 988.375,1061.68 990.722,1061.71C992.611,1061.74 994.5,1061.74 996.388,1061.67C999.083,1061.58 1001.77,1061.37 1004.45,1061.03C1009.88,1060.35 1015.24,1059.13 1020.41,1057.33C1027.19,1054.97 1033.62,1051.61 1039.35,1047.28C1043.05,1044.48 1046.45,1041.29 1049.45,1037.76C1053.33,1033.19 1056.55,1028.05 1058.87,1022.51C1059.48,1021.05 1060.03,1019.57 1060.51,1018.06C1061.03,1016.42 1061.47,1014.75 1061.83,1013.06C1062.24,1011.09 1062.53,1009.09 1062.69,1007.07C1062.88,1004.79 1062.89,1002.49 1062.71,1000.2C1062.51,997.643 1062.07,995.106 1061.39,992.637C1060.77,990.425 1059.95,988.268 1058.93,986.209C1057.83,983.987 1056.5,981.88 1054.96,979.936C1052.55,976.889 1049.63,974.256 1046.41,972.096C1044.65,970.922 1042.81,969.885 1040.9,968.981C1040.38,968.734 1039.85,968.497 1039.32,968.269C1039.23,968.231 1039.14,968.193 1039.05,968.155C1038.89,968.088 1038.75,968.016 1038.59,967.994C1038.42,967.974 1038.26,967.984 1038.1,968.009C1037.84,968.048 1037.6,968.123 1037.37,968.224C1036.61,968.55 1035.95,969.143 1035.6,969.896C1035.49,970.119 1035.41,970.354 1035.36,970.595C1035.25,971.137 1035.28,971.698 1035.4,972.235C1035.46,972.52 1035.55,972.797 1035.66,973.07C1035.9,973.682 1036.14,974.292 1036.38,974.904C1036.95,976.348 1037.5,977.798 1038.01,979.259C1039.15,982.46 1040.16,985.711 1040.94,989.017C1041.72,992.273 1042.28,995.591 1042.46,998.936C1042.62,1001.99 1042.47,1005.08 1041.77,1008.06C1041.32,1009.98 1040.64,1011.85 1039.7,1013.59C1039.07,1014.75 1038.32,1015.85 1037.46,1016.85C1036.9,1017.51 1036.3,1018.12 1035.66,1018.7C1035.2,1019.12 1034.71,1019.52 1034.2,1019.9C1031.02,1022.26 1027.23,1023.68 1023.38,1024.5C1022.81,1024.62 1022.25,1024.72 1021.68,1024.82C1020.86,1024.96 1020.03,1025.08 1019.21,1025.17C1018.17,1025.29 1017.12,1025.38 1016.07,1025.44C1014.68,1025.52 1013.28,1025.55 1011.88,1025.54C1010.16,1025.53 1008.44,1025.46 1006.72,1025.34C1004.38,1025.18 1002.04,1024.93 999.719,1024.62C996.722,1024.22 993.736,1023.73 990.779,1023.1C986.761,1022.24 982.792,1021.13 978.932,1019.72C974.328,1018.04 969.876,1015.92 965.747,1013.27C961.638,1010.63 957.863,1007.47 954.617,1003.82C952.788,1001.76 951.131,999.557 949.665,997.228C948.565,995.48 947.575,993.664 946.697,991.795C946.049,990.416 945.461,989.008 944.935,987.577C944.557,986.553 944.211,985.517 943.896,984.472C941.449,976.366 940.847,967.772 941.618,959.362C941.763,957.779 941.957,956.201 942.198,954.631C942.55,952.332 943.004,950.049 943.555,947.79C944.452,944.109 945.605,940.488 947.035,936.978C947.884,934.896 948.831,932.852 949.893,930.87C950.687,929.389 951.546,927.942 952.485,926.549C952.858,925.997 953.244,925.452 953.644,924.919C953.957,924.501 954.282,924.093 954.608,923.685C955.107,923.059 955.609,922.434 956.112,921.811C957.725,919.817 959.362,917.842 961.021,915.887C966.849,909.021 972.968,902.401 979.382,896.079C987.742,887.839 996.605,880.11 1005.92,872.968C1014.56,866.345 1023.58,860.233 1032.9,854.612C1039.7,850.514 1046.65,846.676 1053.71,843.06C1060.31,839.68 1067.01,836.493 1073.77,833.446C1089.02,826.576 1104.57,820.43 1120.07,814.178C1121.66,813.539 1123.24,812.898 1124.82,812.257C1131.65,809.478 1138.46,806.663 1145.22,803.721C1154.86,799.527 1164.38,795.08 1173.68,790.184C1178.52,787.638 1183.29,784.972 1187.98,782.168C1190.73,780.523 1193.45,778.828 1196.14,777.088C1203.42,772.376 1210.46,767.28 1217.2,761.813C1225.1,755.403 1232.57,748.474 1239.57,741.094C1242.94,737.534 1246.21,733.871 1249.37,730.116C1251.4,727.695 1253.39,725.237 1255.34,722.744C1269.07,705.149 1280.53,685.868 1290.32,665.836C1292.01,662.358 1293.66,658.856 1295.27,655.333C1297.23,651.012 1299.13,646.659 1300.96,642.279C1303.47,636.278 1305.86,630.226 1308.14,624.135C1312.42,612.685 1316.34,601.095 1319.94,589.413C1320.88,586.366 1321.8,583.313 1322.7,580.254C1323.04,579.122 1323.37,577.99 1323.69,576.856C1324.07,575.576 1324.44,574.297 1324.76,573.004C1325.4,570.471 1325.9,567.907 1326.33,565.331C1326.93,561.722 1327.37,558.088 1327.71,554.447C1328.1,550.359 1328.36,546.26 1328.52,542.158C1328.73,536.942 1328.79,531.72 1328.73,526.501C1328.67,521.709 1328.52,516.919 1328.29,512.133C1327.66,499.239 1326.43,486.376 1324.72,473.581C1322.69,458.375 1319.98,443.26 1316.61,428.292C1313.81,415.821 1310.55,403.451 1306.83,391.221C1304.03,381.988 1300.95,372.835 1297.6,363.785C1294.98,356.711 1292.19,349.7 1289.23,342.764C1287.05,337.669 1284.78,332.615 1282.4,327.607C1280.51,323.619 1278.56,319.661 1276.55,315.736C1263.24,289.818 1247.1,265.271 1227.76,243.438C1224.77,240.06 1221.7,236.748 1218.56,233.509C1214.24,229.056 1209.78,224.74 1205.18,220.576C1198.75,214.758 1192.06,209.24 1185.1,204.06C1175.45,196.871 1165.31,190.34 1154.76,184.548C1146.56,180.042 1138.1,175.984 1129.46,172.393C1121.23,168.976 1112.83,165.983 1104.31,163.41C1087.2,158.248 1069.59,154.793 1051.83,152.87C1044.09,152.031 1036.31,151.481 1028.52,151.199C1024.8,151.064 1021.08,150.995 1017.36,150.974C1016.42,150.972 1015.48,150.972 1014.53,150.974Z" style="fill:none;"/>
        </g>
        <g transform="matrix(0.14271,-0.16588,0.305381,0.262726,659.591,341.758)">
            <path d="M1230.06,445.151C1250.02,445.151 1290.08,477.658 1290.08,525.835C1290.08,574.013 1237.2,604.478 1221.57,597.738C1207.72,591.767 1258.12,576.423 1258.12,528.246C1258.12,480.069 1210.1,445.151 1230.06,445.151Z" style="fill:rgb(133,117,68);"/>
        </g>
        <g transform="matrix(0.294544,0,0,0.420454,656.369,147.587)">
            <ellipse cx="1223.23" cy="363.372" rx="6.237" ry="6.406" style="fill:rgb(133,117,68);"/>
        </g>
        <g transform="matrix(0.21567,0,0,0.324443,726.915,168.74)">
            <path d="M893.295,976.754C893.295,976.754 860.851,916.27 916.245,869.169C971.638,822.067 928.452,876.765 928.452,876.765C872.708,941.827 918.23,974.945 893.295,976.754Z" style="fill:rgb(133,117,68);"/>
        </g>
        <g transform="matrix(-0.367172,-0.0376268,-0.0300268,0.293009,1342.85,225.734)">
            <path d="M1073.49,359.015C1072.27,358.499 1063.6,337.506 1110.24,334.878C1150.27,332.622 1164.88,341.386 1187.97,364.624C1195.39,372.094 1185.5,369.056 1183.48,367.561C1161.76,351.429 1143.87,339.492 1117.46,344.159C1082.8,350.282 1087.14,364.82 1073.49,359.015Z" style="fill:rgb(50,44,26);"/>
        </g>
        <g transform="matrix(0.294544,0,0,0.294544,657.28,194.623)">
            <path d="M875.664,353.732L916.245,369.253L933.486,389.825L949.846,421.793L955.129,457.203L942.689,490.837L922.448,505.779L865.66,513.079L826.651,485.264L815.075,438.289L820.181,395.284L854.083,364.624L875.664,353.732Z" style="fill:white;"/>
        </g>
        <g transform="matrix(0.294544,0,0,0.294544,657.28,194.623)">
            <path d="M875.843,352.601L876.073,352.662L916.654,368.183C916.712,368.211 916.773,368.234 916.829,368.267C916.978,368.355 917.002,368.396 917.123,368.517L934.364,389.089L934.506,389.303L950.866,421.271C950.937,421.443 950.937,421.443 950.98,421.624L956.263,457.034C956.274,457.203 956.287,457.247 956.255,457.415C956.243,457.478 956.221,457.539 956.204,457.6L943.763,491.235C943.678,491.411 943.668,491.465 943.534,491.611C943.484,491.666 943.424,491.71 943.369,491.759L923.129,506.701C922.983,506.79 922.95,506.824 922.784,506.874C922.722,506.893 922.658,506.902 922.595,506.915L865.806,514.215C865.735,514.218 865.663,514.227 865.592,514.223C865.449,514.214 865.309,514.179 865.179,514.119C865.115,514.089 865.056,514.047 864.994,514.012L825.985,486.197C825.934,486.153 825.879,486.114 825.831,486.065C825.736,485.968 825.659,485.855 825.604,485.731C825.576,485.669 825.56,485.602 825.538,485.538L813.962,438.563C813.931,438.36 813.931,438.359 813.937,438.154L819.043,395.148C819.057,395.082 819.065,395.013 819.085,394.948C819.126,394.816 819.189,394.693 819.273,394.584C819.315,394.53 819.366,394.484 819.412,394.434L853.314,363.774C853.435,363.679 853.435,363.679 853.567,363.601L875.148,352.709C875.37,352.625 875.37,352.625 875.605,352.588C875.685,352.592 875.764,352.596 875.843,352.601ZM854.737,365.577L821.268,395.845L816.237,438.217L827.662,484.578L865.959,511.885L922.007,504.68L941.733,490.119L953.953,457.081L948.741,422.148C934.645,394.605 935.432,393.931 915.558,370.217L875.728,354.984C868.731,358.515 861.734,362.046 854.737,365.577Z" style="fill:none;"/>
        </g>
        <g transform="matrix(0.294544,0,0,0.294544,657.28,194.623)">
            <path d="M907.637,360.763L920.977,383.746L916.185,422.108L902.624,472.834L873.936,490.887L839.044,472.834L815.075,449.736L815.075,413.33L835.664,376.483L875.626,359.015L907.637,360.763Z" style="fill:rgb(120,106,61);"/>
        </g>
        <g transform="matrix(0.294544,0,0,0.294544,657.28,194.623)">
            <path d="M907.699,359.619C907.873,359.644 907.922,359.639 908.085,359.709C908.331,359.813 908.535,360.003 908.657,360.241C908.738,360.399 908.736,360.447 908.774,360.619L911.634,383.238C911.642,383.429 911.642,383.429 911.619,383.618L903.555,422.029C903.515,422.174 903.515,422.174 903.456,422.312L886.124,456.464C886.044,456.596 886.031,456.635 885.923,456.745C885.882,456.787 885.836,456.822 885.793,456.86L866.351,471.555C866.294,471.59 866.241,471.63 866.182,471.66C866.004,471.751 865.804,471.795 865.604,471.785C865.538,471.782 865.473,471.767 865.407,471.758L836.121,465.147C835.92,465.081 835.92,465.081 835.735,464.98L814.436,450.687C814.378,450.64 814.316,450.598 814.263,450.545C814.104,450.385 813.995,450.18 813.951,449.959C813.936,449.885 813.936,449.81 813.929,449.736L813.929,413.33C813.934,413.266 813.934,413.201 813.945,413.137C813.975,412.965 814.003,412.928 814.074,412.771L834.664,375.924C834.699,375.873 834.729,375.819 834.768,375.77C834.845,375.673 834.938,375.589 835.042,375.521C835.094,375.488 835.151,375.463 835.205,375.433L875.167,357.965C875.224,357.946 875.278,357.922 875.336,357.907C875.49,357.867 875.531,357.875 875.689,357.871C886.359,358.454 897.029,359.036 907.699,359.619ZM836.477,377.379L816.22,413.629L816.22,449.125C838.549,464.109 839.163,463.484 865.393,469.406L884.2,455.191C899.994,424.07 906.163,419.16 909.337,383.335C909.973,376.146 907.526,369.015 906.62,361.855L875.836,360.174C862.716,365.909 849.596,371.644 836.477,377.379Z" style="fill:none;"/>
        </g>
        <g transform="matrix(0.294544,0,0,0.294544,657.28,194.623)">
            <path d="M1063.42,443.443L1089.39,406.645L1128.46,400.886L1160.71,413.935L1187.97,447.258L1186.4,489.446L1171.45,521.412L1147.55,544.592L1098.55,544.783L1058.89,529.867L1048.69,513.079L1048.69,485.102L1063.42,443.443Z" style="fill:white;"/>
        </g>
        <g transform="matrix(0.294544,0,0,0.294544,657.28,194.623)">
            <path d="M1128.7,399.764L1128.89,399.823L1161.14,412.872C1161.2,412.901 1161.26,412.925 1161.32,412.959C1161.46,413.048 1161.48,413.088 1161.6,413.209L1188.86,446.533C1188.89,446.59 1188.94,446.643 1188.97,446.704C1189.04,446.825 1189.08,446.957 1189.1,447.094C1189.11,447.162 1189.11,447.232 1189.12,447.301L1187.54,489.489C1187.51,489.716 1187.51,489.716 1187.43,489.932L1172.49,521.898C1172.38,522.077 1172.38,522.077 1172.25,522.235L1148.35,545.414C1148.29,545.46 1148.24,545.511 1148.18,545.551C1148.06,545.631 1147.92,545.687 1147.78,545.716C1147.7,545.73 1147.63,545.73 1147.56,545.737L1098.55,545.928C1098.34,545.91 1098.34,545.91 1098.14,545.855L1058.49,530.939C1058.42,530.901 1058.34,530.871 1058.27,530.824C1058.08,530.699 1058.05,530.639 1057.92,530.462L1047.71,513.674C1047.63,513.508 1047.6,513.47 1047.56,513.286C1047.55,513.218 1047.55,513.148 1047.55,513.079L1047.55,485.102C1047.56,484.909 1047.56,484.909 1047.61,484.721L1062.34,443.061C1062.4,442.917 1062.4,442.917 1062.48,442.782L1088.45,405.985C1088.51,405.926 1088.55,405.863 1088.61,405.81C1088.72,405.704 1088.85,405.622 1089,405.569C1089.07,405.542 1089.15,405.531 1089.22,405.512L1128.3,399.752L1128.5,399.74C1128.57,399.748 1128.63,399.756 1128.7,399.764ZM1090.04,407.707C1067.32,439.903 1058.22,445.827 1049.84,485.299C1047.93,494.252 1049.84,503.605 1049.84,512.758L1059.67,528.933C1101.59,544.702 1102.3,543.622 1147.09,543.448L1170.5,520.736L1185.26,489.172L1186.81,447.648L1160.01,414.887L1128.32,402.065C1115.56,403.946 1102.8,405.826 1090.04,407.707Z" style="fill:none;"/>
        </g>
        <g transform="matrix(0.294544,0,0,0.294544,657.28,194.623)">
            <ellipse cx="889.778" cy="383.746" rx="9.38" ry="9.234" style="fill:rgb(148,130,75);"/>
        </g>
        <g transform="matrix(0.294544,0,0,0.294544,726.09,209.114)">
            <path d="M907.637,360.763L915.979,384.205L908.447,428.661L884.714,463.878L863.182,474.393C853.681,474.39 845.896,464.291 836.373,464.029L820.195,447.156L818.726,414.828L835.664,376.483L877.115,351.685L907.637,360.763Z" style="fill:rgb(120,106,61);"/>
        </g>
        <g transform="matrix(0.294544,0,0,0.294544,726.09,209.114)">
            <path d="M877.256,350.547L877.442,350.586L907.964,359.665C908.138,359.735 908.19,359.742 908.341,359.859C908.567,360.035 908.721,360.294 908.767,360.576C908.779,360.646 908.777,360.718 908.782,360.788L908.265,384.23C908.256,384.35 908.256,384.35 908.235,384.469L899.411,421.704C899.366,421.849 899.366,421.849 899.303,421.987L882.267,453.309C882.237,453.356 882.21,453.406 882.176,453.451C882.085,453.571 882.05,453.59 881.936,453.687L865.604,465.598C865.551,465.63 865.5,465.667 865.445,465.695C865.333,465.752 865.213,465.789 865.09,465.807C865.028,465.815 864.965,465.814 864.903,465.818L836.347,465.175C836.273,465.166 836.198,465.164 836.125,465.148C835.978,465.115 835.84,465.054 835.716,464.968C835.655,464.925 835.603,464.871 835.546,464.822L819.368,447.949C819.326,447.896 819.278,447.846 819.24,447.789C819.164,447.674 819.109,447.546 819.079,447.412C819.063,447.345 819.06,447.276 819.051,447.208L817.581,414.88C817.583,414.821 817.58,414.762 817.587,414.704C817.604,414.548 817.626,414.512 817.678,414.365L834.616,376.02C834.69,375.883 834.702,375.842 834.806,375.725C834.91,375.607 834.949,375.59 835.076,375.5L876.527,350.701C876.584,350.673 876.638,350.641 876.697,350.618C876.855,350.556 876.9,350.561 877.067,350.54C877.13,350.542 877.193,350.545 877.256,350.547ZM836.565,377.28L819.883,415.045L821.321,446.674L836.873,462.894L864.567,463.518L880.377,451.987L897.216,421.026C904.175,391.662 905.806,391.782 906.472,361.612L877.271,352.926C863.703,361.044 850.134,369.162 836.565,377.28Z" style="fill:none;"/>
        </g>
        <g transform="matrix(0.295297,0.0936915,-0.108851,0.343078,711.633,87.492)">
            <ellipse cx="852.204" cy="540.845" rx="47.711" ry="19.432" style="fill:rgb(217,186,163);"/>
        </g>
        <g transform="matrix(0.294544,0,0,0.294544,724.598,208.043)">
            <ellipse cx="889.778" cy="383.746" rx="9.38" ry="9.234" style="fill:rgb(148,130,75);"/>
        </g>
        <g transform="matrix(0.309804,0,-4.90514e-17,0.359932,722.661,172.501)">
            <ellipse cx="852.204" cy="540.845" rx="47.711" ry="19.432" style="fill:rgb(217,186,163);"/>
        </g>
        <g transform="matrix(0.294544,0,0,0.294544,657.353,193.185)">
            <path d="M957.365,588.376C957.365,588.376 954.903,579.021 965.437,580.497C975.972,581.972 975.876,590.688 975.876,590.688C975.876,590.688 972.705,587.818 966.372,585.661C960.46,583.648 957.892,584.849 957.365,588.376Z" style="fill:rgb(30,27,16);"/>
        </g>
        <g transform="matrix(0.294544,0,0,0.294544,657.353,193.185)">
            <path d="M963.406,579.839C964.319,579.849 965.228,579.943 966.128,580.099C967.903,580.406 969.649,580.972 971.196,581.91C972.104,582.46 972.934,583.137 973.645,583.926C974.767,585.174 975.569,586.688 976.01,588.305C976.12,588.707 976.207,589.115 976.271,589.527C976.329,589.902 976.368,590.279 976.376,590.658L976.376,590.687C976.371,590.769 976.358,590.845 976.319,590.919C976.224,591.102 976.021,591.209 975.816,591.185C975.733,591.175 975.663,591.143 975.593,591.1C975.529,591.05 975.469,590.996 975.407,590.944C975.329,590.88 975.312,590.867 975.229,590.8C974.301,590.066 973.303,589.422 972.276,588.837C971.416,588.347 970.533,587.899 969.632,587.489C968.97,587.187 968.298,586.906 967.618,586.645C967.064,586.431 966.505,586.23 965.941,586.044C965.519,585.905 965.095,585.777 964.667,585.662C964.323,585.57 963.976,585.487 963.627,585.416C963.348,585.36 963.068,585.311 962.786,585.273C962.594,585.247 962.401,585.226 962.207,585.211C962.058,585.2 961.908,585.192 961.758,585.188C960.923,585.169 960.036,585.279 959.321,585.743C959.229,585.804 959.14,585.869 959.056,585.94C958.929,586.046 958.813,586.164 958.708,586.291C958.535,586.5 958.392,586.734 958.277,586.981C958.059,587.445 957.938,587.947 957.86,588.453L957.847,588.511C957.82,588.588 957.788,588.657 957.731,588.717C957.549,588.914 957.233,588.928 957.033,588.75C956.948,588.674 956.9,588.577 956.873,588.468C956.849,588.367 956.827,588.265 956.807,588.163C956.625,587.205 956.562,586.218 956.662,585.246C956.727,584.616 956.863,583.991 957.092,583.401C957.252,582.99 957.458,582.596 957.711,582.235C957.906,581.957 958.129,581.699 958.376,581.466C958.556,581.296 958.749,581.14 958.951,580.999C959.106,580.891 959.267,580.791 959.432,580.7C960.547,580.084 961.829,579.872 963.089,579.841C963.194,579.84 963.3,579.839 963.406,579.839ZM963.204,580.84C963.018,580.842 962.832,580.848 962.645,580.86C961.465,580.936 960.243,581.229 959.304,581.983C959.153,582.104 959.011,582.236 958.879,582.378C958.685,582.586 958.514,582.815 958.368,583.059C958.149,583.422 957.986,583.817 957.87,584.224C957.697,584.825 957.627,585.45 957.616,586.074L957.616,586.103C957.66,586.031 957.707,585.962 957.755,585.892C957.799,585.831 957.844,585.771 957.89,585.712C958.064,585.497 958.256,585.3 958.471,585.126C958.608,585.015 958.754,584.915 958.906,584.824C959.885,584.243 961.066,584.132 962.181,584.207C962.392,584.221 962.602,584.242 962.812,584.268C963.073,584.301 963.334,584.342 963.593,584.391C963.913,584.451 964.232,584.521 964.549,584.599C964.984,584.707 965.415,584.829 965.843,584.963C966.371,585.127 966.894,585.309 967.414,585.499C968.137,585.765 968.852,586.051 969.557,586.36C970.46,586.755 971.347,587.187 972.213,587.657C973.26,588.227 974.273,588.856 975.241,589.552L975.265,589.57C975.134,588.762 974.897,587.968 974.573,587.217C974.286,586.55 973.925,585.914 973.496,585.327C973.199,584.921 972.869,584.539 972.511,584.186C972.227,583.906 971.925,583.644 971.609,583.401C969.97,582.142 967.978,581.434 965.957,581.084C965.245,580.961 964.526,580.879 963.804,580.848C963.604,580.841 963.404,580.838 963.204,580.84Z" style="fill:rgb(50,44,26);fill-rule:nonzero;"/>
        </g>
        <g transform="matrix(0.294544,0,0,0.294544,657.28,194.623)">
            <path d="M1005.45,532.039C1005.45,532.039 1015.04,556.429 1027.77,564.675C1038.9,571.89 1032.31,582.725 1020.82,587.86C1009.33,592.995 1004.58,590.346 1013.74,586.18C1034.69,576.654 1030.64,572.062 1018.23,561.113C1002.07,546.858 999.128,522.453 1005.45,532.039Z" style="fill:rgb(30,27,16);"/>
        </g>
        <g transform="matrix(0.385985,0,0,0.363109,570.283,179.411)">
            <g>
                <g transform="matrix(0.224522,0.0967639,-0.28634,0.664394,692.149,7.22036)">
                    <path d="M809.812,169.313C809.812,166.093 802.401,163.479 793.273,163.479C784.145,163.479 776.734,166.093 776.734,169.313L776.734,288.223C776.734,291.443 784.145,294.058 793.273,294.058C802.401,294.058 809.812,291.443 809.812,288.223L809.812,169.313Z" style="fill:rgb(225,223,94);"/>
                </g>
                <g transform="matrix(0.0903382,0.227183,-0.67227,0.267325,886.882,-5.40084)">
                    <path d="M809.812,168.83C809.812,165.877 802.401,163.479 793.273,163.479C784.145,163.479 776.734,165.877 776.734,168.83L776.734,288.706C776.734,291.66 784.145,294.058 793.273,294.058C802.401,294.058 809.812,291.66 809.812,288.706L809.812,168.83Z" style="fill:rgb(225,223,94);"/>
                </g>
                <g transform="matrix(-0.0967639,0.224522,-0.664394,-0.28634,1033.5,123.371)">
                    <path d="M809.812,168.844C809.812,165.883 802.401,163.479 793.273,163.479C784.145,163.479 776.734,165.883 776.734,168.844L776.734,288.693C776.734,291.654 784.145,294.058 793.273,294.058C802.401,294.058 809.812,291.654 809.812,288.693L809.812,168.844Z" style="fill:rgb(225,223,94);"/>
                </g>
                <g transform="matrix(-0.227183,0.0903382,-0.267325,-0.67227,1046.12,318.104)">
                    <path d="M809.812,169.327C809.812,166.1 802.401,163.479 793.273,163.479C784.145,163.479 776.734,166.1 776.734,169.327L776.734,288.21C776.734,291.437 784.145,294.058 793.273,294.058C802.401,294.058 809.812,291.437 809.812,288.21L809.812,169.327Z" style="fill:rgb(225,223,94);"/>
                </g>
            </g>
            <g>
                <g transform="matrix(0.314017,0,0,0.929226,555.89,23.1551)">
                    <path d="M809.812,169.42C809.812,166.141 802.401,163.479 793.273,163.479C784.145,163.479 776.734,166.141 776.734,169.42L776.734,288.116C776.734,291.395 784.145,294.058 793.273,294.058C802.401,294.058 809.812,291.395 809.812,288.116L809.812,169.42Z" style="fill:rgb(162,193,36);"/>
                </g>
                <g transform="matrix(0.222044,0.222044,-0.657062,0.657062,779.165,-90.7237)">
                    <path d="M809.812,169.079C809.812,165.988 802.401,163.479 793.273,163.479C784.145,163.479 776.734,165.988 776.734,169.079L776.734,288.458C776.734,291.548 784.145,294.058 793.273,294.058C802.401,294.058 809.812,291.548 809.812,288.458L809.812,169.079Z" style="fill:rgb(162,193,36);"/>
                </g>
                <g transform="matrix(0,0.314017,-0.929226,-6.89964e-17,1017.57,-13.3689)">
                    <path d="M809.812,168.737C809.812,165.835 802.401,163.479 793.273,163.479C784.145,163.479 776.734,165.835 776.734,168.737L776.734,288.8C776.734,291.702 784.145,294.058 793.273,294.058C802.401,294.058 809.812,291.702 809.812,288.8L809.812,168.737Z" style="fill:rgb(162,193,36);"/>
                </g>
                <g transform="matrix(-0.222044,0.222044,-0.657062,-0.657062,1131.45,209.906)">
                    <path d="M809.812,169.079C809.812,165.988 802.401,163.479 793.273,163.479C784.145,163.479 776.734,165.988 776.734,169.079L776.734,288.458C776.734,291.548 784.145,294.058 793.273,294.058C802.401,294.058 809.812,291.548 809.812,288.458L809.812,169.079Z" style="fill:rgb(162,193,36);"/>
                </g>
            </g>
        </g>
        <g transform="matrix(0.294544,0,0,0.294544,657.28,194.623)">
            <path d="M847.334,354.058C858.304,347.515 872.276,343.577 889.931,345.058C946.371,349.795 959.209,446.046 957.163,461.388C951.765,501.876 937.746,517.788 874.523,513.069C831.686,509.872 816.227,478.793 811.56,449.253C808.785,435.739 799.234,387.419 803.746,383.746C808.903,379.548 827.248,360.209 847.334,354.058ZM927.983,387.537C927.455,393.011 926.7,398.499 925.799,403.836C920.55,434.939 913.897,479.672 883.589,490.887C870.108,495.876 857.34,492.781 845.814,485.08C843.897,483.8 827.005,468.008 826.4,467.351C834.965,488.632 853.432,505.618 885.862,506.218C945.533,507.322 947.918,469.589 947.293,458.26L946.962,458.239C946.962,458.239 955.107,411.085 927.983,387.537ZM917.613,380.949C913.25,379.085 896.152,365.804 890.849,365.835C843.209,366.116 829.088,398.071 823.723,410.469C821.022,420.165 819.87,431.344 820.753,442.567C826.611,463.407 851.082,483.472 867.923,483.15C879.7,482.924 888.196,475.872 899.158,462.368C915.317,442.463 911.651,377.566 911.639,377.338C911.628,377.146 917.606,381.138 917.613,380.949Z" style="fill:rgb(50,44,26);"/>
        </g>
        <g transform="matrix(0.294544,0,0,0.294544,657.28,194.623)">
            <path d="M1188.11,499.421C1179.48,527.129 1159.83,555.134 1116.39,552.029C1054.34,547.594 1041.59,529.96 1042.01,490.652C1042.17,475.756 1068.55,386.104 1125.05,389.945C1144.93,391.296 1159.22,398.484 1169.46,407.838C1187.18,418.082 1200.81,439.274 1204.95,444.202C1208.14,447.992 1195.26,481.617 1188.11,499.421ZM1156,420.076C1155.47,425.571 1155.98,433.186 1155.09,438.544C1149.87,469.652 1138.66,512.135 1109.08,523.443C1095.93,528.473 1078.52,528.657 1068.15,518.708C1063.76,514.501 1053.91,502.219 1051.33,496.425C1050.73,511.19 1056.92,537.367 1106.15,543.835C1166.04,551.702 1186.12,498.36 1181.22,461.951C1178.45,452.118 1181.1,432.706 1156,420.076ZM1142.4,416.395C1138.12,415.059 1126.31,410.368 1121.18,409.571C1078.1,402.879 1057.75,469.32 1053.44,485.61C1054.14,487.432 1054.69,489.117 1054.69,489.117C1056.63,493.087 1067.09,507.051 1074.19,511.784C1088.5,521.331 1114.6,511.738 1125.32,498.205C1140.96,478.479 1143.24,442.396 1142.4,416.395Z" style="fill:rgb(50,44,26);"/>
        </g>
        <g transform="matrix(0.294544,0,0,0.294544,657.28,194.623)">
            <path d="M526.214,1476.71C526.101,1476.67 607.522,1500.43 711.369,1505.56C781.172,1509.02 860.666,1496.52 933.999,1491.02C1003.69,1485.78 859.708,1525.97 708.707,1520.62C643.534,1518.31 578.011,1495.3 526.214,1476.71Z" style="fill:rgb(172,137,32);"/>
        </g>
        <g transform="matrix(0.422055,0,0,0.294544,522.56,194.623)">
            <path d="M1056.53,1474.42C1056.53,1474.42 983.238,1523.64 927.961,1521.11C895.711,1519.63 933.404,1528.98 977.105,1521.11C1008.31,1515.49 1042.61,1498.49 1056.53,1474.42Z" style="fill:rgb(172,137,32);"/>
        </g>
        <g transform="matrix(0.294544,0,0,0.294544,657.28,194.623)">
            <path d="M952.071,1519.78C952.071,1519.78 1066.8,1497.37 1065.34,1495.73C1060.47,1490.23 1011.41,1503.71 1002.36,1505.56C990.203,1508.05 1015.24,1503.82 973.394,1510.74C962.323,1512.57 952.071,1519.78 952.071,1519.78Z" style="fill:rgb(172,137,32);"/>
        </g>
        <g transform="matrix(0.294544,0,0,0.294544,657.28,194.623)">
            <path d="M1023.49,653.231C1021.55,655.609 1007.35,660.936 994.959,657.585C983.092,654.375 967.915,658.53 961.282,657.786C951.419,656.679 950.079,642.406 942.487,642.721C929.833,643.247 914.29,639.895 875.716,613.16C873.132,611.37 967.477,614.747 1012.97,632.982C1026.69,638.479 1033.92,635.982 1036.37,635.283C1048.22,631.902 1035.4,630.537 1037.13,627.658C1038.92,624.701 1048.78,631.582 1048.69,646.704C1048.68,647.629 1047.82,647.607 1047.42,646.504C1046.38,643.685 1044.93,636.036 1043.26,635.582C1043.26,635.582 1032.46,642.229 1023.49,653.231Z" style="fill:rgb(69,23,17);"/>
        </g>
        <g transform="matrix(0.294544,0,0,0.294544,657.28,194.623)">
            <path d="M881.051,611.59C885.152,611.609 889.251,611.756 893.348,611.947C898.387,612.181 903.422,612.494 908.453,612.862C914.452,613.301 920.444,613.822 926.429,614.421C932.767,615.056 939.098,615.78 945.414,616.606C951.228,617.366 957.03,618.212 962.815,619.166C968.082,620.034 973.334,620.992 978.562,622.068C983.363,623.056 988.144,624.143 992.889,625.371C997.315,626.515 1001.71,627.781 1006.05,629.231C1007.78,629.81 1009.5,630.42 1011.21,631.066C1011.76,631.275 1012.31,631.487 1012.86,631.703C1013.25,631.857 1013.64,632.013 1014.03,632.166C1014.33,632.284 1014.64,632.401 1014.95,632.515C1015.73,632.801 1016.51,633.075 1017.3,633.328C1019.75,634.112 1022.26,634.721 1024.81,635.051C1027.21,635.361 1029.66,635.419 1032.06,635.09C1033.08,634.95 1034.09,634.735 1035.09,634.46C1035.41,634.371 1035.73,634.275 1036.05,634.183C1036.87,633.945 1037.69,633.695 1038.49,633.386C1038.83,633.253 1039.17,633.111 1039.5,632.945C1039.75,632.819 1039.99,632.681 1040.21,632.504L1040.21,632.498C1040.09,632.372 1039.95,632.262 1039.8,632.157C1039.64,632.042 1039.48,631.934 1039.32,631.829C1038.92,631.579 1038.53,631.343 1038.13,631.097C1037.98,631.003 1037.84,630.907 1037.69,630.81C1037.57,630.73 1037.46,630.649 1037.34,630.566C1036.72,630.108 1036.12,629.535 1035.9,628.77C1035.85,628.592 1035.83,628.407 1035.82,628.222C1035.82,627.526 1036.18,626.854 1036.71,626.419C1036.97,626.211 1037.26,626.057 1037.58,625.962C1038.33,625.737 1039.13,625.847 1039.86,626.095C1040.75,626.401 1041.57,626.915 1042.31,627.499C1043.58,628.501 1044.64,629.746 1045.55,631.078C1046.59,632.614 1047.42,634.291 1048.07,636.031C1049.02,638.603 1049.55,641.317 1049.75,644.049C1049.81,644.937 1049.84,645.827 1049.84,646.718C1049.83,646.791 1049.83,646.79 1049.83,646.863C1049.81,647.075 1049.78,647.282 1049.7,647.481C1049.56,647.853 1049.29,648.172 1048.93,648.352C1048.81,648.411 1048.69,648.455 1048.56,648.482C1048.4,648.514 1048.24,648.521 1048.09,648.505C1047.91,648.487 1047.75,648.44 1047.59,648.371C1047.49,648.328 1047.4,648.277 1047.31,648.218C1046.84,647.907 1046.54,647.417 1046.34,646.901C1046.29,646.747 1046.23,646.592 1046.18,646.437C1045.96,645.761 1045.77,645.078 1045.58,644.393C1045.38,643.674 1045.18,642.955 1044.99,642.236C1044.86,641.796 1044.74,641.356 1044.61,640.917C1044.39,640.17 1044.16,639.426 1043.89,638.695C1043.69,638.129 1043.46,637.563 1043.16,637.043L1043.14,637.02C1040.38,638.852 1037.75,640.868 1035.22,643.007C1032.2,645.565 1029.33,648.312 1026.68,651.258C1025.89,652.142 1025.12,653.046 1024.37,653.965L1024.3,654.044C1024.22,654.13 1024.14,654.214 1024.06,654.294C1023.75,654.585 1023.41,654.834 1023.05,655.064C1022.62,655.342 1022.17,655.592 1021.72,655.824C1020.99,656.192 1020.25,656.518 1019.49,656.817C1018.6,657.17 1017.7,657.485 1016.78,657.769C1013.9,658.662 1010.92,659.265 1007.92,659.576C1004.73,659.907 1001.49,659.903 998.315,659.442C997.496,659.324 996.681,659.174 995.873,658.992C995.376,658.88 994.884,658.751 994.392,658.62C994.123,658.551 994.123,658.552 993.853,658.486C993.123,658.315 992.388,658.165 991.648,658.043C989.067,657.618 986.445,657.482 983.832,657.498C980.925,657.517 978.023,657.73 975.13,658.007C973.17,658.194 971.213,658.413 969.255,658.614C968.763,658.663 968.271,658.712 967.779,658.758C966.652,658.86 965.525,658.952 964.394,658.997C963.549,659.03 962.701,659.038 961.857,658.985C960.917,658.926 959.986,658.773 959.086,658.493C958.559,658.33 958.044,658.126 957.548,657.885C957.202,657.717 956.866,657.532 956.539,657.332C954.479,656.067 952.863,654.218 951.443,652.289C951.229,651.999 951.019,651.707 950.813,651.413C950.569,651.066 950.328,650.718 950.088,650.369C949.778,649.917 949.469,649.464 949.157,649.013C948.969,648.743 948.78,648.473 948.588,648.205C948.366,647.897 948.142,647.592 947.911,647.292C947.728,647.054 947.54,646.82 947.347,646.591C947.2,646.416 947.05,646.244 946.895,646.076C946.784,645.955 946.671,645.836 946.555,645.72C945.859,645.023 945.054,644.395 944.109,644.082C943.966,644.035 943.822,643.995 943.675,643.962C943.347,643.89 943.013,643.861 942.677,643.862C942.529,643.865 942.38,643.872 942.232,643.878C941.953,643.888 941.902,643.889 941.622,643.897C940.249,643.929 938.876,643.918 937.505,643.843C935.642,643.741 933.785,643.528 931.947,643.213C927.971,642.531 924.087,641.38 920.312,639.969C916.376,638.497 912.547,636.747 908.798,634.852C903.419,632.132 898.195,629.111 893.066,625.947C886.945,622.173 880.962,618.181 875.048,614.091L874.982,614.042C874.9,613.971 874.81,613.892 874.751,613.8C874.72,613.75 874.689,613.7 874.658,613.651C874.619,613.588 874.6,613.515 874.573,613.447C874.54,613.367 874.521,613.279 874.523,613.193C874.525,613.102 874.509,613.009 874.531,612.92C874.55,612.839 874.556,612.754 874.592,612.678C874.625,612.608 874.649,612.532 874.694,612.468C874.729,612.419 874.764,612.37 874.799,612.321C874.83,612.279 874.871,612.245 874.907,612.208C874.974,612.139 875.063,612.08 875.145,612.032C875.329,611.926 875.536,611.865 875.742,611.822C875.974,611.773 876.21,611.745 876.445,611.722C877.141,611.654 877.841,611.63 878.539,611.614C879.014,611.603 879.488,611.597 879.963,611.592C880.326,611.591 880.688,611.59 881.051,611.59ZM879.979,613.884C879.661,613.887 879.344,613.891 879.026,613.895L878.81,613.9C883.167,616.887 887.574,619.803 892.047,622.613C896.51,625.418 901.04,628.12 905.676,630.629C907.964,631.867 910.277,633.058 912.624,634.18C914.801,635.221 917.006,636.203 919.247,637.099C923.583,638.833 928.068,640.256 932.684,641.013C934.83,641.365 936.999,641.566 939.172,641.613C939.871,641.628 940.57,641.627 941.268,641.613C941.562,641.607 941.855,641.598 942.148,641.588C942.316,641.582 942.483,641.574 942.65,641.571C942.754,641.57 942.858,641.571 942.963,641.574C943.434,641.593 943.902,641.654 944.36,641.77C944.644,641.841 944.924,641.932 945.196,642.04C946.701,642.638 947.93,643.751 948.972,644.964C949.145,645.165 949.313,645.369 949.478,645.577C949.687,645.839 949.891,646.106 950.09,646.375C950.333,646.703 950.569,647.036 950.805,647.369C951.357,648.161 951.899,648.961 952.449,649.754C953.226,650.864 954.023,651.963 954.932,652.97C955.698,653.819 956.544,654.603 957.503,655.23C958.367,655.794 959.319,656.218 960.323,656.458C961.031,656.627 961.756,656.697 962.483,656.721C962.96,656.736 963.438,656.733 963.915,656.72C965.457,656.677 966.995,656.534 968.53,656.384C970.283,656.208 972.034,656.015 973.787,655.836C977.222,655.493 980.668,655.212 984.123,655.205C986.158,655.202 988.195,655.292 990.217,655.529C991.42,655.67 992.616,655.863 993.799,656.123C994.191,656.208 994.581,656.301 994.969,656.402C995.251,656.476 995.533,656.553 995.817,656.624C996.05,656.681 996.284,656.735 996.518,656.788C997.222,656.941 997.931,657.071 998.644,657.174C1001.55,657.594 1004.5,657.608 1007.41,657.324C1009,657.17 1010.58,656.926 1012.15,656.6C1013.48,656.322 1014.8,655.983 1016.1,655.58C1016.96,655.313 1017.81,655.018 1018.65,654.686C1019.29,654.432 1019.92,654.157 1020.54,653.85C1020.97,653.634 1021.4,653.403 1021.81,653.14C1021.94,653.052 1022.08,652.959 1022.21,652.861C1022.34,652.76 1022.47,652.654 1022.58,652.531C1022.66,652.437 1022.73,652.341 1022.81,652.246C1022.96,652.073 1023.1,651.901 1023.24,651.729C1024.02,650.804 1024.82,649.894 1025.64,649.004C1028.4,646.002 1031.38,643.203 1034.53,640.601C1035.88,639.477 1037.27,638.389 1038.69,637.343C1039.89,636.457 1041.11,635.6 1042.37,634.791L1042.52,634.69C1042.64,634.616 1042.73,634.554 1042.87,634.504C1043.03,634.448 1043.19,634.427 1043.35,634.44C1043.43,634.447 1043.51,634.471 1043.59,634.486L1043.66,634.508C1043.8,634.557 1043.92,634.612 1044.05,634.685C1044.36,634.873 1044.61,635.139 1044.83,635.429C1045.14,635.84 1045.38,636.303 1045.59,636.771C1045.7,637.015 1045.8,637.263 1045.9,637.513C1046.03,637.847 1046.15,638.185 1046.26,638.524C1046.41,638.955 1046.54,639.389 1046.68,639.825C1046.83,640.332 1046.97,640.841 1047.12,641.35C1047.08,641.146 1047.04,640.943 1047.01,640.74C1046.5,638.183 1045.64,635.685 1044.32,633.429C1043.59,632.18 1042.72,630.999 1041.68,629.993C1041.24,629.565 1040.76,629.166 1040.24,628.83C1039.89,628.603 1039.51,628.4 1039.12,628.264C1039.04,628.237 1038.96,628.215 1038.88,628.194C1038.71,628.149 1038.53,628.118 1038.35,628.136C1038.28,628.143 1038.2,628.156 1038.15,628.207L1038.15,628.21C1038.22,628.319 1038.32,628.413 1038.42,628.5C1038.58,628.631 1038.74,628.749 1038.9,628.863C1039.38,629.191 1039.88,629.482 1040.37,629.787C1040.52,629.879 1040.66,629.972 1040.81,630.067C1041.21,630.338 1041.61,630.627 1041.94,630.987C1042.13,631.201 1042.31,631.44 1042.42,631.705C1042.51,631.889 1042.56,632.085 1042.59,632.285C1042.6,632.428 1042.61,632.573 1042.59,632.716C1042.58,632.838 1042.55,632.958 1042.52,633.075C1042.49,633.168 1042.45,633.258 1042.41,633.345C1042.12,633.972 1041.55,634.414 1040.96,634.755C1040.82,634.838 1040.68,634.915 1040.53,634.989C1040.32,635.098 1040.1,635.199 1039.88,635.294C1039.63,635.402 1039.37,635.503 1039.12,635.599C1038.75,635.737 1038.38,635.865 1038,635.986C1037.49,636.153 1036.97,636.303 1036.45,636.454C1035.81,636.639 1035.17,636.818 1034.53,636.967C1033.82,637.13 1033.1,637.261 1032.37,637.361C1028.43,637.9 1024.4,637.496 1020.55,636.602C1019.81,636.431 1019.08,636.242 1018.35,636.036C1017.46,635.785 1016.58,635.51 1015.7,635.214C1014.97,634.965 1014.24,634.702 1013.52,634.426C1013.02,634.234 1012.52,634.033 1012.02,633.835C1011.66,633.694 1011.3,633.555 1010.94,633.417C1009.65,632.925 1008.36,632.449 1007.05,631.995C1003.26,630.674 999.412,629.509 995.54,628.448C991.143,627.242 986.71,626.171 982.256,625.195C976.64,623.964 970.99,622.883 965.323,621.911C959.324,620.883 953.305,619.976 947.273,619.164C940.715,618.282 934.142,617.512 927.559,616.839C921.143,616.183 914.718,615.619 908.286,615.148C903.275,614.781 898.26,614.47 893.241,614.236C889.178,614.046 885.112,613.901 881.045,613.882C880.69,613.882 880.334,613.883 879.979,613.884Z" style="fill:none;"/>
        </g>
        <g transform="matrix(0.294544,0,0,0.294544,657.28,194.328)">
            <path d="M1034.63,642.975C1034.63,642.975 1014.01,653.192 966.496,645.473C931.55,639.796 907.173,629.459 875.663,614.137C875.065,613.846 881.855,619.571 888.453,628.783C894.081,636.64 909.601,662.546 936.052,674.364C968.905,689.042 991.022,684.032 1002.36,680.476C1015.07,676.485 1022.55,658.55 1034.63,642.975Z" style="fill:rgb(102,33,25);"/>
        </g>
        <g transform="matrix(0.294544,0,0,0.294544,657.28,194.328)">
            <path d="M875.834,612.998C875.898,613.01 875.96,613.031 876.023,613.048L876.078,613.067C876.604,613.304 877.116,613.569 877.635,613.821C878.605,614.291 879.575,614.759 880.546,615.226C881.741,615.8 882.936,616.372 884.132,616.942C891.393,620.392 898.701,623.744 906.118,626.846C912.521,629.525 919.005,632.013 925.582,634.233C931.323,636.171 937.133,637.903 943,639.414C949.49,641.087 956.048,642.491 962.647,643.658C971.564,645.236 980.561,646.398 989.604,646.916C995.118,647.232 1000.65,647.312 1006.17,647.074C1010.54,646.885 1014.9,646.498 1019.23,645.834C1022.32,645.36 1025.39,644.747 1028.41,643.919C1029.5,643.619 1030.58,643.291 1031.65,642.921C1032.45,642.644 1033.25,642.348 1034.02,641.998L1034.08,641.968L1034.14,641.942L1034.38,641.858C1034.6,641.833 1034.66,641.807 1034.88,641.857C1034.97,641.876 1035.05,641.904 1035.12,641.94C1035.52,642.126 1035.77,642.529 1035.78,642.962C1035.78,643.047 1035.77,643.133 1035.75,643.216C1035.7,643.44 1035.66,643.483 1035.54,643.675C1035.26,644.038 1034.98,644.401 1034.7,644.765C1033.34,646.578 1032.01,648.422 1030.72,650.291C1028.39,653.675 1026.16,657.128 1023.89,660.557C1023.42,661.263 1022.95,661.968 1022.48,662.672C1021.48,664.15 1020.47,665.619 1019.43,667.064C1018.74,668.025 1018.03,668.976 1017.3,669.91C1016.75,670.613 1016.19,671.307 1015.61,671.988C1015.13,672.555 1014.63,673.114 1014.13,673.661C1011.56,676.448 1008.62,678.988 1005.17,680.606C1004.42,680.958 1003.64,681.26 1002.86,681.519C1002.44,681.653 1002.01,681.782 1001.59,681.91C999.325,682.591 997.036,683.195 994.72,683.689C991.566,684.363 988.371,684.84 985.157,685.117C978.041,685.73 970.863,685.355 963.823,684.184C957.405,683.116 951.104,681.395 944.983,679.199C942.594,678.342 940.231,677.412 937.896,676.418C936.7,675.909 935.51,675.389 934.334,674.837C933.304,674.354 932.285,673.847 931.278,673.318C926.979,671.061 922.897,668.401 919.047,665.444C911.278,659.479 904.472,652.331 898.423,644.647C896.507,642.213 894.666,639.72 892.878,637.19C891.457,635.178 890.074,633.14 888.681,631.109C888.385,630.68 888.087,630.252 887.788,629.825C885.262,626.257 882.468,622.88 879.481,619.69C878.636,618.787 877.774,617.899 876.898,617.026C876.581,616.709 876.262,616.395 875.942,616.082C875.631,615.778 875.317,615.476 875.011,615.168C874.946,615.101 874.947,615.102 874.883,615.034C874.834,614.981 874.804,614.949 874.757,614.891C874.72,614.845 874.683,614.787 874.651,614.738C874.62,614.692 874.6,614.64 874.575,614.59L874.572,614.583C874.516,614.417 874.516,614.417 874.486,614.244L874.486,614.239C874.491,613.978 874.491,613.977 874.555,613.724L874.556,613.722C874.624,613.579 874.633,613.537 874.734,613.412C874.771,613.365 874.816,613.324 874.856,613.281L874.858,613.28C874.915,613.236 874.969,613.188 875.031,613.15C875.196,613.049 875.249,613.049 875.433,612.998L875.438,612.998L875.636,612.981C875.702,612.987 875.768,612.993 875.834,612.998ZM881.154,618.123C881.881,618.902 882.598,619.689 883.303,620.488C884.986,622.4 886.601,624.373 888.132,626.409C888.603,627.035 889.067,627.668 889.521,628.307C890.105,629.129 890.674,629.963 891.244,630.795C891.75,631.536 892.256,632.276 892.764,633.016C893.045,633.424 893.328,633.833 893.61,634.241C894.646,635.727 895.692,637.206 896.763,638.667C898.498,641.036 900.291,643.363 902.155,645.631C907.393,652.007 913.199,657.951 919.699,663.049C923.662,666.158 927.882,668.947 932.343,671.289C933.32,671.802 934.308,672.294 935.307,672.762C936.458,673.302 937.623,673.812 938.793,674.309C941.204,675.335 943.644,676.292 946.113,677.169C954.711,680.224 963.687,682.321 972.804,682.933C977,683.215 981.218,683.18 985.407,682.794C988.853,682.476 992.276,681.92 995.647,681.135C997.135,680.788 998.612,680.397 1000.08,679.969C1000.55,679.833 1001.01,679.693 1001.48,679.549C1001.98,679.393 1002.49,679.235 1002.98,679.047C1004.04,678.642 1005.06,678.133 1006.03,677.544C1007.76,676.502 1009.32,675.22 1010.77,673.825C1012.48,672.177 1014.03,670.368 1015.49,668.498C1017.28,666.203 1018.95,663.81 1020.58,661.393C1022.18,659.011 1023.75,656.608 1025.33,654.212C1025.65,653.718 1025.98,653.223 1026.31,652.729C1027.14,651.477 1027.98,650.228 1028.84,648.99C1029.62,647.856 1030.41,646.732 1031.22,645.617L1031.35,645.435C1031.06,645.528 1030.77,645.618 1030.48,645.707C1030.2,645.792 1029.91,645.876 1029.62,645.958C1026.33,646.891 1022.96,647.58 1019.58,648.099C1016.29,648.603 1012.98,648.95 1009.67,649.175C1005.1,649.485 1000.52,649.563 995.938,649.462C990.624,649.346 985.315,648.987 980.028,648.439C973.533,647.766 967.071,646.802 960.648,645.627C954.531,644.509 948.45,643.185 942.428,641.634C936.74,640.168 931.105,638.498 925.535,636.635C918.672,634.34 911.909,631.753 905.233,628.961C897.783,625.844 890.441,622.477 883.148,619.012L882.433,618.671L881.047,618.009C881.082,618.047 881.118,618.085 881.154,618.123Z" style="fill:none;"/>
        </g>
        <g transform="matrix(-0.362437,-7.04175e-17,6.69608e-17,-0.326506,1303.68,598.27)">
            <path d="M987.022,625.854C998.213,625.854 1007.3,629.991 1007.3,635.088C1007.3,640.184 997.162,635.307 985.971,635.307C974.779,635.307 966.745,640.184 966.745,635.088C966.745,629.991 975.831,625.854 987.022,625.854Z" style="fill:rgb(133,63,55);"/>
        </g>
    </g>
</svg>
