<?xml version="1.0" encoding="UTF-8" standalone="no"?>
<!DOCTYPE svg PUBLIC "-//W3C//DTD SVG 1.1//EN" "http://www.w3.org/Graphics/SVG/1.1/DTD/svg11.dtd">
<svg width="100%" height="100%" viewBox="0 0 129 129" version="1.1" xmlns="http://www.w3.org/2000/svg" xmlns:xlink="http://www.w3.org/1999/xlink" xml:space="preserve" style="fill-rule:evenodd;clip-rule:evenodd;stroke-linecap:round;stroke-linejoin:round;stroke-miterlimit:1.5;">
    <g transform="matrix(1,0,0,1,-1201.16,-433.407)">
        <circle cx="1265.2" cy="497.446" r="61.038" style="fill:rgb(252,229,119);stroke:rgb(252,229,119);stroke-width:6px;"/>
    </g>
    <g transform="matrix(1,0,0,1,0.267227,-2.85496)">
        <path d="M78.098,107.993L49.436,107.993C41.379,107.993 34.838,101.452 34.838,93.395C35.422,78.326 33.942,63.735 50.909,44.882C50.909,36.825 41.379,25.795 49.436,25.795L78.098,25.795C86.155,25.795 76.626,36.825 76.626,44.882C93.593,63.735 92.112,78.326 92.697,93.395C92.697,101.452 86.155,107.993 78.098,107.993Z" style="fill:white;"/>
    </g>
    <g transform="matrix(1.18727,0,0,1.18727,-1226.38,-373.391)">
        <ellipse cx="1073.02" cy="368.433" rx="2.8" ry="2.799" style="fill:rgb(252,229,119);"/>
    </g>
    <g transform="matrix(1.18727,0,0,1.18727,-1194.46,-373.391)">
        <ellipse cx="1073.02" cy="368.433" rx="2.8" ry="2.799" style="fill:rgb(252,229,119);"/>
    </g>
    <g transform="matrix(2.08185,0,0,2.19546,-2199.78,-747.695)">
        <path d="M1084.85,372.524C1084.8,375.756 1090.03,375.909 1089.96,372.44" style="fill:rgb(252,229,119);stroke:white;stroke-width:0.78px;"/>
    </g>
</svg>
