<?xml version="1.0" encoding="UTF-8" standalone="no"?>
<!DOCTYPE svg PUBLIC "-//W3C//DTD SVG 1.1//EN" "http://www.w3.org/Graphics/SVG/1.1/DTD/svg11.dtd">
<svg width="100%" height="100%" viewBox="0 0 129 129" version="1.1" xmlns="http://www.w3.org/2000/svg" xmlns:xlink="http://www.w3.org/1999/xlink" xml:space="preserve" style="fill-rule:evenodd;clip-rule:evenodd;stroke-linecap:round;stroke-linejoin:round;stroke-miterlimit:1.5;">
    <g transform="matrix(1,0,0,1,-1201.16,-433.407)">
        <circle cx="1265.2" cy="497.446" r="61.038" style="fill:rgb(252,229,119);stroke:rgb(252,229,119);stroke-width:6px;"/>
    </g>
    <g transform="matrix(0.816224,0,0,0.944957,7.69591,3.12943)">
        <path d="M104.794,36.901C104.794,28.375 96.78,21.452 86.909,21.452L51.138,21.452C41.267,21.452 33.253,28.375 33.253,36.901L33.253,92.99C33.253,101.516 41.267,108.438 51.138,108.438L86.909,108.438C96.78,108.438 104.794,101.516 104.794,92.99L104.794,36.901Z" style="fill:white;"/>
    </g>
    <g transform="matrix(1.18727,0,0,1.18727,-1226.38,-373.391)">
        <ellipse cx="1073.02" cy="368.433" rx="2.8" ry="2.799" style="fill:rgb(252,229,119);"/>
    </g>
    <g transform="matrix(1.18727,0,0,1.18727,-1194.46,-373.391)">
        <ellipse cx="1073.02" cy="368.433" rx="2.8" ry="2.799" style="fill:rgb(252,229,119);"/>
    </g>
    <g transform="matrix(2.08185,0,0,2.19546,-2199.78,-747.695)">
        <path d="M1084.85,372.524C1084.8,375.756 1090.03,375.909 1089.96,372.44" style="fill:rgb(252,229,119);stroke:white;stroke-width:0.78px;"/>
    </g>
</svg>
