<?xml version="1.0" encoding="UTF-8" standalone="no"?>
<!DOCTYPE svg PUBLIC "-//W3C//DTD SVG 1.1//EN" "http://www.w3.org/Graphics/SVG/1.1/DTD/svg11.dtd">
<svg width="100%" height="100%" viewBox="0 0 129 129" version="1.1" xmlns="http://www.w3.org/2000/svg" xmlns:xlink="http://www.w3.org/1999/xlink" xml:space="preserve" style="fill-rule:evenodd;clip-rule:evenodd;stroke-linecap:round;stroke-linejoin:round;stroke-miterlimit:1.5;">
    <g transform="matrix(1,0,0,1,-1201.16,-433.407)">
        <circle cx="1265.2" cy="497.446" r="61.038" style="fill:rgb(93,68,151);stroke:rgb(93,68,151);stroke-width:6px;"/>
    </g>
    <g transform="matrix(1,0,0,1,4.79504,11.0366)">
        <path d="M64.148,8.357C61.193,8.066 58.217,8.066 55.262,8.357L53.927,15.373C51.099,15.802 48.327,16.545 45.664,17.588L40.999,12.179C38.295,13.404 35.718,14.892 33.305,16.622L35.656,23.365C33.422,25.151 31.393,27.18 29.607,29.415L22.863,27.063C21.134,29.476 19.646,32.054 18.421,34.758L23.829,39.422C22.787,42.086 22.044,44.858 21.615,47.686L14.599,49.021C14.308,51.975 14.308,54.951 14.599,57.906L21.615,59.241C22.044,62.069 22.787,64.841 23.829,67.505L18.421,72.169C19.646,74.873 21.134,77.451 22.863,79.864L29.607,77.512C31.393,79.747 33.422,81.776 35.656,83.561L33.305,90.305C35.718,92.034 38.295,93.522 40.999,94.748L45.664,89.339C48.327,90.382 51.099,91.124 53.927,91.553L55.262,98.569C58.217,98.86 61.193,98.86 64.148,98.569L65.483,91.553C68.311,91.124 71.083,90.382 73.746,89.339L78.411,94.748C81.115,93.522 83.692,92.034 86.105,90.305L83.753,83.561C85.988,81.776 88.017,79.747 89.803,77.512L96.547,79.864C98.276,77.451 99.764,74.873 100.989,72.169L95.581,67.505C96.623,64.841 97.366,62.069 97.795,59.241L104.811,57.906C105.102,54.951 105.102,51.975 104.811,49.021L97.795,47.686C97.366,44.858 96.623,42.086 95.581,39.422L100.989,34.758C99.764,32.054 98.276,29.476 96.547,27.063L89.803,29.415C88.017,27.18 85.988,25.151 83.753,23.365L86.105,16.622C83.692,14.892 81.115,13.404 78.411,12.179L73.746,17.588C71.083,16.545 68.311,15.802 65.483,15.373L64.148,8.357ZM59.705,44.399C64.708,44.399 68.77,48.46 68.77,53.463C68.77,58.466 64.708,62.528 59.705,62.528C54.702,62.528 50.64,58.466 50.64,53.463C50.64,48.46 54.702,44.399 59.705,44.399Z" style="fill:white;stroke:rgb(93,68,151);stroke-width:1.5px;"/>
    </g>
    <g transform="matrix(-1,-1.22465e-16,1.22465e-16,-1,127.382,168.722)">
        <path d="M67.392,86.203C67.392,84.299 65.373,82.756 62.882,82.756C60.391,82.756 58.371,84.299 58.371,86.203L67.392,86.203Z" style="fill:rgb(93,68,151);stroke:rgb(93,68,151);stroke-width:1.5px;"/>
    </g>
    <g transform="matrix(1.61083,0,0,1.61083,-1685.61,-520.77)">
        <ellipse cx="1073.02" cy="368.433" rx="2.8" ry="2.799" style="fill:rgb(93,68,151);"/>
    </g>
    <g transform="matrix(1.61083,0,0,1.61083,-1642.3,-520.77)">
        <ellipse cx="1073.02" cy="368.433" rx="2.8" ry="2.799" style="fill:rgb(93,68,151);"/>
    </g>
</svg>
